<?xml version="1.0" encoding="UTF-8"?>
<svg xmlns="http://www.w3.org/2000/svg" xmlns:xlink="http://www.w3.org/1999/xlink" width="1280pt" height="778pt" viewBox="0 0 1280 778" version="1.1">
<g id="surface21">
<rect x="0" y="0" width="1280" height="778" style="fill:rgb(78.431373%,78.431373%,78.431373%);fill-opacity:1;stroke:none;"/>
<rect x="0" y="0" width="1280" height="778" style="fill:rgb(0%,0%,0%);fill-opacity:1;stroke:none;"/>
<path style="fill:none;stroke-width:1;stroke-linecap:butt;stroke-linejoin:miter;stroke:rgb(100%,100%,100%);stroke-opacity:1;stroke-miterlimit:10;" d="M -300 -300 L -280 -280 L -260 -300 L -240 -280 L -220 -300 L -200 -280 L -180 -300 L -160 -280 L -140 -300 L -120 -280 L -100 -300 L -80 -280 L -60 -300 L -40 -280 L -20 -300 L 0 -280 L 20 -300 L 40 -280 L 60 -300 L 80 -280 L 100 -300 L 120 -280 L 140 -300 L 160 -280 L 180 -300 L 200 -280 L 220 -300 L 240 -280 L 260 -300 L 280 -280 L 300 -300 " transform="matrix(1,0,0,1,640,389)"/>
<path style="fill:none;stroke-width:1;stroke-linecap:butt;stroke-linejoin:miter;stroke:rgb(100%,100%,100%);stroke-opacity:1;stroke-miterlimit:10;" d="M -300 -280 L -280 -260 L -260 -280 L -240 -260 L -220 -280 L -200 -260 L -180 -280 L -160 -260 L -140 -280 L -120 -260 L -100 -280 L -80 -260 L -60 -280 L -40 -260 L -20 -280 L 0 -260 L 20 -280 L 40 -260 L 60 -280 L 80 -260 L 100 -280 L 120 -260 L 140 -280 L 160 -260 L 180 -280 L 200 -260 L 220 -280 L 240 -260 L 260 -280 L 280 -260 L 300 -280 " transform="matrix(1,0,0,1,640,389)"/>
<path style="fill:none;stroke-width:1;stroke-linecap:butt;stroke-linejoin:miter;stroke:rgb(100%,100%,100%);stroke-opacity:1;stroke-miterlimit:10;" d="M -300 -260 L -280 -240 L -260 -260 L -240 -240 L -220 -260 L -200 -240 L -180 -260 L -160 -240 L -140 -260 L -120 -240 L -100 -260 L -80 -240 L -60 -260 L -40 -240 L -20 -260 L 0 -240 L 20 -260 L 40 -240 L 60 -260 L 80 -240 L 100 -260 L 120 -240 L 140 -260 L 160 -240 L 180 -260 L 200 -240 L 220 -260 L 240 -240 L 260 -260 L 280 -240 L 300 -260 " transform="matrix(1,0,0,1,640,389)"/>
<path style="fill:none;stroke-width:1;stroke-linecap:butt;stroke-linejoin:miter;stroke:rgb(100%,100%,100%);stroke-opacity:1;stroke-miterlimit:10;" d="M -300 -240 L -280 -220 L -260 -240 L -240 -220 L -220 -240 L -200 -220 L -180 -240 L -160 -220 L -140 -240 L -120 -220 L -100 -240 L -80 -220 L -60 -240 L -40 -220 L -20 -240 L 0 -220 L 20 -240 L 40 -220 L 60 -240 L 80 -220 L 100 -240 L 120 -220 L 140 -240 L 160 -220 L 180 -240 L 200 -220 L 220 -240 L 240 -220 L 260 -240 L 280 -220 L 300 -240 " transform="matrix(1,0,0,1,640,389)"/>
<path style="fill:none;stroke-width:1;stroke-linecap:butt;stroke-linejoin:miter;stroke:rgb(100%,100%,100%);stroke-opacity:1;stroke-miterlimit:10;" d="M -300 -220 L -280 -200 L -260 -220 L -240 -200 L -220 -220 L -200 -200 L -180 -220 L -160 -200 L -140 -220 L -120 -200 L -100 -220 L -80 -200 L -60 -220 L -40 -200 L -20 -220 L 0 -200 L 20 -220 L 40 -200 L 60 -220 L 80 -200 L 100 -220 L 120 -200 L 140 -220 L 160 -200 L 180 -220 L 200 -200 L 220 -220 L 240 -200 L 260 -220 L 280 -200 L 300 -220 " transform="matrix(1,0,0,1,640,389)"/>
<path style="fill:none;stroke-width:1;stroke-linecap:butt;stroke-linejoin:miter;stroke:rgb(100%,100%,100%);stroke-opacity:1;stroke-miterlimit:10;" d="M -300 -200 L -280 -180 L -260 -200 L -240 -180 L -220 -200 L -200 -180 L -180 -200 L -160 -180 L -140 -200 L -120 -180 L -100 -200 L -80 -180 L -60 -200 L -40 -180 L -20 -200 L 0 -180 L 20 -200 L 40 -180 L 60 -200 L 80 -180 L 100 -200 L 120 -180 L 140 -200 L 160 -180 L 180 -200 L 200 -180 L 220 -200 L 240 -180 L 260 -200 L 280 -180 L 300 -200 " transform="matrix(1,0,0,1,640,389)"/>
<path style="fill:none;stroke-width:1;stroke-linecap:butt;stroke-linejoin:miter;stroke:rgb(100%,100%,100%);stroke-opacity:1;stroke-miterlimit:10;" d="M -300 -180 L -280 -160 L -260 -180 L -240 -160 L -220 -180 L -200 -160 L -180 -180 L -160 -160 L -140 -180 L -120 -160 L -100 -180 L -80 -160 L -60 -180 L -40 -160 L -20 -180 L 0 -160 L 20 -180 L 40 -160 L 60 -180 L 80 -160 L 100 -180 L 120 -160 L 140 -180 L 160 -160 L 180 -180 L 200 -160 L 220 -180 L 240 -160 L 260 -180 L 280 -160 L 300 -180 " transform="matrix(1,0,0,1,640,389)"/>
<path style="fill:none;stroke-width:1;stroke-linecap:butt;stroke-linejoin:miter;stroke:rgb(100%,100%,100%);stroke-opacity:1;stroke-miterlimit:10;" d="M -300 -160 L -280 -140 L -260 -160 L -240 -140 L -220 -160 L -200 -140 L -180 -160 L -160 -140 L -140 -160 L -120 -140 L -100 -160 L -80 -140 L -60 -160 L -40 -140 L -20 -160 L 0 -140 L 20 -160 L 40 -140 L 60 -160 L 80 -140 L 100 -160 L 120 -140 L 140 -160 L 160 -140 L 180 -160 L 200 -140 L 220 -160 L 240 -140 L 260 -160 L 280 -140 L 300 -160 " transform="matrix(1,0,0,1,640,389)"/>
<path style="fill:none;stroke-width:1;stroke-linecap:butt;stroke-linejoin:miter;stroke:rgb(100%,100%,100%);stroke-opacity:1;stroke-miterlimit:10;" d="M -300 -140 L -280 -120 L -260 -140 L -240 -120 L -220 -140 L -200 -120 L -180 -140 L -160 -120 L -140 -140 L -120 -120 L -100 -140 L -80 -120 L -60 -140 L -40 -120 L -20 -140 L 0 -120 L 20 -140 L 40 -120 L 60 -140 L 80 -120 L 100 -140 L 120 -120 L 140 -140 L 160 -120 L 180 -140 L 200 -120 L 220 -140 L 240 -120 L 260 -140 L 280 -120 L 300 -140 " transform="matrix(1,0,0,1,640,389)"/>
<path style="fill:none;stroke-width:1;stroke-linecap:butt;stroke-linejoin:miter;stroke:rgb(100%,100%,100%);stroke-opacity:1;stroke-miterlimit:10;" d="M -300 -120 L -280 -100 L -260 -120 L -240 -100 L -220 -120 L -200 -100 L -180 -120 L -160 -100 L -140 -120 L -120 -100 L -100 -120 L -80 -100 L -60 -120 L -40 -100 L -20 -120 L 0 -100 L 20 -120 L 40 -100 L 60 -120 L 80 -100 L 100 -120 L 120 -100 L 140 -120 L 160 -100 L 180 -120 L 200 -100 L 220 -120 L 240 -100 L 260 -120 L 280 -100 L 300 -120 " transform="matrix(1,0,0,1,640,389)"/>
<path style="fill:none;stroke-width:1;stroke-linecap:butt;stroke-linejoin:miter;stroke:rgb(100%,100%,100%);stroke-opacity:1;stroke-miterlimit:10;" d="M -300 -100 L -280 -80 L -260 -100 L -240 -80 L -220 -100 L -200 -80 L -180 -100 L -160 -80 L -140 -100 L -120 -80 L -100 -100 L -80 -80 L -60 -100 L -40 -80 L -20 -100 L 0 -80 L 20 -100 L 40 -80 L 60 -100 L 80 -80 L 100 -100 L 120 -80 L 140 -100 L 160 -80 L 180 -100 L 200 -80 L 220 -100 L 240 -80 L 260 -100 L 280 -80 L 300 -100 " transform="matrix(1,0,0,1,640,389)"/>
<path style="fill:none;stroke-width:1;stroke-linecap:butt;stroke-linejoin:miter;stroke:rgb(100%,100%,100%);stroke-opacity:1;stroke-miterlimit:10;" d="M -300 -80 L -280 -60 L -260 -80 L -240 -60 L -220 -80 L -200 -60 L -180 -80 L -160 -60 L -140 -80 L -120 -60 L -100 -80 L -80 -60 L -60 -80 L -40 -60 L -20 -80 L 0 -60 L 20 -80 L 40 -60 L 60 -80 L 80 -60 L 100 -80 L 120 -60 L 140 -80 L 160 -60 L 180 -80 L 200 -60 L 220 -80 L 240 -60 L 260 -80 L 280 -60 L 300 -80 " transform="matrix(1,0,0,1,640,389)"/>
<path style="fill:none;stroke-width:1;stroke-linecap:butt;stroke-linejoin:miter;stroke:rgb(100%,100%,100%);stroke-opacity:1;stroke-miterlimit:10;" d="M -300 -60 L -280 -40 L -260 -60 L -240 -40 L -220 -60 L -200 -40 L -180 -60 L -160 -40 L -140 -60 L -120 -40 L -100 -60 L -80 -40 L -60 -60 L -40 -40 L -20 -60 L 0 -40 L 20 -60 L 40 -40 L 60 -60 L 80 -40 L 100 -60 L 120 -40 L 140 -60 L 160 -40 L 180 -60 L 200 -40 L 220 -60 L 240 -40 L 260 -60 L 280 -40 L 300 -60 " transform="matrix(1,0,0,1,640,389)"/>
<path style="fill:none;stroke-width:1;stroke-linecap:butt;stroke-linejoin:miter;stroke:rgb(100%,100%,100%);stroke-opacity:1;stroke-miterlimit:10;" d="M -300 -40 L -280 -20 L -260 -40 L -240 -20 L -220 -40 L -200 -20 L -180 -40 L -160 -20 L -140 -40 L -120 -20 L -100 -40 L -80 -20 L -60 -40 L -40 -20 L -20 -40 L 0 -20 L 20 -40 L 40 -20 L 60 -40 L 80 -20 L 100 -40 L 120 -20 L 140 -40 L 160 -20 L 180 -40 L 200 -20 L 220 -40 L 240 -20 L 260 -40 L 280 -20 L 300 -40 " transform="matrix(1,0,0,1,640,389)"/>
<path style="fill:none;stroke-width:1;stroke-linecap:butt;stroke-linejoin:miter;stroke:rgb(100%,100%,100%);stroke-opacity:1;stroke-miterlimit:10;" d="M -300 -20 L -280 0 L -260 -20 L -240 0 L -220 -20 L -200 0 L -180 -20 L -160 0 L -140 -20 L -120 0 L -100 -20 L -80 0 L -60 -20 L -40 0 L -20 -20 L 0 0 L 20 -20 L 40 0 L 60 -20 L 80 0 L 100 -20 L 120 0 L 140 -20 L 160 0 L 180 -20 L 200 0 L 220 -20 L 240 0 L 260 -20 L 280 0 L 300 -20 " transform="matrix(1,0,0,1,640,389)"/>
<path style="fill:none;stroke-width:1;stroke-linecap:butt;stroke-linejoin:miter;stroke:rgb(100%,100%,100%);stroke-opacity:1;stroke-miterlimit:10;" d="M -300 0 L -280 20 L -260 0 L -240 20 L -220 0 L -200 20 L -180 0 L -160 20 L -140 0 L -120 20 L -100 0 L -80 20 L -60 0 L -40 20 L -20 0 L 0 20 L 20 0 L 40 20 L 60 0 L 80 20 L 100 0 L 120 20 L 140 0 L 160 20 L 180 0 L 200 20 L 220 0 L 240 20 L 260 0 L 280 20 L 300 0 " transform="matrix(1,0,0,1,640,389)"/>
<path style="fill:none;stroke-width:1;stroke-linecap:butt;stroke-linejoin:miter;stroke:rgb(100%,100%,100%);stroke-opacity:1;stroke-miterlimit:10;" d="M -300 20 L -280 40 L -260 20 L -240 40 L -220 20 L -200 40 L -180 20 L -160 40 L -140 20 L -120 40 L -100 20 L -80 40 L -60 20 L -40 40 L -20 20 L 0 40 L 20 20 L 40 40 L 60 20 L 80 40 L 100 20 L 120 40 L 140 20 L 160 40 L 180 20 L 200 40 L 220 20 L 240 40 L 260 20 L 280 40 L 300 20 " transform="matrix(1,0,0,1,640,389)"/>
<path style="fill:none;stroke-width:1;stroke-linecap:butt;stroke-linejoin:miter;stroke:rgb(100%,100%,100%);stroke-opacity:1;stroke-miterlimit:10;" d="M -300 40 L -280 60 L -260 40 L -240 60 L -220 40 L -200 60 L -180 40 L -160 60 L -140 40 L -120 60 L -100 40 L -80 60 L -60 40 L -40 60 L -20 40 L 0 60 L 20 40 L 40 60 L 60 40 L 80 60 L 100 40 L 120 60 L 140 40 L 160 60 L 180 40 L 200 60 L 220 40 L 240 60 L 260 40 L 280 60 L 300 40 " transform="matrix(1,0,0,1,640,389)"/>
<path style="fill:none;stroke-width:1;stroke-linecap:butt;stroke-linejoin:miter;stroke:rgb(100%,100%,100%);stroke-opacity:1;stroke-miterlimit:10;" d="M -300 60 L -280 80 L -260 60 L -240 80 L -220 60 L -200 80 L -180 60 L -160 80 L -140 60 L -120 80 L -100 60 L -80 80 L -60 60 L -40 80 L -20 60 L 0 80 L 20 60 L 40 80 L 60 60 L 80 80 L 100 60 L 120 80 L 140 60 L 160 80 L 180 60 L 200 80 L 220 60 L 240 80 L 260 60 L 280 80 L 300 60 " transform="matrix(1,0,0,1,640,389)"/>
<path style="fill:none;stroke-width:1;stroke-linecap:butt;stroke-linejoin:miter;stroke:rgb(100%,100%,100%);stroke-opacity:1;stroke-miterlimit:10;" d="M -300 80 L -280 100 L -260 80 L -240 100 L -220 80 L -200 100 L -180 80 L -160 100 L -140 80 L -120 100 L -100 80 L -80 100 L -60 80 L -40 100 L -20 80 L 0 100 L 20 80 L 40 100 L 60 80 L 80 100 L 100 80 L 120 100 L 140 80 L 160 100 L 180 80 L 200 100 L 220 80 L 240 100 L 260 80 L 280 100 L 300 80 " transform="matrix(1,0,0,1,640,389)"/>
<path style="fill:none;stroke-width:1;stroke-linecap:butt;stroke-linejoin:miter;stroke:rgb(100%,100%,100%);stroke-opacity:1;stroke-miterlimit:10;" d="M -300 100 L -280 120 L -260 100 L -240 120 L -220 100 L -200 120 L -180 100 L -160 120 L -140 100 L -120 120 L -100 100 L -80 120 L -60 100 L -40 120 L -20 100 L 0 120 L 20 100 L 40 120 L 60 100 L 80 120 L 100 100 L 120 120 L 140 100 L 160 120 L 180 100 L 200 120 L 220 100 L 240 120 L 260 100 L 280 120 L 300 100 " transform="matrix(1,0,0,1,640,389)"/>
<path style="fill:none;stroke-width:1;stroke-linecap:butt;stroke-linejoin:miter;stroke:rgb(100%,100%,100%);stroke-opacity:1;stroke-miterlimit:10;" d="M -300 120 L -280 140 L -260 120 L -240 140 L -220 120 L -200 140 L -180 120 L -160 140 L -140 120 L -120 140 L -100 120 L -80 140 L -60 120 L -40 140 L -20 120 L 0 140 L 20 120 L 40 140 L 60 120 L 80 140 L 100 120 L 120 140 L 140 120 L 160 140 L 180 120 L 200 140 L 220 120 L 240 140 L 260 120 L 280 140 L 300 120 " transform="matrix(1,0,0,1,640,389)"/>
<path style="fill:none;stroke-width:1;stroke-linecap:butt;stroke-linejoin:miter;stroke:rgb(100%,100%,100%);stroke-opacity:1;stroke-miterlimit:10;" d="M -300 140 L -280 160 L -260 140 L -240 160 L -220 140 L -200 160 L -180 140 L -160 160 L -140 140 L -120 160 L -100 140 L -80 160 L -60 140 L -40 160 L -20 140 L 0 160 L 20 140 L 40 160 L 60 140 L 80 160 L 100 140 L 120 160 L 140 140 L 160 160 L 180 140 L 200 160 L 220 140 L 240 160 L 260 140 L 280 160 L 300 140 " transform="matrix(1,0,0,1,640,389)"/>
<path style="fill:none;stroke-width:1;stroke-linecap:butt;stroke-linejoin:miter;stroke:rgb(100%,100%,100%);stroke-opacity:1;stroke-miterlimit:10;" d="M -300 160 L -280 180 L -260 160 L -240 180 L -220 160 L -200 180 L -180 160 L -160 180 L -140 160 L -120 180 L -100 160 L -80 180 L -60 160 L -40 180 L -20 160 L 0 180 L 20 160 L 40 180 L 60 160 L 80 180 L 100 160 L 120 180 L 140 160 L 160 180 L 180 160 L 200 180 L 220 160 L 240 180 L 260 160 L 280 180 L 300 160 " transform="matrix(1,0,0,1,640,389)"/>
<path style="fill:none;stroke-width:1;stroke-linecap:butt;stroke-linejoin:miter;stroke:rgb(100%,100%,100%);stroke-opacity:1;stroke-miterlimit:10;" d="M -300 180 L -280 200 L -260 180 L -240 200 L -220 180 L -200 200 L -180 180 L -160 200 L -140 180 L -120 200 L -100 180 L -80 200 L -60 180 L -40 200 L -20 180 L 0 200 L 20 180 L 40 200 L 60 180 L 80 200 L 100 180 L 120 200 L 140 180 L 160 200 L 180 180 L 200 200 L 220 180 L 240 200 L 260 180 L 280 200 L 300 180 " transform="matrix(1,0,0,1,640,389)"/>
<path style="fill:none;stroke-width:1;stroke-linecap:butt;stroke-linejoin:miter;stroke:rgb(100%,100%,100%);stroke-opacity:1;stroke-miterlimit:10;" d="M -300 200 L -280 220 L -260 200 L -240 220 L -220 200 L -200 220 L -180 200 L -160 220 L -140 200 L -120 220 L -100 200 L -80 220 L -60 200 L -40 220 L -20 200 L 0 220 L 20 200 L 40 220 L 60 200 L 80 220 L 100 200 L 120 220 L 140 200 L 160 220 L 180 200 L 200 220 L 220 200 L 240 220 L 260 200 L 280 220 L 300 200 " transform="matrix(1,0,0,1,640,389)"/>
<path style="fill:none;stroke-width:1;stroke-linecap:butt;stroke-linejoin:miter;stroke:rgb(100%,100%,100%);stroke-opacity:1;stroke-miterlimit:10;" d="M -300 220 L -280 240 L -260 220 L -240 240 L -220 220 L -200 240 L -180 220 L -160 240 L -140 220 L -120 240 L -100 220 L -80 240 L -60 220 L -40 240 L -20 220 L 0 240 L 20 220 L 40 240 L 60 220 L 80 240 L 100 220 L 120 240 L 140 220 L 160 240 L 180 220 L 200 240 L 220 220 L 240 240 L 260 220 L 280 240 L 300 220 " transform="matrix(1,0,0,1,640,389)"/>
<path style="fill:none;stroke-width:1;stroke-linecap:butt;stroke-linejoin:miter;stroke:rgb(100%,100%,100%);stroke-opacity:1;stroke-miterlimit:10;" d="M -300 240 L -280 260 L -260 240 L -240 260 L -220 240 L -200 260 L -180 240 L -160 260 L -140 240 L -120 260 L -100 240 L -80 260 L -60 240 L -40 260 L -20 240 L 0 260 L 20 240 L 40 260 L 60 240 L 80 260 L 100 240 L 120 260 L 140 240 L 160 260 L 180 240 L 200 260 L 220 240 L 240 260 L 260 240 L 280 260 L 300 240 " transform="matrix(1,0,0,1,640,389)"/>
<path style="fill:none;stroke-width:1;stroke-linecap:butt;stroke-linejoin:miter;stroke:rgb(100%,100%,100%);stroke-opacity:1;stroke-miterlimit:10;" d="M -300 260 L -280 280 L -260 260 L -240 280 L -220 260 L -200 280 L -180 260 L -160 280 L -140 260 L -120 280 L -100 260 L -80 280 L -60 260 L -40 280 L -20 260 L 0 280 L 20 260 L 40 280 L 60 260 L 80 280 L 100 260 L 120 280 L 140 260 L 160 280 L 180 260 L 200 280 L 220 260 L 240 280 L 260 260 L 280 280 L 300 260 " transform="matrix(1,0,0,1,640,389)"/>
<path style="fill:none;stroke-width:1;stroke-linecap:butt;stroke-linejoin:miter;stroke:rgb(100%,100%,100%);stroke-opacity:1;stroke-miterlimit:10;" d="M -300 280 L -280 300 L -260 280 L -240 300 L -220 280 L -200 300 L -180 280 L -160 300 L -140 280 L -120 300 L -100 280 L -80 300 L -60 280 L -40 300 L -20 280 L 0 300 L 20 280 L 40 300 L 60 280 L 80 300 L 100 280 L 120 300 L 140 280 L 160 300 L 180 280 L 200 300 L 220 280 L 240 300 L 260 280 L 280 300 L 300 280 " transform="matrix(1,0,0,1,640,389)"/>
<path style="fill:none;stroke-width:1;stroke-linecap:butt;stroke-linejoin:miter;stroke:rgb(100%,100%,100%);stroke-opacity:1;stroke-miterlimit:10;" d="M -300 300 L -280 320 L -260 300 L -240 320 L -220 300 L -200 320 L -180 300 L -160 320 L -140 300 L -120 320 L -100 300 L -80 320 L -60 300 L -40 320 L -20 300 L 0 320 L 20 300 L 40 320 L 60 300 L 80 320 L 100 300 L 120 320 L 140 300 L 160 320 L 180 300 L 200 320 L 220 300 L 240 320 L 260 300 L 280 320 L 300 300 " transform="matrix(1,0,0,1,640,389)"/>
<path style="fill:none;stroke-width:1;stroke-linecap:butt;stroke-linejoin:miter;stroke:rgb(100%,100%,100%);stroke-opacity:1;stroke-miterlimit:10;" d="M -300 -300 L -280 -280 L -280 -260 L -300 -240 L -300 -200 L -280 -180 L -280 -160 L -300 -140 L -300 -100 L -280 -80 L -280 -60 L -300 -40 L -300 0 L -280 20 L -280 40 L -300 60 L -300 100 L -280 120 L -280 140 L -300 160 L -300 200 L -280 220 L -280 240 L -300 260 L -300 300 " transform="matrix(1,0,0,1,640,389)"/>
<path style="fill:none;stroke-width:1;stroke-linecap:butt;stroke-linejoin:miter;stroke:rgb(100%,100%,100%);stroke-opacity:1;stroke-miterlimit:10;" d="M -280 -300 L -260 -280 L -260 -260 L -280 -240 L -280 -200 L -260 -180 L -260 -160 L -280 -140 L -280 -100 L -260 -80 L -260 -60 L -280 -40 L -280 0 L -260 20 L -260 40 L -280 60 L -280 100 L -260 120 L -260 140 L -280 160 L -280 200 L -260 220 L -260 240 L -280 260 L -280 300 " transform="matrix(1,0,0,1,640,389)"/>
<path style="fill:none;stroke-width:1;stroke-linecap:butt;stroke-linejoin:miter;stroke:rgb(100%,100%,100%);stroke-opacity:1;stroke-miterlimit:10;" d="M -260 -300 L -240 -280 L -240 -260 L -260 -240 L -260 -200 L -240 -180 L -240 -160 L -260 -140 L -260 -100 L -240 -80 L -240 -60 L -260 -40 L -260 0 L -240 20 L -240 40 L -260 60 L -260 100 L -240 120 L -240 140 L -260 160 L -260 200 L -240 220 L -240 240 L -260 260 L -260 300 " transform="matrix(1,0,0,1,640,389)"/>
<path style="fill:none;stroke-width:1;stroke-linecap:butt;stroke-linejoin:miter;stroke:rgb(100%,100%,100%);stroke-opacity:1;stroke-miterlimit:10;" d="M -240 -300 L -220 -280 L -220 -260 L -240 -240 L -240 -200 L -220 -180 L -220 -160 L -240 -140 L -240 -100 L -220 -80 L -220 -60 L -240 -40 L -240 0 L -220 20 L -220 40 L -240 60 L -240 100 L -220 120 L -220 140 L -240 160 L -240 200 L -220 220 L -220 240 L -240 260 L -240 300 " transform="matrix(1,0,0,1,640,389)"/>
<path style="fill:none;stroke-width:1;stroke-linecap:butt;stroke-linejoin:miter;stroke:rgb(100%,100%,100%);stroke-opacity:1;stroke-miterlimit:10;" d="M -220 -300 L -200 -280 L -200 -260 L -220 -240 L -220 -200 L -200 -180 L -200 -160 L -220 -140 L -220 -100 L -200 -80 L -200 -60 L -220 -40 L -220 0 L -200 20 L -200 40 L -220 60 L -220 100 L -200 120 L -200 140 L -220 160 L -220 200 L -200 220 L -200 240 L -220 260 L -220 300 " transform="matrix(1,0,0,1,640,389)"/>
<path style="fill:none;stroke-width:1;stroke-linecap:butt;stroke-linejoin:miter;stroke:rgb(100%,100%,100%);stroke-opacity:1;stroke-miterlimit:10;" d="M -200 -300 L -180 -280 L -180 -260 L -200 -240 L -200 -200 L -180 -180 L -180 -160 L -200 -140 L -200 -100 L -180 -80 L -180 -60 L -200 -40 L -200 0 L -180 20 L -180 40 L -200 60 L -200 100 L -180 120 L -180 140 L -200 160 L -200 200 L -180 220 L -180 240 L -200 260 L -200 300 " transform="matrix(1,0,0,1,640,389)"/>
<path style="fill:none;stroke-width:1;stroke-linecap:butt;stroke-linejoin:miter;stroke:rgb(100%,100%,100%);stroke-opacity:1;stroke-miterlimit:10;" d="M -180 -300 L -160 -280 L -160 -260 L -180 -240 L -180 -200 L -160 -180 L -160 -160 L -180 -140 L -180 -100 L -160 -80 L -160 -60 L -180 -40 L -180 0 L -160 20 L -160 40 L -180 60 L -180 100 L -160 120 L -160 140 L -180 160 L -180 200 L -160 220 L -160 240 L -180 260 L -180 300 " transform="matrix(1,0,0,1,640,389)"/>
<path style="fill:none;stroke-width:1;stroke-linecap:butt;stroke-linejoin:miter;stroke:rgb(100%,100%,100%);stroke-opacity:1;stroke-miterlimit:10;" d="M -160 -300 L -140 -280 L -140 -260 L -160 -240 L -160 -200 L -140 -180 L -140 -160 L -160 -140 L -160 -100 L -140 -80 L -140 -60 L -160 -40 L -160 0 L -140 20 L -140 40 L -160 60 L -160 100 L -140 120 L -140 140 L -160 160 L -160 200 L -140 220 L -140 240 L -160 260 L -160 300 " transform="matrix(1,0,0,1,640,389)"/>
<path style="fill:none;stroke-width:1;stroke-linecap:butt;stroke-linejoin:miter;stroke:rgb(100%,100%,100%);stroke-opacity:1;stroke-miterlimit:10;" d="M -140 -300 L -120 -280 L -120 -260 L -140 -240 L -140 -200 L -120 -180 L -120 -160 L -140 -140 L -140 -100 L -120 -80 L -120 -60 L -140 -40 L -140 0 L -120 20 L -120 40 L -140 60 L -140 100 L -120 120 L -120 140 L -140 160 L -140 200 L -120 220 L -120 240 L -140 260 L -140 300 " transform="matrix(1,0,0,1,640,389)"/>
<path style="fill:none;stroke-width:1;stroke-linecap:butt;stroke-linejoin:miter;stroke:rgb(100%,100%,100%);stroke-opacity:1;stroke-miterlimit:10;" d="M -120 -300 L -100 -280 L -100 -260 L -120 -240 L -120 -200 L -100 -180 L -100 -160 L -120 -140 L -120 -100 L -100 -80 L -100 -60 L -120 -40 L -120 0 L -100 20 L -100 40 L -120 60 L -120 100 L -100 120 L -100 140 L -120 160 L -120 200 L -100 220 L -100 240 L -120 260 L -120 300 " transform="matrix(1,0,0,1,640,389)"/>
<path style="fill:none;stroke-width:1;stroke-linecap:butt;stroke-linejoin:miter;stroke:rgb(100%,100%,100%);stroke-opacity:1;stroke-miterlimit:10;" d="M -100 -300 L -80 -280 L -80 -260 L -100 -240 L -100 -200 L -80 -180 L -80 -160 L -100 -140 L -100 -100 L -80 -80 L -80 -60 L -100 -40 L -100 0 L -80 20 L -80 40 L -100 60 L -100 100 L -80 120 L -80 140 L -100 160 L -100 200 L -80 220 L -80 240 L -100 260 L -100 300 " transform="matrix(1,0,0,1,640,389)"/>
<path style="fill:none;stroke-width:1;stroke-linecap:butt;stroke-linejoin:miter;stroke:rgb(100%,100%,100%);stroke-opacity:1;stroke-miterlimit:10;" d="M -80 -300 L -60 -280 L -60 -260 L -80 -240 L -80 -200 L -60 -180 L -60 -160 L -80 -140 L -80 -100 L -60 -80 L -60 -60 L -80 -40 L -80 0 L -60 20 L -60 40 L -80 60 L -80 100 L -60 120 L -60 140 L -80 160 L -80 200 L -60 220 L -60 240 L -80 260 L -80 300 " transform="matrix(1,0,0,1,640,389)"/>
<path style="fill:none;stroke-width:1;stroke-linecap:butt;stroke-linejoin:miter;stroke:rgb(100%,100%,100%);stroke-opacity:1;stroke-miterlimit:10;" d="M -60 -300 L -40 -280 L -40 -260 L -60 -240 L -60 -200 L -40 -180 L -40 -160 L -60 -140 L -60 -100 L -40 -80 L -40 -60 L -60 -40 L -60 0 L -40 20 L -40 40 L -60 60 L -60 100 L -40 120 L -40 140 L -60 160 L -60 200 L -40 220 L -40 240 L -60 260 L -60 300 " transform="matrix(1,0,0,1,640,389)"/>
<path style="fill:none;stroke-width:1;stroke-linecap:butt;stroke-linejoin:miter;stroke:rgb(100%,100%,100%);stroke-opacity:1;stroke-miterlimit:10;" d="M -40 -300 L -20 -280 L -20 -260 L -40 -240 L -40 -200 L -20 -180 L -20 -160 L -40 -140 L -40 -100 L -20 -80 L -20 -60 L -40 -40 L -40 0 L -20 20 L -20 40 L -40 60 L -40 100 L -20 120 L -20 140 L -40 160 L -40 200 L -20 220 L -20 240 L -40 260 L -40 300 " transform="matrix(1,0,0,1,640,389)"/>
<path style="fill:none;stroke-width:1;stroke-linecap:butt;stroke-linejoin:miter;stroke:rgb(100%,100%,100%);stroke-opacity:1;stroke-miterlimit:10;" d="M -20 -300 L 0 -280 L 0 -260 L -20 -240 L -20 -200 L 0 -180 L 0 -160 L -20 -140 L -20 -100 L 0 -80 L 0 -60 L -20 -40 L -20 0 L 0 20 L 0 40 L -20 60 L -20 100 L 0 120 L 0 140 L -20 160 L -20 200 L 0 220 L 0 240 L -20 260 L -20 300 " transform="matrix(1,0,0,1,640,389)"/>
<path style="fill:none;stroke-width:1;stroke-linecap:butt;stroke-linejoin:miter;stroke:rgb(100%,100%,100%);stroke-opacity:1;stroke-miterlimit:10;" d="M 0 -300 L 20 -280 L 20 -260 L 0 -240 L 0 -200 L 20 -180 L 20 -160 L 0 -140 L 0 -100 L 20 -80 L 20 -60 L 0 -40 L 0 0 L 20 20 L 20 40 L 0 60 L 0 100 L 20 120 L 20 140 L 0 160 L 0 200 L 20 220 L 20 240 L 0 260 L 0 300 " transform="matrix(1,0,0,1,640,389)"/>
<path style="fill:none;stroke-width:1;stroke-linecap:butt;stroke-linejoin:miter;stroke:rgb(100%,100%,100%);stroke-opacity:1;stroke-miterlimit:10;" d="M 20 -300 L 40 -280 L 40 -260 L 20 -240 L 20 -200 L 40 -180 L 40 -160 L 20 -140 L 20 -100 L 40 -80 L 40 -60 L 20 -40 L 20 0 L 40 20 L 40 40 L 20 60 L 20 100 L 40 120 L 40 140 L 20 160 L 20 200 L 40 220 L 40 240 L 20 260 L 20 300 " transform="matrix(1,0,0,1,640,389)"/>
<path style="fill:none;stroke-width:1;stroke-linecap:butt;stroke-linejoin:miter;stroke:rgb(100%,100%,100%);stroke-opacity:1;stroke-miterlimit:10;" d="M 40 -300 L 60 -280 L 60 -260 L 40 -240 L 40 -200 L 60 -180 L 60 -160 L 40 -140 L 40 -100 L 60 -80 L 60 -60 L 40 -40 L 40 0 L 60 20 L 60 40 L 40 60 L 40 100 L 60 120 L 60 140 L 40 160 L 40 200 L 60 220 L 60 240 L 40 260 L 40 300 " transform="matrix(1,0,0,1,640,389)"/>
<path style="fill:none;stroke-width:1;stroke-linecap:butt;stroke-linejoin:miter;stroke:rgb(100%,100%,100%);stroke-opacity:1;stroke-miterlimit:10;" d="M 60 -300 L 80 -280 L 80 -260 L 60 -240 L 60 -200 L 80 -180 L 80 -160 L 60 -140 L 60 -100 L 80 -80 L 80 -60 L 60 -40 L 60 0 L 80 20 L 80 40 L 60 60 L 60 100 L 80 120 L 80 140 L 60 160 L 60 200 L 80 220 L 80 240 L 60 260 L 60 300 " transform="matrix(1,0,0,1,640,389)"/>
<path style="fill:none;stroke-width:1;stroke-linecap:butt;stroke-linejoin:miter;stroke:rgb(100%,100%,100%);stroke-opacity:1;stroke-miterlimit:10;" d="M 80 -300 L 100 -280 L 100 -260 L 80 -240 L 80 -200 L 100 -180 L 100 -160 L 80 -140 L 80 -100 L 100 -80 L 100 -60 L 80 -40 L 80 0 L 100 20 L 100 40 L 80 60 L 80 100 L 100 120 L 100 140 L 80 160 L 80 200 L 100 220 L 100 240 L 80 260 L 80 300 " transform="matrix(1,0,0,1,640,389)"/>
<path style="fill:none;stroke-width:1;stroke-linecap:butt;stroke-linejoin:miter;stroke:rgb(100%,100%,100%);stroke-opacity:1;stroke-miterlimit:10;" d="M 100 -300 L 120 -280 L 120 -260 L 100 -240 L 100 -200 L 120 -180 L 120 -160 L 100 -140 L 100 -100 L 120 -80 L 120 -60 L 100 -40 L 100 0 L 120 20 L 120 40 L 100 60 L 100 100 L 120 120 L 120 140 L 100 160 L 100 200 L 120 220 L 120 240 L 100 260 L 100 300 " transform="matrix(1,0,0,1,640,389)"/>
<path style="fill:none;stroke-width:1;stroke-linecap:butt;stroke-linejoin:miter;stroke:rgb(100%,100%,100%);stroke-opacity:1;stroke-miterlimit:10;" d="M 120 -300 L 140 -280 L 140 -260 L 120 -240 L 120 -200 L 140 -180 L 140 -160 L 120 -140 L 120 -100 L 140 -80 L 140 -60 L 120 -40 L 120 0 L 140 20 L 140 40 L 120 60 L 120 100 L 140 120 L 140 140 L 120 160 L 120 200 L 140 220 L 140 240 L 120 260 L 120 300 " transform="matrix(1,0,0,1,640,389)"/>
<path style="fill:none;stroke-width:1;stroke-linecap:butt;stroke-linejoin:miter;stroke:rgb(100%,100%,100%);stroke-opacity:1;stroke-miterlimit:10;" d="M 140 -300 L 160 -280 L 160 -260 L 140 -240 L 140 -200 L 160 -180 L 160 -160 L 140 -140 L 140 -100 L 160 -80 L 160 -60 L 140 -40 L 140 0 L 160 20 L 160 40 L 140 60 L 140 100 L 160 120 L 160 140 L 140 160 L 140 200 L 160 220 L 160 240 L 140 260 L 140 300 " transform="matrix(1,0,0,1,640,389)"/>
<path style="fill:none;stroke-width:1;stroke-linecap:butt;stroke-linejoin:miter;stroke:rgb(100%,100%,100%);stroke-opacity:1;stroke-miterlimit:10;" d="M 160 -300 L 180 -280 L 180 -260 L 160 -240 L 160 -200 L 180 -180 L 180 -160 L 160 -140 L 160 -100 L 180 -80 L 180 -60 L 160 -40 L 160 0 L 180 20 L 180 40 L 160 60 L 160 100 L 180 120 L 180 140 L 160 160 L 160 200 L 180 220 L 180 240 L 160 260 L 160 300 " transform="matrix(1,0,0,1,640,389)"/>
<path style="fill:none;stroke-width:1;stroke-linecap:butt;stroke-linejoin:miter;stroke:rgb(100%,100%,100%);stroke-opacity:1;stroke-miterlimit:10;" d="M 180 -300 L 200 -280 L 200 -260 L 180 -240 L 180 -200 L 200 -180 L 200 -160 L 180 -140 L 180 -100 L 200 -80 L 200 -60 L 180 -40 L 180 0 L 200 20 L 200 40 L 180 60 L 180 100 L 200 120 L 200 140 L 180 160 L 180 200 L 200 220 L 200 240 L 180 260 L 180 300 " transform="matrix(1,0,0,1,640,389)"/>
<path style="fill:none;stroke-width:1;stroke-linecap:butt;stroke-linejoin:miter;stroke:rgb(100%,100%,100%);stroke-opacity:1;stroke-miterlimit:10;" d="M 200 -300 L 220 -280 L 220 -260 L 200 -240 L 200 -200 L 220 -180 L 220 -160 L 200 -140 L 200 -100 L 220 -80 L 220 -60 L 200 -40 L 200 0 L 220 20 L 220 40 L 200 60 L 200 100 L 220 120 L 220 140 L 200 160 L 200 200 L 220 220 L 220 240 L 200 260 L 200 300 " transform="matrix(1,0,0,1,640,389)"/>
<path style="fill:none;stroke-width:1;stroke-linecap:butt;stroke-linejoin:miter;stroke:rgb(100%,100%,100%);stroke-opacity:1;stroke-miterlimit:10;" d="M 220 -300 L 240 -280 L 240 -260 L 220 -240 L 220 -200 L 240 -180 L 240 -160 L 220 -140 L 220 -100 L 240 -80 L 240 -60 L 220 -40 L 220 0 L 240 20 L 240 40 L 220 60 L 220 100 L 240 120 L 240 140 L 220 160 L 220 200 L 240 220 L 240 240 L 220 260 L 220 300 " transform="matrix(1,0,0,1,640,389)"/>
<path style="fill:none;stroke-width:1;stroke-linecap:butt;stroke-linejoin:miter;stroke:rgb(100%,100%,100%);stroke-opacity:1;stroke-miterlimit:10;" d="M 240 -300 L 260 -280 L 260 -260 L 240 -240 L 240 -200 L 260 -180 L 260 -160 L 240 -140 L 240 -100 L 260 -80 L 260 -60 L 240 -40 L 240 0 L 260 20 L 260 40 L 240 60 L 240 100 L 260 120 L 260 140 L 240 160 L 240 200 L 260 220 L 260 240 L 240 260 L 240 300 " transform="matrix(1,0,0,1,640,389)"/>
<path style="fill:none;stroke-width:1;stroke-linecap:butt;stroke-linejoin:miter;stroke:rgb(100%,100%,100%);stroke-opacity:1;stroke-miterlimit:10;" d="M 260 -300 L 280 -280 L 280 -260 L 260 -240 L 260 -200 L 280 -180 L 280 -160 L 260 -140 L 260 -100 L 280 -80 L 280 -60 L 260 -40 L 260 0 L 280 20 L 280 40 L 260 60 L 260 100 L 280 120 L 280 140 L 260 160 L 260 200 L 280 220 L 280 240 L 260 260 L 260 300 " transform="matrix(1,0,0,1,640,389)"/>
<path style="fill:none;stroke-width:1;stroke-linecap:butt;stroke-linejoin:miter;stroke:rgb(100%,100%,100%);stroke-opacity:1;stroke-miterlimit:10;" d="M 280 -300 L 300 -280 L 300 -260 L 280 -240 L 280 -200 L 300 -180 L 300 -160 L 280 -140 L 280 -100 L 300 -80 L 300 -60 L 280 -40 L 280 0 L 300 20 L 300 40 L 280 60 L 280 100 L 300 120 L 300 140 L 280 160 L 280 200 L 300 220 L 300 240 L 280 260 L 280 300 " transform="matrix(1,0,0,1,640,389)"/>
<path style="fill:none;stroke-width:1;stroke-linecap:butt;stroke-linejoin:miter;stroke:rgb(100%,100%,100%);stroke-opacity:1;stroke-miterlimit:10;" d="M 300 -300 L 320 -280 L 320 -260 L 300 -240 L 300 -200 L 320 -180 L 320 -160 L 300 -140 L 300 -100 L 320 -80 L 320 -60 L 300 -40 L 300 0 L 320 20 L 320 40 L 300 60 L 300 100 L 320 120 L 320 140 L 300 160 L 300 200 L 320 220 L 320 240 L 300 260 L 300 300 " transform="matrix(1,0,0,1,640,389)"/>
</g>
</svg>
