<?xml version="1.0" encoding="UTF-8"?>
<svg xmlns="http://www.w3.org/2000/svg" xmlns:xlink="http://www.w3.org/1999/xlink" width="1280pt" height="778pt" viewBox="0 0 1280 778" version="1.1">
<g id="surface13">
<rect x="0" y="0" width="1280" height="778" style="fill:rgb(78.431373%,78.431373%,78.431373%);fill-opacity:1;stroke:none;"/>
<rect x="0" y="0" width="1280" height="778" style="fill:rgb(0%,0%,0%);fill-opacity:1;stroke:none;"/>
<path style="fill:none;stroke-width:1;stroke-linecap:butt;stroke-linejoin:miter;stroke:rgb(100%,100%,100%);stroke-opacity:1;stroke-miterlimit:10;" d="M -300 -300 L -280 -290 L -260 -300 L -240 -290 L -220 -300 L -200 -290 L -180 -300 L -160 -290 L -140 -300 L -120 -290 L -100 -300 L -80 -290 L -60 -300 L -40 -290 L -20 -300 L 0 -290 L 20 -300 L 40 -290 L 60 -300 L 80 -290 L 100 -300 L 120 -290 L 140 -300 L 160 -290 L 180 -300 L 200 -290 L 220 -300 L 240 -290 L 260 -300 L 280 -290 L 300 -300 " transform="matrix(1,0,0,1,640,389)"/>
<path style="fill:none;stroke-width:1;stroke-linecap:butt;stroke-linejoin:miter;stroke:rgb(100%,100%,100%);stroke-opacity:1;stroke-miterlimit:10;" d="M -300 -280 L -280 -270 L -260 -280 L -240 -270 L -220 -280 L -200 -270 L -180 -280 L -160 -270 L -140 -280 L -120 -270 L -100 -280 L -80 -270 L -60 -280 L -40 -270 L -20 -280 L 0 -270 L 20 -280 L 40 -270 L 60 -280 L 80 -270 L 100 -280 L 120 -270 L 140 -280 L 160 -270 L 180 -280 L 200 -270 L 220 -280 L 240 -270 L 260 -280 L 280 -270 L 300 -280 " transform="matrix(1,0,0,1,640,389)"/>
<path style="fill:none;stroke-width:1;stroke-linecap:butt;stroke-linejoin:miter;stroke:rgb(100%,100%,100%);stroke-opacity:1;stroke-miterlimit:10;" d="M -300 -260 L -280 -250 L -260 -260 L -240 -250 L -220 -260 L -200 -250 L -180 -260 L -160 -250 L -140 -260 L -120 -250 L -100 -260 L -80 -250 L -60 -260 L -40 -250 L -20 -260 L 0 -250 L 20 -260 L 40 -250 L 60 -260 L 80 -250 L 100 -260 L 120 -250 L 140 -260 L 160 -250 L 180 -260 L 200 -250 L 220 -260 L 240 -250 L 260 -260 L 280 -250 L 300 -260 " transform="matrix(1,0,0,1,640,389)"/>
<path style="fill:none;stroke-width:1;stroke-linecap:butt;stroke-linejoin:miter;stroke:rgb(100%,100%,100%);stroke-opacity:1;stroke-miterlimit:10;" d="M -300 -240 L -280 -230 L -260 -240 L -240 -230 L -220 -240 L -200 -230 L -180 -240 L -160 -230 L -140 -240 L -120 -230 L -100 -240 L -80 -230 L -60 -240 L -40 -230 L -20 -240 L 0 -230 L 20 -240 L 40 -230 L 60 -240 L 80 -230 L 100 -240 L 120 -230 L 140 -240 L 160 -230 L 180 -240 L 200 -230 L 220 -240 L 240 -230 L 260 -240 L 280 -230 L 300 -240 " transform="matrix(1,0,0,1,640,389)"/>
<path style="fill:none;stroke-width:1;stroke-linecap:butt;stroke-linejoin:miter;stroke:rgb(100%,100%,100%);stroke-opacity:1;stroke-miterlimit:10;" d="M -300 -220 L -280 -210 L -260 -220 L -240 -210 L -220 -220 L -200 -210 L -180 -220 L -160 -210 L -140 -220 L -120 -210 L -100 -220 L -80 -210 L -60 -220 L -40 -210 L -20 -220 L 0 -210 L 20 -220 L 40 -210 L 60 -220 L 80 -210 L 100 -220 L 120 -210 L 140 -220 L 160 -210 L 180 -220 L 200 -210 L 220 -220 L 240 -210 L 260 -220 L 280 -210 L 300 -220 " transform="matrix(1,0,0,1,640,389)"/>
<path style="fill:none;stroke-width:1;stroke-linecap:butt;stroke-linejoin:miter;stroke:rgb(100%,100%,100%);stroke-opacity:1;stroke-miterlimit:10;" d="M -300 -200 L -280 -190 L -260 -200 L -240 -190 L -220 -200 L -200 -190 L -180 -200 L -160 -190 L -140 -200 L -120 -190 L -100 -200 L -80 -190 L -60 -200 L -40 -190 L -20 -200 L 0 -190 L 20 -200 L 40 -190 L 60 -200 L 80 -190 L 100 -200 L 120 -190 L 140 -200 L 160 -190 L 180 -200 L 200 -190 L 220 -200 L 240 -190 L 260 -200 L 280 -190 L 300 -200 " transform="matrix(1,0,0,1,640,389)"/>
<path style="fill:none;stroke-width:1;stroke-linecap:butt;stroke-linejoin:miter;stroke:rgb(100%,100%,100%);stroke-opacity:1;stroke-miterlimit:10;" d="M -300 -180 L -280 -170 L -260 -180 L -240 -170 L -220 -180 L -200 -170 L -180 -180 L -160 -170 L -140 -180 L -120 -170 L -100 -180 L -80 -170 L -60 -180 L -40 -170 L -20 -180 L 0 -170 L 20 -180 L 40 -170 L 60 -180 L 80 -170 L 100 -180 L 120 -170 L 140 -180 L 160 -170 L 180 -180 L 200 -170 L 220 -180 L 240 -170 L 260 -180 L 280 -170 L 300 -180 " transform="matrix(1,0,0,1,640,389)"/>
<path style="fill:none;stroke-width:1;stroke-linecap:butt;stroke-linejoin:miter;stroke:rgb(100%,100%,100%);stroke-opacity:1;stroke-miterlimit:10;" d="M -300 -160 L -280 -150 L -260 -160 L -240 -150 L -220 -160 L -200 -150 L -180 -160 L -160 -150 L -140 -160 L -120 -150 L -100 -160 L -80 -150 L -60 -160 L -40 -150 L -20 -160 L 0 -150 L 20 -160 L 40 -150 L 60 -160 L 80 -150 L 100 -160 L 120 -150 L 140 -160 L 160 -150 L 180 -160 L 200 -150 L 220 -160 L 240 -150 L 260 -160 L 280 -150 L 300 -160 " transform="matrix(1,0,0,1,640,389)"/>
<path style="fill:none;stroke-width:1;stroke-linecap:butt;stroke-linejoin:miter;stroke:rgb(100%,100%,100%);stroke-opacity:1;stroke-miterlimit:10;" d="M -300 -140 L -280 -130 L -260 -140 L -240 -130 L -220 -140 L -200 -130 L -180 -140 L -160 -130 L -140 -140 L -120 -130 L -100 -140 L -80 -130 L -60 -140 L -40 -130 L -20 -140 L 0 -130 L 20 -140 L 40 -130 L 60 -140 L 80 -130 L 100 -140 L 120 -130 L 140 -140 L 160 -130 L 180 -140 L 200 -130 L 220 -140 L 240 -130 L 260 -140 L 280 -130 L 300 -140 " transform="matrix(1,0,0,1,640,389)"/>
<path style="fill:none;stroke-width:1;stroke-linecap:butt;stroke-linejoin:miter;stroke:rgb(100%,100%,100%);stroke-opacity:1;stroke-miterlimit:10;" d="M -300 -120 L -280 -110 L -260 -120 L -240 -110 L -220 -120 L -200 -110 L -180 -120 L -160 -110 L -140 -120 L -120 -110 L -100 -120 L -80 -110 L -60 -120 L -40 -110 L -20 -120 L 0 -110 L 20 -120 L 40 -110 L 60 -120 L 80 -110 L 100 -120 L 120 -110 L 140 -120 L 160 -110 L 180 -120 L 200 -110 L 220 -120 L 240 -110 L 260 -120 L 280 -110 L 300 -120 " transform="matrix(1,0,0,1,640,389)"/>
<path style="fill:none;stroke-width:1;stroke-linecap:butt;stroke-linejoin:miter;stroke:rgb(100%,100%,100%);stroke-opacity:1;stroke-miterlimit:10;" d="M -300 -100 L -280 -90 L -260 -100 L -240 -90 L -220 -100 L -200 -90 L -180 -100 L -160 -90 L -140 -100 L -120 -90 L -100 -100 L -80 -90 L -60 -100 L -40 -90 L -20 -100 L 0 -90 L 20 -100 L 40 -90 L 60 -100 L 80 -90 L 100 -100 L 120 -90 L 140 -100 L 160 -90 L 180 -100 L 200 -90 L 220 -100 L 240 -90 L 260 -100 L 280 -90 L 300 -100 " transform="matrix(1,0,0,1,640,389)"/>
<path style="fill:none;stroke-width:1;stroke-linecap:butt;stroke-linejoin:miter;stroke:rgb(100%,100%,100%);stroke-opacity:1;stroke-miterlimit:10;" d="M -300 -80 L -280 -70 L -260 -80 L -240 -70 L -220 -80 L -200 -70 L -180 -80 L -160 -70 L -140 -80 L -120 -70 L -100 -80 L -80 -70 L -60 -80 L -40 -70 L -20 -80 L 0 -70 L 20 -80 L 40 -70 L 60 -80 L 80 -70 L 100 -80 L 120 -70 L 140 -80 L 160 -70 L 180 -80 L 200 -70 L 220 -80 L 240 -70 L 260 -80 L 280 -70 L 300 -80 " transform="matrix(1,0,0,1,640,389)"/>
<path style="fill:none;stroke-width:1;stroke-linecap:butt;stroke-linejoin:miter;stroke:rgb(100%,100%,100%);stroke-opacity:1;stroke-miterlimit:10;" d="M -300 -60 L -280 -50 L -260 -60 L -240 -50 L -220 -60 L -200 -50 L -180 -60 L -160 -50 L -140 -60 L -120 -50 L -100 -60 L -80 -50 L -60 -60 L -40 -50 L -20 -60 L 0 -50 L 20 -60 L 40 -50 L 60 -60 L 80 -50 L 100 -60 L 120 -50 L 140 -60 L 160 -50 L 180 -60 L 200 -50 L 220 -60 L 240 -50 L 260 -60 L 280 -50 L 300 -60 " transform="matrix(1,0,0,1,640,389)"/>
<path style="fill:none;stroke-width:1;stroke-linecap:butt;stroke-linejoin:miter;stroke:rgb(100%,100%,100%);stroke-opacity:1;stroke-miterlimit:10;" d="M -300 -40 L -280 -30 L -260 -40 L -240 -30 L -220 -40 L -200 -30 L -180 -40 L -160 -30 L -140 -40 L -120 -30 L -100 -40 L -80 -30 L -60 -40 L -40 -30 L -20 -40 L 0 -30 L 20 -40 L 40 -30 L 60 -40 L 80 -30 L 100 -40 L 120 -30 L 140 -40 L 160 -30 L 180 -40 L 200 -30 L 220 -40 L 240 -30 L 260 -40 L 280 -30 L 300 -40 " transform="matrix(1,0,0,1,640,389)"/>
<path style="fill:none;stroke-width:1;stroke-linecap:butt;stroke-linejoin:miter;stroke:rgb(100%,100%,100%);stroke-opacity:1;stroke-miterlimit:10;" d="M -300 -20 L -280 -10 L -260 -20 L -240 -10 L -220 -20 L -200 -10 L -180 -20 L -160 -10 L -140 -20 L -120 -10 L -100 -20 L -80 -10 L -60 -20 L -40 -10 L -20 -20 L 0 -10 L 20 -20 L 40 -10 L 60 -20 L 80 -10 L 100 -20 L 120 -10 L 140 -20 L 160 -10 L 180 -20 L 200 -10 L 220 -20 L 240 -10 L 260 -20 L 280 -10 L 300 -20 " transform="matrix(1,0,0,1,640,389)"/>
<path style="fill:none;stroke-width:1;stroke-linecap:butt;stroke-linejoin:miter;stroke:rgb(100%,100%,100%);stroke-opacity:1;stroke-miterlimit:10;" d="M -300 0 L -280 10 L -260 0 L -240 10 L -220 0 L -200 10 L -180 0 L -160 10 L -140 0 L -120 10 L -100 0 L -80 10 L -60 0 L -40 10 L -20 0 L 0 10 L 20 0 L 40 10 L 60 0 L 80 10 L 100 0 L 120 10 L 140 0 L 160 10 L 180 0 L 200 10 L 220 0 L 240 10 L 260 0 L 280 10 L 300 0 " transform="matrix(1,0,0,1,640,389)"/>
<path style="fill:none;stroke-width:1;stroke-linecap:butt;stroke-linejoin:miter;stroke:rgb(100%,100%,100%);stroke-opacity:1;stroke-miterlimit:10;" d="M -300 20 L -280 30 L -260 20 L -240 30 L -220 20 L -200 30 L -180 20 L -160 30 L -140 20 L -120 30 L -100 20 L -80 30 L -60 20 L -40 30 L -20 20 L 0 30 L 20 20 L 40 30 L 60 20 L 80 30 L 100 20 L 120 30 L 140 20 L 160 30 L 180 20 L 200 30 L 220 20 L 240 30 L 260 20 L 280 30 L 300 20 " transform="matrix(1,0,0,1,640,389)"/>
<path style="fill:none;stroke-width:1;stroke-linecap:butt;stroke-linejoin:miter;stroke:rgb(100%,100%,100%);stroke-opacity:1;stroke-miterlimit:10;" d="M -300 40 L -280 50 L -260 40 L -240 50 L -220 40 L -200 50 L -180 40 L -160 50 L -140 40 L -120 50 L -100 40 L -80 50 L -60 40 L -40 50 L -20 40 L 0 50 L 20 40 L 40 50 L 60 40 L 80 50 L 100 40 L 120 50 L 140 40 L 160 50 L 180 40 L 200 50 L 220 40 L 240 50 L 260 40 L 280 50 L 300 40 " transform="matrix(1,0,0,1,640,389)"/>
<path style="fill:none;stroke-width:1;stroke-linecap:butt;stroke-linejoin:miter;stroke:rgb(100%,100%,100%);stroke-opacity:1;stroke-miterlimit:10;" d="M -300 60 L -280 70 L -260 60 L -240 70 L -220 60 L -200 70 L -180 60 L -160 70 L -140 60 L -120 70 L -100 60 L -80 70 L -60 60 L -40 70 L -20 60 L 0 70 L 20 60 L 40 70 L 60 60 L 80 70 L 100 60 L 120 70 L 140 60 L 160 70 L 180 60 L 200 70 L 220 60 L 240 70 L 260 60 L 280 70 L 300 60 " transform="matrix(1,0,0,1,640,389)"/>
<path style="fill:none;stroke-width:1;stroke-linecap:butt;stroke-linejoin:miter;stroke:rgb(100%,100%,100%);stroke-opacity:1;stroke-miterlimit:10;" d="M -300 80 L -280 90 L -260 80 L -240 90 L -220 80 L -200 90 L -180 80 L -160 90 L -140 80 L -120 90 L -100 80 L -80 90 L -60 80 L -40 90 L -20 80 L 0 90 L 20 80 L 40 90 L 60 80 L 80 90 L 100 80 L 120 90 L 140 80 L 160 90 L 180 80 L 200 90 L 220 80 L 240 90 L 260 80 L 280 90 L 300 80 " transform="matrix(1,0,0,1,640,389)"/>
<path style="fill:none;stroke-width:1;stroke-linecap:butt;stroke-linejoin:miter;stroke:rgb(100%,100%,100%);stroke-opacity:1;stroke-miterlimit:10;" d="M -300 100 L -280 110 L -260 100 L -240 110 L -220 100 L -200 110 L -180 100 L -160 110 L -140 100 L -120 110 L -100 100 L -80 110 L -60 100 L -40 110 L -20 100 L 0 110 L 20 100 L 40 110 L 60 100 L 80 110 L 100 100 L 120 110 L 140 100 L 160 110 L 180 100 L 200 110 L 220 100 L 240 110 L 260 100 L 280 110 L 300 100 " transform="matrix(1,0,0,1,640,389)"/>
<path style="fill:none;stroke-width:1;stroke-linecap:butt;stroke-linejoin:miter;stroke:rgb(100%,100%,100%);stroke-opacity:1;stroke-miterlimit:10;" d="M -300 120 L -280 130 L -260 120 L -240 130 L -220 120 L -200 130 L -180 120 L -160 130 L -140 120 L -120 130 L -100 120 L -80 130 L -60 120 L -40 130 L -20 120 L 0 130 L 20 120 L 40 130 L 60 120 L 80 130 L 100 120 L 120 130 L 140 120 L 160 130 L 180 120 L 200 130 L 220 120 L 240 130 L 260 120 L 280 130 L 300 120 " transform="matrix(1,0,0,1,640,389)"/>
<path style="fill:none;stroke-width:1;stroke-linecap:butt;stroke-linejoin:miter;stroke:rgb(100%,100%,100%);stroke-opacity:1;stroke-miterlimit:10;" d="M -300 140 L -280 150 L -260 140 L -240 150 L -220 140 L -200 150 L -180 140 L -160 150 L -140 140 L -120 150 L -100 140 L -80 150 L -60 140 L -40 150 L -20 140 L 0 150 L 20 140 L 40 150 L 60 140 L 80 150 L 100 140 L 120 150 L 140 140 L 160 150 L 180 140 L 200 150 L 220 140 L 240 150 L 260 140 L 280 150 L 300 140 " transform="matrix(1,0,0,1,640,389)"/>
<path style="fill:none;stroke-width:1;stroke-linecap:butt;stroke-linejoin:miter;stroke:rgb(100%,100%,100%);stroke-opacity:1;stroke-miterlimit:10;" d="M -300 160 L -280 170 L -260 160 L -240 170 L -220 160 L -200 170 L -180 160 L -160 170 L -140 160 L -120 170 L -100 160 L -80 170 L -60 160 L -40 170 L -20 160 L 0 170 L 20 160 L 40 170 L 60 160 L 80 170 L 100 160 L 120 170 L 140 160 L 160 170 L 180 160 L 200 170 L 220 160 L 240 170 L 260 160 L 280 170 L 300 160 " transform="matrix(1,0,0,1,640,389)"/>
<path style="fill:none;stroke-width:1;stroke-linecap:butt;stroke-linejoin:miter;stroke:rgb(100%,100%,100%);stroke-opacity:1;stroke-miterlimit:10;" d="M -300 180 L -280 190 L -260 180 L -240 190 L -220 180 L -200 190 L -180 180 L -160 190 L -140 180 L -120 190 L -100 180 L -80 190 L -60 180 L -40 190 L -20 180 L 0 190 L 20 180 L 40 190 L 60 180 L 80 190 L 100 180 L 120 190 L 140 180 L 160 190 L 180 180 L 200 190 L 220 180 L 240 190 L 260 180 L 280 190 L 300 180 " transform="matrix(1,0,0,1,640,389)"/>
<path style="fill:none;stroke-width:1;stroke-linecap:butt;stroke-linejoin:miter;stroke:rgb(100%,100%,100%);stroke-opacity:1;stroke-miterlimit:10;" d="M -300 200 L -280 210 L -260 200 L -240 210 L -220 200 L -200 210 L -180 200 L -160 210 L -140 200 L -120 210 L -100 200 L -80 210 L -60 200 L -40 210 L -20 200 L 0 210 L 20 200 L 40 210 L 60 200 L 80 210 L 100 200 L 120 210 L 140 200 L 160 210 L 180 200 L 200 210 L 220 200 L 240 210 L 260 200 L 280 210 L 300 200 " transform="matrix(1,0,0,1,640,389)"/>
<path style="fill:none;stroke-width:1;stroke-linecap:butt;stroke-linejoin:miter;stroke:rgb(100%,100%,100%);stroke-opacity:1;stroke-miterlimit:10;" d="M -300 220 L -280 230 L -260 220 L -240 230 L -220 220 L -200 230 L -180 220 L -160 230 L -140 220 L -120 230 L -100 220 L -80 230 L -60 220 L -40 230 L -20 220 L 0 230 L 20 220 L 40 230 L 60 220 L 80 230 L 100 220 L 120 230 L 140 220 L 160 230 L 180 220 L 200 230 L 220 220 L 240 230 L 260 220 L 280 230 L 300 220 " transform="matrix(1,0,0,1,640,389)"/>
<path style="fill:none;stroke-width:1;stroke-linecap:butt;stroke-linejoin:miter;stroke:rgb(100%,100%,100%);stroke-opacity:1;stroke-miterlimit:10;" d="M -300 240 L -280 250 L -260 240 L -240 250 L -220 240 L -200 250 L -180 240 L -160 250 L -140 240 L -120 250 L -100 240 L -80 250 L -60 240 L -40 250 L -20 240 L 0 250 L 20 240 L 40 250 L 60 240 L 80 250 L 100 240 L 120 250 L 140 240 L 160 250 L 180 240 L 200 250 L 220 240 L 240 250 L 260 240 L 280 250 L 300 240 " transform="matrix(1,0,0,1,640,389)"/>
<path style="fill:none;stroke-width:1;stroke-linecap:butt;stroke-linejoin:miter;stroke:rgb(100%,100%,100%);stroke-opacity:1;stroke-miterlimit:10;" d="M -300 260 L -280 270 L -260 260 L -240 270 L -220 260 L -200 270 L -180 260 L -160 270 L -140 260 L -120 270 L -100 260 L -80 270 L -60 260 L -40 270 L -20 260 L 0 270 L 20 260 L 40 270 L 60 260 L 80 270 L 100 260 L 120 270 L 140 260 L 160 270 L 180 260 L 200 270 L 220 260 L 240 270 L 260 260 L 280 270 L 300 260 " transform="matrix(1,0,0,1,640,389)"/>
<path style="fill:none;stroke-width:1;stroke-linecap:butt;stroke-linejoin:miter;stroke:rgb(100%,100%,100%);stroke-opacity:1;stroke-miterlimit:10;" d="M -300 280 L -280 290 L -260 280 L -240 290 L -220 280 L -200 290 L -180 280 L -160 290 L -140 280 L -120 290 L -100 280 L -80 290 L -60 280 L -40 290 L -20 280 L 0 290 L 20 280 L 40 290 L 60 280 L 80 290 L 100 280 L 120 290 L 140 280 L 160 290 L 180 280 L 200 290 L 220 280 L 240 290 L 260 280 L 280 290 L 300 280 " transform="matrix(1,0,0,1,640,389)"/>
<path style="fill:none;stroke-width:1;stroke-linecap:butt;stroke-linejoin:miter;stroke:rgb(100%,100%,100%);stroke-opacity:1;stroke-miterlimit:10;" d="M -300 300 L -280 310 L -260 300 L -240 310 L -220 300 L -200 310 L -180 300 L -160 310 L -140 300 L -120 310 L -100 300 L -80 310 L -60 300 L -40 310 L -20 300 L 0 310 L 20 300 L 40 310 L 60 300 L 80 310 L 100 300 L 120 310 L 140 300 L 160 310 L 180 300 L 200 310 L 220 300 L 240 310 L 260 300 L 280 310 L 300 300 " transform="matrix(1,0,0,1,640,389)"/>
<path style="fill:none;stroke-width:1;stroke-linecap:butt;stroke-linejoin:miter;stroke:rgb(100%,100%,100%);stroke-opacity:1;stroke-miterlimit:10;" d="M -300 -300 L -290 -280 L -300 -260 L -290 -240 L -300 -220 L -290 -200 L -300 -180 L -290 -160 L -300 -140 L -290 -120 L -300 -100 L -290 -80 L -300 -60 L -290 -40 L -300 -20 L -290 0 L -300 20 L -290 40 L -300 60 L -290 80 L -300 100 L -290 120 L -300 140 L -290 160 L -300 180 L -290 200 L -300 220 L -290 240 L -300 260 L -290 280 L -300 300 " transform="matrix(1,0,0,1,640,389)"/>
<path style="fill:none;stroke-width:1;stroke-linecap:butt;stroke-linejoin:miter;stroke:rgb(100%,100%,100%);stroke-opacity:1;stroke-miterlimit:10;" d="M -280 -300 L -270 -280 L -280 -260 L -270 -240 L -280 -220 L -270 -200 L -280 -180 L -270 -160 L -280 -140 L -270 -120 L -280 -100 L -270 -80 L -280 -60 L -270 -40 L -280 -20 L -270 0 L -280 20 L -270 40 L -280 60 L -270 80 L -280 100 L -270 120 L -280 140 L -270 160 L -280 180 L -270 200 L -280 220 L -270 240 L -280 260 L -270 280 L -280 300 " transform="matrix(1,0,0,1,640,389)"/>
<path style="fill:none;stroke-width:1;stroke-linecap:butt;stroke-linejoin:miter;stroke:rgb(100%,100%,100%);stroke-opacity:1;stroke-miterlimit:10;" d="M -260 -300 L -250 -280 L -260 -260 L -250 -240 L -260 -220 L -250 -200 L -260 -180 L -250 -160 L -260 -140 L -250 -120 L -260 -100 L -250 -80 L -260 -60 L -250 -40 L -260 -20 L -250 0 L -260 20 L -250 40 L -260 60 L -250 80 L -260 100 L -250 120 L -260 140 L -250 160 L -260 180 L -250 200 L -260 220 L -250 240 L -260 260 L -250 280 L -260 300 " transform="matrix(1,0,0,1,640,389)"/>
<path style="fill:none;stroke-width:1;stroke-linecap:butt;stroke-linejoin:miter;stroke:rgb(100%,100%,100%);stroke-opacity:1;stroke-miterlimit:10;" d="M -240 -300 L -230 -280 L -240 -260 L -230 -240 L -240 -220 L -230 -200 L -240 -180 L -230 -160 L -240 -140 L -230 -120 L -240 -100 L -230 -80 L -240 -60 L -230 -40 L -240 -20 L -230 0 L -240 20 L -230 40 L -240 60 L -230 80 L -240 100 L -230 120 L -240 140 L -230 160 L -240 180 L -230 200 L -240 220 L -230 240 L -240 260 L -230 280 L -240 300 " transform="matrix(1,0,0,1,640,389)"/>
<path style="fill:none;stroke-width:1;stroke-linecap:butt;stroke-linejoin:miter;stroke:rgb(100%,100%,100%);stroke-opacity:1;stroke-miterlimit:10;" d="M -220 -300 L -210 -280 L -220 -260 L -210 -240 L -220 -220 L -210 -200 L -220 -180 L -210 -160 L -220 -140 L -210 -120 L -220 -100 L -210 -80 L -220 -60 L -210 -40 L -220 -20 L -210 0 L -220 20 L -210 40 L -220 60 L -210 80 L -220 100 L -210 120 L -220 140 L -210 160 L -220 180 L -210 200 L -220 220 L -210 240 L -220 260 L -210 280 L -220 300 " transform="matrix(1,0,0,1,640,389)"/>
<path style="fill:none;stroke-width:1;stroke-linecap:butt;stroke-linejoin:miter;stroke:rgb(100%,100%,100%);stroke-opacity:1;stroke-miterlimit:10;" d="M -200 -300 L -190 -280 L -200 -260 L -190 -240 L -200 -220 L -190 -200 L -200 -180 L -190 -160 L -200 -140 L -190 -120 L -200 -100 L -190 -80 L -200 -60 L -190 -40 L -200 -20 L -190 0 L -200 20 L -190 40 L -200 60 L -190 80 L -200 100 L -190 120 L -200 140 L -190 160 L -200 180 L -190 200 L -200 220 L -190 240 L -200 260 L -190 280 L -200 300 " transform="matrix(1,0,0,1,640,389)"/>
<path style="fill:none;stroke-width:1;stroke-linecap:butt;stroke-linejoin:miter;stroke:rgb(100%,100%,100%);stroke-opacity:1;stroke-miterlimit:10;" d="M -180 -300 L -170 -280 L -180 -260 L -170 -240 L -180 -220 L -170 -200 L -180 -180 L -170 -160 L -180 -140 L -170 -120 L -180 -100 L -170 -80 L -180 -60 L -170 -40 L -180 -20 L -170 0 L -180 20 L -170 40 L -180 60 L -170 80 L -180 100 L -170 120 L -180 140 L -170 160 L -180 180 L -170 200 L -180 220 L -170 240 L -180 260 L -170 280 L -180 300 " transform="matrix(1,0,0,1,640,389)"/>
<path style="fill:none;stroke-width:1;stroke-linecap:butt;stroke-linejoin:miter;stroke:rgb(100%,100%,100%);stroke-opacity:1;stroke-miterlimit:10;" d="M -160 -300 L -150 -280 L -160 -260 L -150 -240 L -160 -220 L -150 -200 L -160 -180 L -150 -160 L -160 -140 L -150 -120 L -160 -100 L -150 -80 L -160 -60 L -150 -40 L -160 -20 L -150 0 L -160 20 L -150 40 L -160 60 L -150 80 L -160 100 L -150 120 L -160 140 L -150 160 L -160 180 L -150 200 L -160 220 L -150 240 L -160 260 L -150 280 L -160 300 " transform="matrix(1,0,0,1,640,389)"/>
<path style="fill:none;stroke-width:1;stroke-linecap:butt;stroke-linejoin:miter;stroke:rgb(100%,100%,100%);stroke-opacity:1;stroke-miterlimit:10;" d="M -140 -300 L -130 -280 L -140 -260 L -130 -240 L -140 -220 L -130 -200 L -140 -180 L -130 -160 L -140 -140 L -130 -120 L -140 -100 L -130 -80 L -140 -60 L -130 -40 L -140 -20 L -130 0 L -140 20 L -130 40 L -140 60 L -130 80 L -140 100 L -130 120 L -140 140 L -130 160 L -140 180 L -130 200 L -140 220 L -130 240 L -140 260 L -130 280 L -140 300 " transform="matrix(1,0,0,1,640,389)"/>
<path style="fill:none;stroke-width:1;stroke-linecap:butt;stroke-linejoin:miter;stroke:rgb(100%,100%,100%);stroke-opacity:1;stroke-miterlimit:10;" d="M -120 -300 L -110 -280 L -120 -260 L -110 -240 L -120 -220 L -110 -200 L -120 -180 L -110 -160 L -120 -140 L -110 -120 L -120 -100 L -110 -80 L -120 -60 L -110 -40 L -120 -20 L -110 0 L -120 20 L -110 40 L -120 60 L -110 80 L -120 100 L -110 120 L -120 140 L -110 160 L -120 180 L -110 200 L -120 220 L -110 240 L -120 260 L -110 280 L -120 300 " transform="matrix(1,0,0,1,640,389)"/>
<path style="fill:none;stroke-width:1;stroke-linecap:butt;stroke-linejoin:miter;stroke:rgb(100%,100%,100%);stroke-opacity:1;stroke-miterlimit:10;" d="M -100 -300 L -90 -280 L -100 -260 L -90 -240 L -100 -220 L -90 -200 L -100 -180 L -90 -160 L -100 -140 L -90 -120 L -100 -100 L -90 -80 L -100 -60 L -90 -40 L -100 -20 L -90 0 L -100 20 L -90 40 L -100 60 L -90 80 L -100 100 L -90 120 L -100 140 L -90 160 L -100 180 L -90 200 L -100 220 L -90 240 L -100 260 L -90 280 L -100 300 " transform="matrix(1,0,0,1,640,389)"/>
<path style="fill:none;stroke-width:1;stroke-linecap:butt;stroke-linejoin:miter;stroke:rgb(100%,100%,100%);stroke-opacity:1;stroke-miterlimit:10;" d="M -80 -300 L -70 -280 L -80 -260 L -70 -240 L -80 -220 L -70 -200 L -80 -180 L -70 -160 L -80 -140 L -70 -120 L -80 -100 L -70 -80 L -80 -60 L -70 -40 L -80 -20 L -70 0 L -80 20 L -70 40 L -80 60 L -70 80 L -80 100 L -70 120 L -80 140 L -70 160 L -80 180 L -70 200 L -80 220 L -70 240 L -80 260 L -70 280 L -80 300 " transform="matrix(1,0,0,1,640,389)"/>
<path style="fill:none;stroke-width:1;stroke-linecap:butt;stroke-linejoin:miter;stroke:rgb(100%,100%,100%);stroke-opacity:1;stroke-miterlimit:10;" d="M -60 -300 L -50 -280 L -60 -260 L -50 -240 L -60 -220 L -50 -200 L -60 -180 L -50 -160 L -60 -140 L -50 -120 L -60 -100 L -50 -80 L -60 -60 L -50 -40 L -60 -20 L -50 0 L -60 20 L -50 40 L -60 60 L -50 80 L -60 100 L -50 120 L -60 140 L -50 160 L -60 180 L -50 200 L -60 220 L -50 240 L -60 260 L -50 280 L -60 300 " transform="matrix(1,0,0,1,640,389)"/>
<path style="fill:none;stroke-width:1;stroke-linecap:butt;stroke-linejoin:miter;stroke:rgb(100%,100%,100%);stroke-opacity:1;stroke-miterlimit:10;" d="M -40 -300 L -30 -280 L -40 -260 L -30 -240 L -40 -220 L -30 -200 L -40 -180 L -30 -160 L -40 -140 L -30 -120 L -40 -100 L -30 -80 L -40 -60 L -30 -40 L -40 -20 L -30 0 L -40 20 L -30 40 L -40 60 L -30 80 L -40 100 L -30 120 L -40 140 L -30 160 L -40 180 L -30 200 L -40 220 L -30 240 L -40 260 L -30 280 L -40 300 " transform="matrix(1,0,0,1,640,389)"/>
<path style="fill:none;stroke-width:1;stroke-linecap:butt;stroke-linejoin:miter;stroke:rgb(100%,100%,100%);stroke-opacity:1;stroke-miterlimit:10;" d="M -20 -300 L -10 -280 L -20 -260 L -10 -240 L -20 -220 L -10 -200 L -20 -180 L -10 -160 L -20 -140 L -10 -120 L -20 -100 L -10 -80 L -20 -60 L -10 -40 L -20 -20 L -10 0 L -20 20 L -10 40 L -20 60 L -10 80 L -20 100 L -10 120 L -20 140 L -10 160 L -20 180 L -10 200 L -20 220 L -10 240 L -20 260 L -10 280 L -20 300 " transform="matrix(1,0,0,1,640,389)"/>
<path style="fill:none;stroke-width:1;stroke-linecap:butt;stroke-linejoin:miter;stroke:rgb(100%,100%,100%);stroke-opacity:1;stroke-miterlimit:10;" d="M 0 -300 L 10 -280 L 0 -260 L 10 -240 L 0 -220 L 10 -200 L 0 -180 L 10 -160 L 0 -140 L 10 -120 L 0 -100 L 10 -80 L 0 -60 L 10 -40 L 0 -20 L 10 0 L 0 20 L 10 40 L 0 60 L 10 80 L 0 100 L 10 120 L 0 140 L 10 160 L 0 180 L 10 200 L 0 220 L 10 240 L 0 260 L 10 280 L 0 300 " transform="matrix(1,0,0,1,640,389)"/>
<path style="fill:none;stroke-width:1;stroke-linecap:butt;stroke-linejoin:miter;stroke:rgb(100%,100%,100%);stroke-opacity:1;stroke-miterlimit:10;" d="M 20 -300 L 30 -280 L 20 -260 L 30 -240 L 20 -220 L 30 -200 L 20 -180 L 30 -160 L 20 -140 L 30 -120 L 20 -100 L 30 -80 L 20 -60 L 30 -40 L 20 -20 L 30 0 L 20 20 L 30 40 L 20 60 L 30 80 L 20 100 L 30 120 L 20 140 L 30 160 L 20 180 L 30 200 L 20 220 L 30 240 L 20 260 L 30 280 L 20 300 " transform="matrix(1,0,0,1,640,389)"/>
<path style="fill:none;stroke-width:1;stroke-linecap:butt;stroke-linejoin:miter;stroke:rgb(100%,100%,100%);stroke-opacity:1;stroke-miterlimit:10;" d="M 40 -300 L 50 -280 L 40 -260 L 50 -240 L 40 -220 L 50 -200 L 40 -180 L 50 -160 L 40 -140 L 50 -120 L 40 -100 L 50 -80 L 40 -60 L 50 -40 L 40 -20 L 50 0 L 40 20 L 50 40 L 40 60 L 50 80 L 40 100 L 50 120 L 40 140 L 50 160 L 40 180 L 50 200 L 40 220 L 50 240 L 40 260 L 50 280 L 40 300 " transform="matrix(1,0,0,1,640,389)"/>
<path style="fill:none;stroke-width:1;stroke-linecap:butt;stroke-linejoin:miter;stroke:rgb(100%,100%,100%);stroke-opacity:1;stroke-miterlimit:10;" d="M 60 -300 L 70 -280 L 60 -260 L 70 -240 L 60 -220 L 70 -200 L 60 -180 L 70 -160 L 60 -140 L 70 -120 L 60 -100 L 70 -80 L 60 -60 L 70 -40 L 60 -20 L 70 0 L 60 20 L 70 40 L 60 60 L 70 80 L 60 100 L 70 120 L 60 140 L 70 160 L 60 180 L 70 200 L 60 220 L 70 240 L 60 260 L 70 280 L 60 300 " transform="matrix(1,0,0,1,640,389)"/>
<path style="fill:none;stroke-width:1;stroke-linecap:butt;stroke-linejoin:miter;stroke:rgb(100%,100%,100%);stroke-opacity:1;stroke-miterlimit:10;" d="M 80 -300 L 90 -280 L 80 -260 L 90 -240 L 80 -220 L 90 -200 L 80 -180 L 90 -160 L 80 -140 L 90 -120 L 80 -100 L 90 -80 L 80 -60 L 90 -40 L 80 -20 L 90 0 L 80 20 L 90 40 L 80 60 L 90 80 L 80 100 L 90 120 L 80 140 L 90 160 L 80 180 L 90 200 L 80 220 L 90 240 L 80 260 L 90 280 L 80 300 " transform="matrix(1,0,0,1,640,389)"/>
<path style="fill:none;stroke-width:1;stroke-linecap:butt;stroke-linejoin:miter;stroke:rgb(100%,100%,100%);stroke-opacity:1;stroke-miterlimit:10;" d="M 100 -300 L 110 -280 L 100 -260 L 110 -240 L 100 -220 L 110 -200 L 100 -180 L 110 -160 L 100 -140 L 110 -120 L 100 -100 L 110 -80 L 100 -60 L 110 -40 L 100 -20 L 110 0 L 100 20 L 110 40 L 100 60 L 110 80 L 100 100 L 110 120 L 100 140 L 110 160 L 100 180 L 110 200 L 100 220 L 110 240 L 100 260 L 110 280 L 100 300 " transform="matrix(1,0,0,1,640,389)"/>
<path style="fill:none;stroke-width:1;stroke-linecap:butt;stroke-linejoin:miter;stroke:rgb(100%,100%,100%);stroke-opacity:1;stroke-miterlimit:10;" d="M 120 -300 L 130 -280 L 120 -260 L 130 -240 L 120 -220 L 130 -200 L 120 -180 L 130 -160 L 120 -140 L 130 -120 L 120 -100 L 130 -80 L 120 -60 L 130 -40 L 120 -20 L 130 0 L 120 20 L 130 40 L 120 60 L 130 80 L 120 100 L 130 120 L 120 140 L 130 160 L 120 180 L 130 200 L 120 220 L 130 240 L 120 260 L 130 280 L 120 300 " transform="matrix(1,0,0,1,640,389)"/>
<path style="fill:none;stroke-width:1;stroke-linecap:butt;stroke-linejoin:miter;stroke:rgb(100%,100%,100%);stroke-opacity:1;stroke-miterlimit:10;" d="M 140 -300 L 150 -280 L 140 -260 L 150 -240 L 140 -220 L 150 -200 L 140 -180 L 150 -160 L 140 -140 L 150 -120 L 140 -100 L 150 -80 L 140 -60 L 150 -40 L 140 -20 L 150 0 L 140 20 L 150 40 L 140 60 L 150 80 L 140 100 L 150 120 L 140 140 L 150 160 L 140 180 L 150 200 L 140 220 L 150 240 L 140 260 L 150 280 L 140 300 " transform="matrix(1,0,0,1,640,389)"/>
<path style="fill:none;stroke-width:1;stroke-linecap:butt;stroke-linejoin:miter;stroke:rgb(100%,100%,100%);stroke-opacity:1;stroke-miterlimit:10;" d="M 160 -300 L 170 -280 L 160 -260 L 170 -240 L 160 -220 L 170 -200 L 160 -180 L 170 -160 L 160 -140 L 170 -120 L 160 -100 L 170 -80 L 160 -60 L 170 -40 L 160 -20 L 170 0 L 160 20 L 170 40 L 160 60 L 170 80 L 160 100 L 170 120 L 160 140 L 170 160 L 160 180 L 170 200 L 160 220 L 170 240 L 160 260 L 170 280 L 160 300 " transform="matrix(1,0,0,1,640,389)"/>
<path style="fill:none;stroke-width:1;stroke-linecap:butt;stroke-linejoin:miter;stroke:rgb(100%,100%,100%);stroke-opacity:1;stroke-miterlimit:10;" d="M 180 -300 L 190 -280 L 180 -260 L 190 -240 L 180 -220 L 190 -200 L 180 -180 L 190 -160 L 180 -140 L 190 -120 L 180 -100 L 190 -80 L 180 -60 L 190 -40 L 180 -20 L 190 0 L 180 20 L 190 40 L 180 60 L 190 80 L 180 100 L 190 120 L 180 140 L 190 160 L 180 180 L 190 200 L 180 220 L 190 240 L 180 260 L 190 280 L 180 300 " transform="matrix(1,0,0,1,640,389)"/>
<path style="fill:none;stroke-width:1;stroke-linecap:butt;stroke-linejoin:miter;stroke:rgb(100%,100%,100%);stroke-opacity:1;stroke-miterlimit:10;" d="M 200 -300 L 210 -280 L 200 -260 L 210 -240 L 200 -220 L 210 -200 L 200 -180 L 210 -160 L 200 -140 L 210 -120 L 200 -100 L 210 -80 L 200 -60 L 210 -40 L 200 -20 L 210 0 L 200 20 L 210 40 L 200 60 L 210 80 L 200 100 L 210 120 L 200 140 L 210 160 L 200 180 L 210 200 L 200 220 L 210 240 L 200 260 L 210 280 L 200 300 " transform="matrix(1,0,0,1,640,389)"/>
<path style="fill:none;stroke-width:1;stroke-linecap:butt;stroke-linejoin:miter;stroke:rgb(100%,100%,100%);stroke-opacity:1;stroke-miterlimit:10;" d="M 220 -300 L 230 -280 L 220 -260 L 230 -240 L 220 -220 L 230 -200 L 220 -180 L 230 -160 L 220 -140 L 230 -120 L 220 -100 L 230 -80 L 220 -60 L 230 -40 L 220 -20 L 230 0 L 220 20 L 230 40 L 220 60 L 230 80 L 220 100 L 230 120 L 220 140 L 230 160 L 220 180 L 230 200 L 220 220 L 230 240 L 220 260 L 230 280 L 220 300 " transform="matrix(1,0,0,1,640,389)"/>
<path style="fill:none;stroke-width:1;stroke-linecap:butt;stroke-linejoin:miter;stroke:rgb(100%,100%,100%);stroke-opacity:1;stroke-miterlimit:10;" d="M 240 -300 L 250 -280 L 240 -260 L 250 -240 L 240 -220 L 250 -200 L 240 -180 L 250 -160 L 240 -140 L 250 -120 L 240 -100 L 250 -80 L 240 -60 L 250 -40 L 240 -20 L 250 0 L 240 20 L 250 40 L 240 60 L 250 80 L 240 100 L 250 120 L 240 140 L 250 160 L 240 180 L 250 200 L 240 220 L 250 240 L 240 260 L 250 280 L 240 300 " transform="matrix(1,0,0,1,640,389)"/>
<path style="fill:none;stroke-width:1;stroke-linecap:butt;stroke-linejoin:miter;stroke:rgb(100%,100%,100%);stroke-opacity:1;stroke-miterlimit:10;" d="M 260 -300 L 270 -280 L 260 -260 L 270 -240 L 260 -220 L 270 -200 L 260 -180 L 270 -160 L 260 -140 L 270 -120 L 260 -100 L 270 -80 L 260 -60 L 270 -40 L 260 -20 L 270 0 L 260 20 L 270 40 L 260 60 L 270 80 L 260 100 L 270 120 L 260 140 L 270 160 L 260 180 L 270 200 L 260 220 L 270 240 L 260 260 L 270 280 L 260 300 " transform="matrix(1,0,0,1,640,389)"/>
<path style="fill:none;stroke-width:1;stroke-linecap:butt;stroke-linejoin:miter;stroke:rgb(100%,100%,100%);stroke-opacity:1;stroke-miterlimit:10;" d="M 280 -300 L 290 -280 L 280 -260 L 290 -240 L 280 -220 L 290 -200 L 280 -180 L 290 -160 L 280 -140 L 290 -120 L 280 -100 L 290 -80 L 280 -60 L 290 -40 L 280 -20 L 290 0 L 280 20 L 290 40 L 280 60 L 290 80 L 280 100 L 290 120 L 280 140 L 290 160 L 280 180 L 290 200 L 280 220 L 290 240 L 280 260 L 290 280 L 280 300 " transform="matrix(1,0,0,1,640,389)"/>
<path style="fill:none;stroke-width:1;stroke-linecap:butt;stroke-linejoin:miter;stroke:rgb(100%,100%,100%);stroke-opacity:1;stroke-miterlimit:10;" d="M 300 -300 L 310 -280 L 300 -260 L 310 -240 L 300 -220 L 310 -200 L 300 -180 L 310 -160 L 300 -140 L 310 -120 L 300 -100 L 310 -80 L 300 -60 L 310 -40 L 300 -20 L 310 0 L 300 20 L 310 40 L 300 60 L 310 80 L 300 100 L 310 120 L 300 140 L 310 160 L 300 180 L 310 200 L 300 220 L 310 240 L 300 260 L 310 280 L 300 300 " transform="matrix(1,0,0,1,640,389)"/>
</g>
</svg>
