<?xml version="1.0" encoding="UTF-8"?>
<svg xmlns="http://www.w3.org/2000/svg" xmlns:xlink="http://www.w3.org/1999/xlink" width="1280pt" height="778pt" viewBox="0 0 1280 778" version="1.1">
<g id="surface1">
<rect x="0" y="0" width="1280" height="778" style="fill:rgb(78.431373%,78.431373%,78.431373%);fill-opacity:1;stroke:none;"/>
<rect x="0" y="0" width="1280" height="778" style="fill:rgb(0%,0%,0%);fill-opacity:1;stroke:none;"/>
<path style=" stroke:none;fill-rule:nonzero;fill:rgb(100%,100%,100%);fill-opacity:1;" d="M 443 189 C 443 193 437 193 437 189 C 437 185 443 185 443 189 Z M 443 189 "/>
<path style=" stroke:none;fill-rule:nonzero;fill:rgb(100%,100%,100%);fill-opacity:1;" d="M 463 189 C 463 193 457 193 457 189 C 457 185 463 185 463 189 Z M 463 189 "/>
<path style=" stroke:none;fill-rule:nonzero;fill:rgb(100%,100%,100%);fill-opacity:1;" d="M 483 189 C 483 193 477 193 477 189 C 477 185 483 185 483 189 Z M 483 189 "/>
<path style=" stroke:none;fill-rule:nonzero;fill:rgb(100%,100%,100%);fill-opacity:1;" d="M 503 189 C 503 193 497 193 497 189 C 497 185 503 185 503 189 Z M 503 189 "/>
<path style=" stroke:none;fill-rule:nonzero;fill:rgb(100%,100%,100%);fill-opacity:1;" d="M 523 189 C 523 193 517 193 517 189 C 517 185 523 185 523 189 Z M 523 189 "/>
<path style=" stroke:none;fill-rule:nonzero;fill:rgb(100%,100%,100%);fill-opacity:1;" d="M 543 189 C 543 193 537 193 537 189 C 537 185 543 185 543 189 Z M 543 189 "/>
<path style=" stroke:none;fill-rule:nonzero;fill:rgb(100%,100%,100%);fill-opacity:1;" d="M 563 189 C 563 193 557 193 557 189 C 557 185 563 185 563 189 Z M 563 189 "/>
<path style=" stroke:none;fill-rule:nonzero;fill:rgb(100%,100%,100%);fill-opacity:1;" d="M 583 189 C 583 193 577 193 577 189 C 577 185 583 185 583 189 Z M 583 189 "/>
<path style=" stroke:none;fill-rule:nonzero;fill:rgb(100%,100%,100%);fill-opacity:1;" d="M 603 189 C 603 193 597 193 597 189 C 597 185 603 185 603 189 Z M 603 189 "/>
<path style=" stroke:none;fill-rule:nonzero;fill:rgb(100%,100%,100%);fill-opacity:1;" d="M 623 189 C 623 193 617 193 617 189 C 617 185 623 185 623 189 Z M 623 189 "/>
<path style=" stroke:none;fill-rule:nonzero;fill:rgb(100%,100%,100%);fill-opacity:1;" d="M 643 189 C 643 193 637 193 637 189 C 637 185 643 185 643 189 Z M 643 189 "/>
<path style=" stroke:none;fill-rule:nonzero;fill:rgb(100%,100%,100%);fill-opacity:1;" d="M 663 189 C 663 193 657 193 657 189 C 657 185 663 185 663 189 Z M 663 189 "/>
<path style=" stroke:none;fill-rule:nonzero;fill:rgb(100%,100%,100%);fill-opacity:1;" d="M 683 189 C 683 193 677 193 677 189 C 677 185 683 185 683 189 Z M 683 189 "/>
<path style=" stroke:none;fill-rule:nonzero;fill:rgb(100%,100%,100%);fill-opacity:1;" d="M 703 189 C 703 193 697 193 697 189 C 697 185 703 185 703 189 Z M 703 189 "/>
<path style=" stroke:none;fill-rule:nonzero;fill:rgb(100%,100%,100%);fill-opacity:1;" d="M 723 189 C 723 193 717 193 717 189 C 717 185 723 185 723 189 Z M 723 189 "/>
<path style=" stroke:none;fill-rule:nonzero;fill:rgb(100%,100%,100%);fill-opacity:1;" d="M 743 189 C 743 193 737 193 737 189 C 737 185 743 185 743 189 Z M 743 189 "/>
<path style=" stroke:none;fill-rule:nonzero;fill:rgb(100%,100%,100%);fill-opacity:1;" d="M 763 189 C 763 193 757 193 757 189 C 757 185 763 185 763 189 Z M 763 189 "/>
<path style=" stroke:none;fill-rule:nonzero;fill:rgb(100%,100%,100%);fill-opacity:1;" d="M 783 189 C 783 193 777 193 777 189 C 777 185 783 185 783 189 Z M 783 189 "/>
<path style=" stroke:none;fill-rule:nonzero;fill:rgb(100%,100%,100%);fill-opacity:1;" d="M 803 189 C 803 193 797 193 797 189 C 797 185 803 185 803 189 Z M 803 189 "/>
<path style=" stroke:none;fill-rule:nonzero;fill:rgb(100%,100%,100%);fill-opacity:1;" d="M 823 189 C 823 193 817 193 817 189 C 817 185 823 185 823 189 Z M 823 189 "/>
<path style=" stroke:none;fill-rule:nonzero;fill:rgb(100%,100%,100%);fill-opacity:1;" d="M 843 189 C 843 193 837 193 837 189 C 837 185 843 185 843 189 Z M 843 189 "/>
<path style=" stroke:none;fill-rule:nonzero;fill:rgb(100%,100%,100%);fill-opacity:1;" d="M 443 209 C 443 213 437 213 437 209 C 437 205 443 205 443 209 Z M 443 209 "/>
<path style=" stroke:none;fill-rule:nonzero;fill:rgb(100%,100%,100%);fill-opacity:1;" d="M 463 209 C 463 213 457 213 457 209 C 457 205 463 205 463 209 Z M 463 209 "/>
<path style=" stroke:none;fill-rule:nonzero;fill:rgb(100%,100%,100%);fill-opacity:1;" d="M 483 209 C 483 213 477 213 477 209 C 477 205 483 205 483 209 Z M 483 209 "/>
<path style=" stroke:none;fill-rule:nonzero;fill:rgb(100%,100%,100%);fill-opacity:1;" d="M 503 209 C 503 213 497 213 497 209 C 497 205 503 205 503 209 Z M 503 209 "/>
<path style=" stroke:none;fill-rule:nonzero;fill:rgb(100%,100%,100%);fill-opacity:1;" d="M 523 209 C 523 213 517 213 517 209 C 517 205 523 205 523 209 Z M 523 209 "/>
<path style=" stroke:none;fill-rule:nonzero;fill:rgb(100%,100%,100%);fill-opacity:1;" d="M 543 209 C 543 213 537 213 537 209 C 537 205 543 205 543 209 Z M 543 209 "/>
<path style=" stroke:none;fill-rule:nonzero;fill:rgb(100%,100%,100%);fill-opacity:1;" d="M 563 209 C 563 213 557 213 557 209 C 557 205 563 205 563 209 Z M 563 209 "/>
<path style=" stroke:none;fill-rule:nonzero;fill:rgb(100%,100%,100%);fill-opacity:1;" d="M 583 209 C 583 213 577 213 577 209 C 577 205 583 205 583 209 Z M 583 209 "/>
<path style=" stroke:none;fill-rule:nonzero;fill:rgb(100%,100%,100%);fill-opacity:1;" d="M 603 209 C 603 213 597 213 597 209 C 597 205 603 205 603 209 Z M 603 209 "/>
<path style=" stroke:none;fill-rule:nonzero;fill:rgb(100%,100%,100%);fill-opacity:1;" d="M 623 209 C 623 213 617 213 617 209 C 617 205 623 205 623 209 Z M 623 209 "/>
<path style=" stroke:none;fill-rule:nonzero;fill:rgb(100%,100%,100%);fill-opacity:1;" d="M 643 209 C 643 213 637 213 637 209 C 637 205 643 205 643 209 Z M 643 209 "/>
<path style=" stroke:none;fill-rule:nonzero;fill:rgb(100%,100%,100%);fill-opacity:1;" d="M 663 209 C 663 213 657 213 657 209 C 657 205 663 205 663 209 Z M 663 209 "/>
<path style=" stroke:none;fill-rule:nonzero;fill:rgb(100%,100%,100%);fill-opacity:1;" d="M 683 209 C 683 213 677 213 677 209 C 677 205 683 205 683 209 Z M 683 209 "/>
<path style=" stroke:none;fill-rule:nonzero;fill:rgb(100%,100%,100%);fill-opacity:1;" d="M 703 209 C 703 213 697 213 697 209 C 697 205 703 205 703 209 Z M 703 209 "/>
<path style=" stroke:none;fill-rule:nonzero;fill:rgb(100%,100%,100%);fill-opacity:1;" d="M 723 209 C 723 213 717 213 717 209 C 717 205 723 205 723 209 Z M 723 209 "/>
<path style=" stroke:none;fill-rule:nonzero;fill:rgb(100%,100%,100%);fill-opacity:1;" d="M 743 209 C 743 213 737 213 737 209 C 737 205 743 205 743 209 Z M 743 209 "/>
<path style=" stroke:none;fill-rule:nonzero;fill:rgb(100%,100%,100%);fill-opacity:1;" d="M 763 209 C 763 213 757 213 757 209 C 757 205 763 205 763 209 Z M 763 209 "/>
<path style=" stroke:none;fill-rule:nonzero;fill:rgb(100%,100%,100%);fill-opacity:1;" d="M 783 209 C 783 213 777 213 777 209 C 777 205 783 205 783 209 Z M 783 209 "/>
<path style=" stroke:none;fill-rule:nonzero;fill:rgb(100%,100%,100%);fill-opacity:1;" d="M 803 209 C 803 213 797 213 797 209 C 797 205 803 205 803 209 Z M 803 209 "/>
<path style=" stroke:none;fill-rule:nonzero;fill:rgb(100%,100%,100%);fill-opacity:1;" d="M 823 209 C 823 213 817 213 817 209 C 817 205 823 205 823 209 Z M 823 209 "/>
<path style=" stroke:none;fill-rule:nonzero;fill:rgb(100%,100%,100%);fill-opacity:1;" d="M 843 209 C 843 213 837 213 837 209 C 837 205 843 205 843 209 Z M 843 209 "/>
<path style=" stroke:none;fill-rule:nonzero;fill:rgb(100%,100%,100%);fill-opacity:1;" d="M 443 229 C 443 233 437 233 437 229 C 437 225 443 225 443 229 Z M 443 229 "/>
<path style=" stroke:none;fill-rule:nonzero;fill:rgb(100%,100%,100%);fill-opacity:1;" d="M 463 229 C 463 233 457 233 457 229 C 457 225 463 225 463 229 Z M 463 229 "/>
<path style=" stroke:none;fill-rule:nonzero;fill:rgb(100%,100%,100%);fill-opacity:1;" d="M 483 229 C 483 233 477 233 477 229 C 477 225 483 225 483 229 Z M 483 229 "/>
<path style=" stroke:none;fill-rule:nonzero;fill:rgb(100%,100%,100%);fill-opacity:1;" d="M 503 229 C 503 233 497 233 497 229 C 497 225 503 225 503 229 Z M 503 229 "/>
<path style=" stroke:none;fill-rule:nonzero;fill:rgb(100%,100%,100%);fill-opacity:1;" d="M 523 229 C 523 233 517 233 517 229 C 517 225 523 225 523 229 Z M 523 229 "/>
<path style=" stroke:none;fill-rule:nonzero;fill:rgb(100%,100%,100%);fill-opacity:1;" d="M 543 229 C 543 233 537 233 537 229 C 537 225 543 225 543 229 Z M 543 229 "/>
<path style=" stroke:none;fill-rule:nonzero;fill:rgb(100%,100%,100%);fill-opacity:1;" d="M 563 229 C 563 233 557 233 557 229 C 557 225 563 225 563 229 Z M 563 229 "/>
<path style=" stroke:none;fill-rule:nonzero;fill:rgb(100%,100%,100%);fill-opacity:1;" d="M 583 229 C 583 233 577 233 577 229 C 577 225 583 225 583 229 Z M 583 229 "/>
<path style=" stroke:none;fill-rule:nonzero;fill:rgb(100%,100%,100%);fill-opacity:1;" d="M 603 229 C 603 233 597 233 597 229 C 597 225 603 225 603 229 Z M 603 229 "/>
<path style=" stroke:none;fill-rule:nonzero;fill:rgb(100%,100%,100%);fill-opacity:1;" d="M 623 229 C 623 233 617 233 617 229 C 617 225 623 225 623 229 Z M 623 229 "/>
<path style=" stroke:none;fill-rule:nonzero;fill:rgb(100%,100%,100%);fill-opacity:1;" d="M 643 229 C 643 233 637 233 637 229 C 637 225 643 225 643 229 Z M 643 229 "/>
<path style=" stroke:none;fill-rule:nonzero;fill:rgb(100%,100%,100%);fill-opacity:1;" d="M 663 229 C 663 233 657 233 657 229 C 657 225 663 225 663 229 Z M 663 229 "/>
<path style=" stroke:none;fill-rule:nonzero;fill:rgb(100%,100%,100%);fill-opacity:1;" d="M 683 229 C 683 233 677 233 677 229 C 677 225 683 225 683 229 Z M 683 229 "/>
<path style=" stroke:none;fill-rule:nonzero;fill:rgb(100%,100%,100%);fill-opacity:1;" d="M 703 229 C 703 233 697 233 697 229 C 697 225 703 225 703 229 Z M 703 229 "/>
<path style=" stroke:none;fill-rule:nonzero;fill:rgb(100%,100%,100%);fill-opacity:1;" d="M 723 229 C 723 233 717 233 717 229 C 717 225 723 225 723 229 Z M 723 229 "/>
<path style=" stroke:none;fill-rule:nonzero;fill:rgb(100%,100%,100%);fill-opacity:1;" d="M 743 229 C 743 233 737 233 737 229 C 737 225 743 225 743 229 Z M 743 229 "/>
<path style=" stroke:none;fill-rule:nonzero;fill:rgb(100%,100%,100%);fill-opacity:1;" d="M 763 229 C 763 233 757 233 757 229 C 757 225 763 225 763 229 Z M 763 229 "/>
<path style=" stroke:none;fill-rule:nonzero;fill:rgb(100%,100%,100%);fill-opacity:1;" d="M 783 229 C 783 233 777 233 777 229 C 777 225 783 225 783 229 Z M 783 229 "/>
<path style=" stroke:none;fill-rule:nonzero;fill:rgb(100%,100%,100%);fill-opacity:1;" d="M 803 229 C 803 233 797 233 797 229 C 797 225 803 225 803 229 Z M 803 229 "/>
<path style=" stroke:none;fill-rule:nonzero;fill:rgb(100%,100%,100%);fill-opacity:1;" d="M 823 229 C 823 233 817 233 817 229 C 817 225 823 225 823 229 Z M 823 229 "/>
<path style=" stroke:none;fill-rule:nonzero;fill:rgb(100%,100%,100%);fill-opacity:1;" d="M 843 229 C 843 233 837 233 837 229 C 837 225 843 225 843 229 Z M 843 229 "/>
<path style=" stroke:none;fill-rule:nonzero;fill:rgb(100%,100%,100%);fill-opacity:1;" d="M 443 249 C 443 253 437 253 437 249 C 437 245 443 245 443 249 Z M 443 249 "/>
<path style=" stroke:none;fill-rule:nonzero;fill:rgb(100%,100%,100%);fill-opacity:1;" d="M 463 249 C 463 253 457 253 457 249 C 457 245 463 245 463 249 Z M 463 249 "/>
<path style=" stroke:none;fill-rule:nonzero;fill:rgb(100%,100%,100%);fill-opacity:1;" d="M 483 249 C 483 253 477 253 477 249 C 477 245 483 245 483 249 Z M 483 249 "/>
<path style=" stroke:none;fill-rule:nonzero;fill:rgb(100%,100%,100%);fill-opacity:1;" d="M 503 249 C 503 253 497 253 497 249 C 497 245 503 245 503 249 Z M 503 249 "/>
<path style=" stroke:none;fill-rule:nonzero;fill:rgb(100%,100%,100%);fill-opacity:1;" d="M 523 249 C 523 253 517 253 517 249 C 517 245 523 245 523 249 Z M 523 249 "/>
<path style=" stroke:none;fill-rule:nonzero;fill:rgb(100%,100%,100%);fill-opacity:1;" d="M 543 249 C 543 253 537 253 537 249 C 537 245 543 245 543 249 Z M 543 249 "/>
<path style=" stroke:none;fill-rule:nonzero;fill:rgb(100%,100%,100%);fill-opacity:1;" d="M 563 249 C 563 253 557 253 557 249 C 557 245 563 245 563 249 Z M 563 249 "/>
<path style=" stroke:none;fill-rule:nonzero;fill:rgb(100%,100%,100%);fill-opacity:1;" d="M 583 249 C 583 253 577 253 577 249 C 577 245 583 245 583 249 Z M 583 249 "/>
<path style=" stroke:none;fill-rule:nonzero;fill:rgb(100%,100%,100%);fill-opacity:1;" d="M 603 249 C 603 253 597 253 597 249 C 597 245 603 245 603 249 Z M 603 249 "/>
<path style=" stroke:none;fill-rule:nonzero;fill:rgb(100%,100%,100%);fill-opacity:1;" d="M 623 249 C 623 253 617 253 617 249 C 617 245 623 245 623 249 Z M 623 249 "/>
<path style=" stroke:none;fill-rule:nonzero;fill:rgb(100%,100%,100%);fill-opacity:1;" d="M 643 249 C 643 253 637 253 637 249 C 637 245 643 245 643 249 Z M 643 249 "/>
<path style=" stroke:none;fill-rule:nonzero;fill:rgb(100%,100%,100%);fill-opacity:1;" d="M 663 249 C 663 253 657 253 657 249 C 657 245 663 245 663 249 Z M 663 249 "/>
<path style=" stroke:none;fill-rule:nonzero;fill:rgb(100%,100%,100%);fill-opacity:1;" d="M 683 249 C 683 253 677 253 677 249 C 677 245 683 245 683 249 Z M 683 249 "/>
<path style=" stroke:none;fill-rule:nonzero;fill:rgb(100%,100%,100%);fill-opacity:1;" d="M 703 249 C 703 253 697 253 697 249 C 697 245 703 245 703 249 Z M 703 249 "/>
<path style=" stroke:none;fill-rule:nonzero;fill:rgb(100%,100%,100%);fill-opacity:1;" d="M 723 249 C 723 253 717 253 717 249 C 717 245 723 245 723 249 Z M 723 249 "/>
<path style=" stroke:none;fill-rule:nonzero;fill:rgb(100%,100%,100%);fill-opacity:1;" d="M 743 249 C 743 253 737 253 737 249 C 737 245 743 245 743 249 Z M 743 249 "/>
<path style=" stroke:none;fill-rule:nonzero;fill:rgb(100%,100%,100%);fill-opacity:1;" d="M 763 249 C 763 253 757 253 757 249 C 757 245 763 245 763 249 Z M 763 249 "/>
<path style=" stroke:none;fill-rule:nonzero;fill:rgb(100%,100%,100%);fill-opacity:1;" d="M 783 249 C 783 253 777 253 777 249 C 777 245 783 245 783 249 Z M 783 249 "/>
<path style=" stroke:none;fill-rule:nonzero;fill:rgb(100%,100%,100%);fill-opacity:1;" d="M 803 249 C 803 253 797 253 797 249 C 797 245 803 245 803 249 Z M 803 249 "/>
<path style=" stroke:none;fill-rule:nonzero;fill:rgb(100%,100%,100%);fill-opacity:1;" d="M 823 249 C 823 253 817 253 817 249 C 817 245 823 245 823 249 Z M 823 249 "/>
<path style=" stroke:none;fill-rule:nonzero;fill:rgb(100%,100%,100%);fill-opacity:1;" d="M 843 249 C 843 253 837 253 837 249 C 837 245 843 245 843 249 Z M 843 249 "/>
<path style=" stroke:none;fill-rule:nonzero;fill:rgb(100%,100%,100%);fill-opacity:1;" d="M 443 269 C 443 273 437 273 437 269 C 437 265 443 265 443 269 Z M 443 269 "/>
<path style=" stroke:none;fill-rule:nonzero;fill:rgb(100%,100%,100%);fill-opacity:1;" d="M 463 269 C 463 273 457 273 457 269 C 457 265 463 265 463 269 Z M 463 269 "/>
<path style=" stroke:none;fill-rule:nonzero;fill:rgb(100%,100%,100%);fill-opacity:1;" d="M 483 269 C 483 273 477 273 477 269 C 477 265 483 265 483 269 Z M 483 269 "/>
<path style=" stroke:none;fill-rule:nonzero;fill:rgb(100%,100%,100%);fill-opacity:1;" d="M 503 269 C 503 273 497 273 497 269 C 497 265 503 265 503 269 Z M 503 269 "/>
<path style=" stroke:none;fill-rule:nonzero;fill:rgb(100%,100%,100%);fill-opacity:1;" d="M 523 269 C 523 273 517 273 517 269 C 517 265 523 265 523 269 Z M 523 269 "/>
<path style=" stroke:none;fill-rule:nonzero;fill:rgb(100%,100%,100%);fill-opacity:1;" d="M 543 269 C 543 273 537 273 537 269 C 537 265 543 265 543 269 Z M 543 269 "/>
<path style=" stroke:none;fill-rule:nonzero;fill:rgb(100%,100%,100%);fill-opacity:1;" d="M 563 269 C 563 273 557 273 557 269 C 557 265 563 265 563 269 Z M 563 269 "/>
<path style=" stroke:none;fill-rule:nonzero;fill:rgb(100%,100%,100%);fill-opacity:1;" d="M 583 269 C 583 273 577 273 577 269 C 577 265 583 265 583 269 Z M 583 269 "/>
<path style=" stroke:none;fill-rule:nonzero;fill:rgb(100%,100%,100%);fill-opacity:1;" d="M 603 269 C 603 273 597 273 597 269 C 597 265 603 265 603 269 Z M 603 269 "/>
<path style=" stroke:none;fill-rule:nonzero;fill:rgb(100%,100%,100%);fill-opacity:1;" d="M 623 269 C 623 273 617 273 617 269 C 617 265 623 265 623 269 Z M 623 269 "/>
<path style=" stroke:none;fill-rule:nonzero;fill:rgb(100%,100%,100%);fill-opacity:1;" d="M 643 269 C 643 273 637 273 637 269 C 637 265 643 265 643 269 Z M 643 269 "/>
<path style=" stroke:none;fill-rule:nonzero;fill:rgb(100%,100%,100%);fill-opacity:1;" d="M 663 269 C 663 273 657 273 657 269 C 657 265 663 265 663 269 Z M 663 269 "/>
<path style=" stroke:none;fill-rule:nonzero;fill:rgb(100%,100%,100%);fill-opacity:1;" d="M 683 269 C 683 273 677 273 677 269 C 677 265 683 265 683 269 Z M 683 269 "/>
<path style=" stroke:none;fill-rule:nonzero;fill:rgb(100%,100%,100%);fill-opacity:1;" d="M 703 269 C 703 273 697 273 697 269 C 697 265 703 265 703 269 Z M 703 269 "/>
<path style=" stroke:none;fill-rule:nonzero;fill:rgb(100%,100%,100%);fill-opacity:1;" d="M 723 269 C 723 273 717 273 717 269 C 717 265 723 265 723 269 Z M 723 269 "/>
<path style=" stroke:none;fill-rule:nonzero;fill:rgb(100%,100%,100%);fill-opacity:1;" d="M 743 269 C 743 273 737 273 737 269 C 737 265 743 265 743 269 Z M 743 269 "/>
<path style=" stroke:none;fill-rule:nonzero;fill:rgb(100%,100%,100%);fill-opacity:1;" d="M 763 269 C 763 273 757 273 757 269 C 757 265 763 265 763 269 Z M 763 269 "/>
<path style=" stroke:none;fill-rule:nonzero;fill:rgb(100%,100%,100%);fill-opacity:1;" d="M 783 269 C 783 273 777 273 777 269 C 777 265 783 265 783 269 Z M 783 269 "/>
<path style=" stroke:none;fill-rule:nonzero;fill:rgb(100%,100%,100%);fill-opacity:1;" d="M 803 269 C 803 273 797 273 797 269 C 797 265 803 265 803 269 Z M 803 269 "/>
<path style=" stroke:none;fill-rule:nonzero;fill:rgb(100%,100%,100%);fill-opacity:1;" d="M 823 269 C 823 273 817 273 817 269 C 817 265 823 265 823 269 Z M 823 269 "/>
<path style=" stroke:none;fill-rule:nonzero;fill:rgb(100%,100%,100%);fill-opacity:1;" d="M 843 269 C 843 273 837 273 837 269 C 837 265 843 265 843 269 Z M 843 269 "/>
<path style=" stroke:none;fill-rule:nonzero;fill:rgb(100%,100%,100%);fill-opacity:1;" d="M 443 289 C 443 293 437 293 437 289 C 437 285 443 285 443 289 Z M 443 289 "/>
<path style=" stroke:none;fill-rule:nonzero;fill:rgb(100%,100%,100%);fill-opacity:1;" d="M 463 289 C 463 293 457 293 457 289 C 457 285 463 285 463 289 Z M 463 289 "/>
<path style=" stroke:none;fill-rule:nonzero;fill:rgb(100%,100%,100%);fill-opacity:1;" d="M 483 289 C 483 293 477 293 477 289 C 477 285 483 285 483 289 Z M 483 289 "/>
<path style=" stroke:none;fill-rule:nonzero;fill:rgb(100%,100%,100%);fill-opacity:1;" d="M 503 289 C 503 293 497 293 497 289 C 497 285 503 285 503 289 Z M 503 289 "/>
<path style=" stroke:none;fill-rule:nonzero;fill:rgb(100%,100%,100%);fill-opacity:1;" d="M 523 289 C 523 293 517 293 517 289 C 517 285 523 285 523 289 Z M 523 289 "/>
<path style=" stroke:none;fill-rule:nonzero;fill:rgb(100%,100%,100%);fill-opacity:1;" d="M 543 289 C 543 293 537 293 537 289 C 537 285 543 285 543 289 Z M 543 289 "/>
<path style=" stroke:none;fill-rule:nonzero;fill:rgb(100%,100%,100%);fill-opacity:1;" d="M 563 289 C 563 293 557 293 557 289 C 557 285 563 285 563 289 Z M 563 289 "/>
<path style=" stroke:none;fill-rule:nonzero;fill:rgb(100%,100%,100%);fill-opacity:1;" d="M 583 289 C 583 293 577 293 577 289 C 577 285 583 285 583 289 Z M 583 289 "/>
<path style=" stroke:none;fill-rule:nonzero;fill:rgb(100%,100%,100%);fill-opacity:1;" d="M 603 289 C 603 293 597 293 597 289 C 597 285 603 285 603 289 Z M 603 289 "/>
<path style=" stroke:none;fill-rule:nonzero;fill:rgb(100%,100%,100%);fill-opacity:1;" d="M 623 289 C 623 293 617 293 617 289 C 617 285 623 285 623 289 Z M 623 289 "/>
<path style=" stroke:none;fill-rule:nonzero;fill:rgb(100%,100%,100%);fill-opacity:1;" d="M 643 289 C 643 293 637 293 637 289 C 637 285 643 285 643 289 Z M 643 289 "/>
<path style=" stroke:none;fill-rule:nonzero;fill:rgb(100%,100%,100%);fill-opacity:1;" d="M 663 289 C 663 293 657 293 657 289 C 657 285 663 285 663 289 Z M 663 289 "/>
<path style=" stroke:none;fill-rule:nonzero;fill:rgb(100%,100%,100%);fill-opacity:1;" d="M 683 289 C 683 293 677 293 677 289 C 677 285 683 285 683 289 Z M 683 289 "/>
<path style=" stroke:none;fill-rule:nonzero;fill:rgb(100%,100%,100%);fill-opacity:1;" d="M 703 289 C 703 293 697 293 697 289 C 697 285 703 285 703 289 Z M 703 289 "/>
<path style=" stroke:none;fill-rule:nonzero;fill:rgb(100%,100%,100%);fill-opacity:1;" d="M 723 289 C 723 293 717 293 717 289 C 717 285 723 285 723 289 Z M 723 289 "/>
<path style=" stroke:none;fill-rule:nonzero;fill:rgb(100%,100%,100%);fill-opacity:1;" d="M 743 289 C 743 293 737 293 737 289 C 737 285 743 285 743 289 Z M 743 289 "/>
<path style=" stroke:none;fill-rule:nonzero;fill:rgb(100%,100%,100%);fill-opacity:1;" d="M 763 289 C 763 293 757 293 757 289 C 757 285 763 285 763 289 Z M 763 289 "/>
<path style=" stroke:none;fill-rule:nonzero;fill:rgb(100%,100%,100%);fill-opacity:1;" d="M 783 289 C 783 293 777 293 777 289 C 777 285 783 285 783 289 Z M 783 289 "/>
<path style=" stroke:none;fill-rule:nonzero;fill:rgb(100%,100%,100%);fill-opacity:1;" d="M 803 289 C 803 293 797 293 797 289 C 797 285 803 285 803 289 Z M 803 289 "/>
<path style=" stroke:none;fill-rule:nonzero;fill:rgb(100%,100%,100%);fill-opacity:1;" d="M 823 289 C 823 293 817 293 817 289 C 817 285 823 285 823 289 Z M 823 289 "/>
<path style=" stroke:none;fill-rule:nonzero;fill:rgb(100%,100%,100%);fill-opacity:1;" d="M 843 289 C 843 293 837 293 837 289 C 837 285 843 285 843 289 Z M 843 289 "/>
<path style=" stroke:none;fill-rule:nonzero;fill:rgb(100%,100%,100%);fill-opacity:1;" d="M 443 309 C 443 313 437 313 437 309 C 437 305 443 305 443 309 Z M 443 309 "/>
<path style=" stroke:none;fill-rule:nonzero;fill:rgb(100%,100%,100%);fill-opacity:1;" d="M 463 309 C 463 313 457 313 457 309 C 457 305 463 305 463 309 Z M 463 309 "/>
<path style=" stroke:none;fill-rule:nonzero;fill:rgb(100%,100%,100%);fill-opacity:1;" d="M 483 309 C 483 313 477 313 477 309 C 477 305 483 305 483 309 Z M 483 309 "/>
<path style=" stroke:none;fill-rule:nonzero;fill:rgb(100%,100%,100%);fill-opacity:1;" d="M 503 309 C 503 313 497 313 497 309 C 497 305 503 305 503 309 Z M 503 309 "/>
<path style=" stroke:none;fill-rule:nonzero;fill:rgb(100%,100%,100%);fill-opacity:1;" d="M 523 309 C 523 313 517 313 517 309 C 517 305 523 305 523 309 Z M 523 309 "/>
<path style=" stroke:none;fill-rule:nonzero;fill:rgb(100%,100%,100%);fill-opacity:1;" d="M 543 309 C 543 313 537 313 537 309 C 537 305 543 305 543 309 Z M 543 309 "/>
<path style=" stroke:none;fill-rule:nonzero;fill:rgb(100%,100%,100%);fill-opacity:1;" d="M 563 309 C 563 313 557 313 557 309 C 557 305 563 305 563 309 Z M 563 309 "/>
<path style=" stroke:none;fill-rule:nonzero;fill:rgb(100%,100%,100%);fill-opacity:1;" d="M 583 309 C 583 313 577 313 577 309 C 577 305 583 305 583 309 Z M 583 309 "/>
<path style=" stroke:none;fill-rule:nonzero;fill:rgb(100%,100%,100%);fill-opacity:1;" d="M 603 309 C 603 313 597 313 597 309 C 597 305 603 305 603 309 Z M 603 309 "/>
<path style=" stroke:none;fill-rule:nonzero;fill:rgb(100%,100%,100%);fill-opacity:1;" d="M 623 309 C 623 313 617 313 617 309 C 617 305 623 305 623 309 Z M 623 309 "/>
<path style=" stroke:none;fill-rule:nonzero;fill:rgb(100%,100%,100%);fill-opacity:1;" d="M 643 309 C 643 313 637 313 637 309 C 637 305 643 305 643 309 Z M 643 309 "/>
<path style=" stroke:none;fill-rule:nonzero;fill:rgb(100%,100%,100%);fill-opacity:1;" d="M 663 309 C 663 313 657 313 657 309 C 657 305 663 305 663 309 Z M 663 309 "/>
<path style=" stroke:none;fill-rule:nonzero;fill:rgb(100%,100%,100%);fill-opacity:1;" d="M 683 309 C 683 313 677 313 677 309 C 677 305 683 305 683 309 Z M 683 309 "/>
<path style=" stroke:none;fill-rule:nonzero;fill:rgb(100%,100%,100%);fill-opacity:1;" d="M 703 309 C 703 313 697 313 697 309 C 697 305 703 305 703 309 Z M 703 309 "/>
<path style=" stroke:none;fill-rule:nonzero;fill:rgb(100%,100%,100%);fill-opacity:1;" d="M 723 309 C 723 313 717 313 717 309 C 717 305 723 305 723 309 Z M 723 309 "/>
<path style=" stroke:none;fill-rule:nonzero;fill:rgb(100%,100%,100%);fill-opacity:1;" d="M 743 309 C 743 313 737 313 737 309 C 737 305 743 305 743 309 Z M 743 309 "/>
<path style=" stroke:none;fill-rule:nonzero;fill:rgb(100%,100%,100%);fill-opacity:1;" d="M 763 309 C 763 313 757 313 757 309 C 757 305 763 305 763 309 Z M 763 309 "/>
<path style=" stroke:none;fill-rule:nonzero;fill:rgb(100%,100%,100%);fill-opacity:1;" d="M 783 309 C 783 313 777 313 777 309 C 777 305 783 305 783 309 Z M 783 309 "/>
<path style=" stroke:none;fill-rule:nonzero;fill:rgb(100%,100%,100%);fill-opacity:1;" d="M 803 309 C 803 313 797 313 797 309 C 797 305 803 305 803 309 Z M 803 309 "/>
<path style=" stroke:none;fill-rule:nonzero;fill:rgb(100%,100%,100%);fill-opacity:1;" d="M 823 309 C 823 313 817 313 817 309 C 817 305 823 305 823 309 Z M 823 309 "/>
<path style=" stroke:none;fill-rule:nonzero;fill:rgb(100%,100%,100%);fill-opacity:1;" d="M 843 309 C 843 313 837 313 837 309 C 837 305 843 305 843 309 Z M 843 309 "/>
<path style=" stroke:none;fill-rule:nonzero;fill:rgb(100%,100%,100%);fill-opacity:1;" d="M 443 329 C 443 333 437 333 437 329 C 437 325 443 325 443 329 Z M 443 329 "/>
<path style=" stroke:none;fill-rule:nonzero;fill:rgb(100%,100%,100%);fill-opacity:1;" d="M 463 329 C 463 333 457 333 457 329 C 457 325 463 325 463 329 Z M 463 329 "/>
<path style=" stroke:none;fill-rule:nonzero;fill:rgb(100%,100%,100%);fill-opacity:1;" d="M 483 329 C 483 333 477 333 477 329 C 477 325 483 325 483 329 Z M 483 329 "/>
<path style=" stroke:none;fill-rule:nonzero;fill:rgb(100%,100%,100%);fill-opacity:1;" d="M 503 329 C 503 333 497 333 497 329 C 497 325 503 325 503 329 Z M 503 329 "/>
<path style=" stroke:none;fill-rule:nonzero;fill:rgb(100%,100%,100%);fill-opacity:1;" d="M 523 329 C 523 333 517 333 517 329 C 517 325 523 325 523 329 Z M 523 329 "/>
<path style=" stroke:none;fill-rule:nonzero;fill:rgb(100%,100%,100%);fill-opacity:1;" d="M 543 329 C 543 333 537 333 537 329 C 537 325 543 325 543 329 Z M 543 329 "/>
<path style=" stroke:none;fill-rule:nonzero;fill:rgb(100%,100%,100%);fill-opacity:1;" d="M 563 329 C 563 333 557 333 557 329 C 557 325 563 325 563 329 Z M 563 329 "/>
<path style=" stroke:none;fill-rule:nonzero;fill:rgb(100%,100%,100%);fill-opacity:1;" d="M 583 329 C 583 333 577 333 577 329 C 577 325 583 325 583 329 Z M 583 329 "/>
<path style=" stroke:none;fill-rule:nonzero;fill:rgb(100%,100%,100%);fill-opacity:1;" d="M 603 329 C 603 333 597 333 597 329 C 597 325 603 325 603 329 Z M 603 329 "/>
<path style=" stroke:none;fill-rule:nonzero;fill:rgb(100%,100%,100%);fill-opacity:1;" d="M 623 329 C 623 333 617 333 617 329 C 617 325 623 325 623 329 Z M 623 329 "/>
<path style=" stroke:none;fill-rule:nonzero;fill:rgb(100%,100%,100%);fill-opacity:1;" d="M 643 329 C 643 333 637 333 637 329 C 637 325 643 325 643 329 Z M 643 329 "/>
<path style=" stroke:none;fill-rule:nonzero;fill:rgb(100%,100%,100%);fill-opacity:1;" d="M 663 329 C 663 333 657 333 657 329 C 657 325 663 325 663 329 Z M 663 329 "/>
<path style=" stroke:none;fill-rule:nonzero;fill:rgb(100%,100%,100%);fill-opacity:1;" d="M 683 329 C 683 333 677 333 677 329 C 677 325 683 325 683 329 Z M 683 329 "/>
<path style=" stroke:none;fill-rule:nonzero;fill:rgb(100%,100%,100%);fill-opacity:1;" d="M 703 329 C 703 333 697 333 697 329 C 697 325 703 325 703 329 Z M 703 329 "/>
<path style=" stroke:none;fill-rule:nonzero;fill:rgb(100%,100%,100%);fill-opacity:1;" d="M 723 329 C 723 333 717 333 717 329 C 717 325 723 325 723 329 Z M 723 329 "/>
<path style=" stroke:none;fill-rule:nonzero;fill:rgb(100%,100%,100%);fill-opacity:1;" d="M 743 329 C 743 333 737 333 737 329 C 737 325 743 325 743 329 Z M 743 329 "/>
<path style=" stroke:none;fill-rule:nonzero;fill:rgb(100%,100%,100%);fill-opacity:1;" d="M 763 329 C 763 333 757 333 757 329 C 757 325 763 325 763 329 Z M 763 329 "/>
<path style=" stroke:none;fill-rule:nonzero;fill:rgb(100%,100%,100%);fill-opacity:1;" d="M 783 329 C 783 333 777 333 777 329 C 777 325 783 325 783 329 Z M 783 329 "/>
<path style=" stroke:none;fill-rule:nonzero;fill:rgb(100%,100%,100%);fill-opacity:1;" d="M 803 329 C 803 333 797 333 797 329 C 797 325 803 325 803 329 Z M 803 329 "/>
<path style=" stroke:none;fill-rule:nonzero;fill:rgb(100%,100%,100%);fill-opacity:1;" d="M 823 329 C 823 333 817 333 817 329 C 817 325 823 325 823 329 Z M 823 329 "/>
<path style=" stroke:none;fill-rule:nonzero;fill:rgb(100%,100%,100%);fill-opacity:1;" d="M 843 329 C 843 333 837 333 837 329 C 837 325 843 325 843 329 Z M 843 329 "/>
<path style=" stroke:none;fill-rule:nonzero;fill:rgb(100%,100%,100%);fill-opacity:1;" d="M 443 349 C 443 353 437 353 437 349 C 437 345 443 345 443 349 Z M 443 349 "/>
<path style=" stroke:none;fill-rule:nonzero;fill:rgb(100%,100%,100%);fill-opacity:1;" d="M 463 349 C 463 353 457 353 457 349 C 457 345 463 345 463 349 Z M 463 349 "/>
<path style=" stroke:none;fill-rule:nonzero;fill:rgb(100%,100%,100%);fill-opacity:1;" d="M 483 349 C 483 353 477 353 477 349 C 477 345 483 345 483 349 Z M 483 349 "/>
<path style=" stroke:none;fill-rule:nonzero;fill:rgb(100%,100%,100%);fill-opacity:1;" d="M 503 349 C 503 353 497 353 497 349 C 497 345 503 345 503 349 Z M 503 349 "/>
<path style=" stroke:none;fill-rule:nonzero;fill:rgb(100%,100%,100%);fill-opacity:1;" d="M 523 349 C 523 353 517 353 517 349 C 517 345 523 345 523 349 Z M 523 349 "/>
<path style=" stroke:none;fill-rule:nonzero;fill:rgb(100%,100%,100%);fill-opacity:1;" d="M 543 349 C 543 353 537 353 537 349 C 537 345 543 345 543 349 Z M 543 349 "/>
<path style=" stroke:none;fill-rule:nonzero;fill:rgb(100%,100%,100%);fill-opacity:1;" d="M 563 349 C 563 353 557 353 557 349 C 557 345 563 345 563 349 Z M 563 349 "/>
<path style=" stroke:none;fill-rule:nonzero;fill:rgb(100%,100%,100%);fill-opacity:1;" d="M 583 349 C 583 353 577 353 577 349 C 577 345 583 345 583 349 Z M 583 349 "/>
<path style=" stroke:none;fill-rule:nonzero;fill:rgb(100%,100%,100%);fill-opacity:1;" d="M 603 349 C 603 353 597 353 597 349 C 597 345 603 345 603 349 Z M 603 349 "/>
<path style=" stroke:none;fill-rule:nonzero;fill:rgb(100%,100%,100%);fill-opacity:1;" d="M 623 349 C 623 353 617 353 617 349 C 617 345 623 345 623 349 Z M 623 349 "/>
<path style=" stroke:none;fill-rule:nonzero;fill:rgb(100%,100%,100%);fill-opacity:1;" d="M 643 349 C 643 353 637 353 637 349 C 637 345 643 345 643 349 Z M 643 349 "/>
<path style=" stroke:none;fill-rule:nonzero;fill:rgb(100%,100%,100%);fill-opacity:1;" d="M 663 349 C 663 353 657 353 657 349 C 657 345 663 345 663 349 Z M 663 349 "/>
<path style=" stroke:none;fill-rule:nonzero;fill:rgb(100%,100%,100%);fill-opacity:1;" d="M 683 349 C 683 353 677 353 677 349 C 677 345 683 345 683 349 Z M 683 349 "/>
<path style=" stroke:none;fill-rule:nonzero;fill:rgb(100%,100%,100%);fill-opacity:1;" d="M 703 349 C 703 353 697 353 697 349 C 697 345 703 345 703 349 Z M 703 349 "/>
<path style=" stroke:none;fill-rule:nonzero;fill:rgb(100%,100%,100%);fill-opacity:1;" d="M 723 349 C 723 353 717 353 717 349 C 717 345 723 345 723 349 Z M 723 349 "/>
<path style=" stroke:none;fill-rule:nonzero;fill:rgb(100%,100%,100%);fill-opacity:1;" d="M 743 349 C 743 353 737 353 737 349 C 737 345 743 345 743 349 Z M 743 349 "/>
<path style=" stroke:none;fill-rule:nonzero;fill:rgb(100%,100%,100%);fill-opacity:1;" d="M 763 349 C 763 353 757 353 757 349 C 757 345 763 345 763 349 Z M 763 349 "/>
<path style=" stroke:none;fill-rule:nonzero;fill:rgb(100%,100%,100%);fill-opacity:1;" d="M 783 349 C 783 353 777 353 777 349 C 777 345 783 345 783 349 Z M 783 349 "/>
<path style=" stroke:none;fill-rule:nonzero;fill:rgb(100%,100%,100%);fill-opacity:1;" d="M 803 349 C 803 353 797 353 797 349 C 797 345 803 345 803 349 Z M 803 349 "/>
<path style=" stroke:none;fill-rule:nonzero;fill:rgb(100%,100%,100%);fill-opacity:1;" d="M 823 349 C 823 353 817 353 817 349 C 817 345 823 345 823 349 Z M 823 349 "/>
<path style=" stroke:none;fill-rule:nonzero;fill:rgb(100%,100%,100%);fill-opacity:1;" d="M 843 349 C 843 353 837 353 837 349 C 837 345 843 345 843 349 Z M 843 349 "/>
<path style=" stroke:none;fill-rule:nonzero;fill:rgb(100%,100%,100%);fill-opacity:1;" d="M 443 369 C 443 373 437 373 437 369 C 437 365 443 365 443 369 Z M 443 369 "/>
<path style=" stroke:none;fill-rule:nonzero;fill:rgb(100%,100%,100%);fill-opacity:1;" d="M 463 369 C 463 373 457 373 457 369 C 457 365 463 365 463 369 Z M 463 369 "/>
<path style=" stroke:none;fill-rule:nonzero;fill:rgb(100%,100%,100%);fill-opacity:1;" d="M 483 369 C 483 373 477 373 477 369 C 477 365 483 365 483 369 Z M 483 369 "/>
<path style=" stroke:none;fill-rule:nonzero;fill:rgb(100%,100%,100%);fill-opacity:1;" d="M 503 369 C 503 373 497 373 497 369 C 497 365 503 365 503 369 Z M 503 369 "/>
<path style=" stroke:none;fill-rule:nonzero;fill:rgb(100%,100%,100%);fill-opacity:1;" d="M 523 369 C 523 373 517 373 517 369 C 517 365 523 365 523 369 Z M 523 369 "/>
<path style=" stroke:none;fill-rule:nonzero;fill:rgb(100%,100%,100%);fill-opacity:1;" d="M 543 369 C 543 373 537 373 537 369 C 537 365 543 365 543 369 Z M 543 369 "/>
<path style=" stroke:none;fill-rule:nonzero;fill:rgb(100%,100%,100%);fill-opacity:1;" d="M 563 369 C 563 373 557 373 557 369 C 557 365 563 365 563 369 Z M 563 369 "/>
<path style=" stroke:none;fill-rule:nonzero;fill:rgb(100%,100%,100%);fill-opacity:1;" d="M 583 369 C 583 373 577 373 577 369 C 577 365 583 365 583 369 Z M 583 369 "/>
<path style=" stroke:none;fill-rule:nonzero;fill:rgb(100%,100%,100%);fill-opacity:1;" d="M 603 369 C 603 373 597 373 597 369 C 597 365 603 365 603 369 Z M 603 369 "/>
<path style=" stroke:none;fill-rule:nonzero;fill:rgb(100%,100%,100%);fill-opacity:1;" d="M 623 369 C 623 373 617 373 617 369 C 617 365 623 365 623 369 Z M 623 369 "/>
<path style=" stroke:none;fill-rule:nonzero;fill:rgb(100%,100%,100%);fill-opacity:1;" d="M 643 369 C 643 373 637 373 637 369 C 637 365 643 365 643 369 Z M 643 369 "/>
<path style=" stroke:none;fill-rule:nonzero;fill:rgb(100%,100%,100%);fill-opacity:1;" d="M 663 369 C 663 373 657 373 657 369 C 657 365 663 365 663 369 Z M 663 369 "/>
<path style=" stroke:none;fill-rule:nonzero;fill:rgb(100%,100%,100%);fill-opacity:1;" d="M 683 369 C 683 373 677 373 677 369 C 677 365 683 365 683 369 Z M 683 369 "/>
<path style=" stroke:none;fill-rule:nonzero;fill:rgb(100%,100%,100%);fill-opacity:1;" d="M 703 369 C 703 373 697 373 697 369 C 697 365 703 365 703 369 Z M 703 369 "/>
<path style=" stroke:none;fill-rule:nonzero;fill:rgb(100%,100%,100%);fill-opacity:1;" d="M 723 369 C 723 373 717 373 717 369 C 717 365 723 365 723 369 Z M 723 369 "/>
<path style=" stroke:none;fill-rule:nonzero;fill:rgb(100%,100%,100%);fill-opacity:1;" d="M 743 369 C 743 373 737 373 737 369 C 737 365 743 365 743 369 Z M 743 369 "/>
<path style=" stroke:none;fill-rule:nonzero;fill:rgb(100%,100%,100%);fill-opacity:1;" d="M 763 369 C 763 373 757 373 757 369 C 757 365 763 365 763 369 Z M 763 369 "/>
<path style=" stroke:none;fill-rule:nonzero;fill:rgb(100%,100%,100%);fill-opacity:1;" d="M 783 369 C 783 373 777 373 777 369 C 777 365 783 365 783 369 Z M 783 369 "/>
<path style=" stroke:none;fill-rule:nonzero;fill:rgb(100%,100%,100%);fill-opacity:1;" d="M 803 369 C 803 373 797 373 797 369 C 797 365 803 365 803 369 Z M 803 369 "/>
<path style=" stroke:none;fill-rule:nonzero;fill:rgb(100%,100%,100%);fill-opacity:1;" d="M 823 369 C 823 373 817 373 817 369 C 817 365 823 365 823 369 Z M 823 369 "/>
<path style=" stroke:none;fill-rule:nonzero;fill:rgb(100%,100%,100%);fill-opacity:1;" d="M 843 369 C 843 373 837 373 837 369 C 837 365 843 365 843 369 Z M 843 369 "/>
<path style=" stroke:none;fill-rule:nonzero;fill:rgb(100%,100%,100%);fill-opacity:1;" d="M 443 389 C 443 393 437 393 437 389 C 437 385 443 385 443 389 Z M 443 389 "/>
<path style=" stroke:none;fill-rule:nonzero;fill:rgb(100%,100%,100%);fill-opacity:1;" d="M 463 389 C 463 393 457 393 457 389 C 457 385 463 385 463 389 Z M 463 389 "/>
<path style=" stroke:none;fill-rule:nonzero;fill:rgb(100%,100%,100%);fill-opacity:1;" d="M 483 389 C 483 393 477 393 477 389 C 477 385 483 385 483 389 Z M 483 389 "/>
<path style=" stroke:none;fill-rule:nonzero;fill:rgb(100%,100%,100%);fill-opacity:1;" d="M 503 389 C 503 393 497 393 497 389 C 497 385 503 385 503 389 Z M 503 389 "/>
<path style=" stroke:none;fill-rule:nonzero;fill:rgb(100%,100%,100%);fill-opacity:1;" d="M 523 389 C 523 393 517 393 517 389 C 517 385 523 385 523 389 Z M 523 389 "/>
<path style=" stroke:none;fill-rule:nonzero;fill:rgb(100%,100%,100%);fill-opacity:1;" d="M 543 389 C 543 393 537 393 537 389 C 537 385 543 385 543 389 Z M 543 389 "/>
<path style=" stroke:none;fill-rule:nonzero;fill:rgb(100%,100%,100%);fill-opacity:1;" d="M 563 389 C 563 393 557 393 557 389 C 557 385 563 385 563 389 Z M 563 389 "/>
<path style=" stroke:none;fill-rule:nonzero;fill:rgb(100%,100%,100%);fill-opacity:1;" d="M 583 389 C 583 393 577 393 577 389 C 577 385 583 385 583 389 Z M 583 389 "/>
<path style=" stroke:none;fill-rule:nonzero;fill:rgb(100%,100%,100%);fill-opacity:1;" d="M 603 389 C 603 393 597 393 597 389 C 597 385 603 385 603 389 Z M 603 389 "/>
<path style=" stroke:none;fill-rule:nonzero;fill:rgb(100%,100%,100%);fill-opacity:1;" d="M 623 389 C 623 393 617 393 617 389 C 617 385 623 385 623 389 Z M 623 389 "/>
<path style=" stroke:none;fill-rule:nonzero;fill:rgb(100%,100%,100%);fill-opacity:1;" d="M 643 389 C 643 393 637 393 637 389 C 637 385 643 385 643 389 Z M 643 389 "/>
<path style=" stroke:none;fill-rule:nonzero;fill:rgb(100%,100%,100%);fill-opacity:1;" d="M 663 389 C 663 393 657 393 657 389 C 657 385 663 385 663 389 Z M 663 389 "/>
<path style=" stroke:none;fill-rule:nonzero;fill:rgb(100%,100%,100%);fill-opacity:1;" d="M 683 389 C 683 393 677 393 677 389 C 677 385 683 385 683 389 Z M 683 389 "/>
<path style=" stroke:none;fill-rule:nonzero;fill:rgb(100%,100%,100%);fill-opacity:1;" d="M 703 389 C 703 393 697 393 697 389 C 697 385 703 385 703 389 Z M 703 389 "/>
<path style=" stroke:none;fill-rule:nonzero;fill:rgb(100%,100%,100%);fill-opacity:1;" d="M 723 389 C 723 393 717 393 717 389 C 717 385 723 385 723 389 Z M 723 389 "/>
<path style=" stroke:none;fill-rule:nonzero;fill:rgb(100%,100%,100%);fill-opacity:1;" d="M 743 389 C 743 393 737 393 737 389 C 737 385 743 385 743 389 Z M 743 389 "/>
<path style=" stroke:none;fill-rule:nonzero;fill:rgb(100%,100%,100%);fill-opacity:1;" d="M 763 389 C 763 393 757 393 757 389 C 757 385 763 385 763 389 Z M 763 389 "/>
<path style=" stroke:none;fill-rule:nonzero;fill:rgb(100%,100%,100%);fill-opacity:1;" d="M 783 389 C 783 393 777 393 777 389 C 777 385 783 385 783 389 Z M 783 389 "/>
<path style=" stroke:none;fill-rule:nonzero;fill:rgb(100%,100%,100%);fill-opacity:1;" d="M 803 389 C 803 393 797 393 797 389 C 797 385 803 385 803 389 Z M 803 389 "/>
<path style=" stroke:none;fill-rule:nonzero;fill:rgb(100%,100%,100%);fill-opacity:1;" d="M 823 389 C 823 393 817 393 817 389 C 817 385 823 385 823 389 Z M 823 389 "/>
<path style=" stroke:none;fill-rule:nonzero;fill:rgb(100%,100%,100%);fill-opacity:1;" d="M 843 389 C 843 393 837 393 837 389 C 837 385 843 385 843 389 Z M 843 389 "/>
<path style=" stroke:none;fill-rule:nonzero;fill:rgb(100%,100%,100%);fill-opacity:1;" d="M 443 409 C 443 413 437 413 437 409 C 437 405 443 405 443 409 Z M 443 409 "/>
<path style=" stroke:none;fill-rule:nonzero;fill:rgb(100%,100%,100%);fill-opacity:1;" d="M 463 409 C 463 413 457 413 457 409 C 457 405 463 405 463 409 Z M 463 409 "/>
<path style=" stroke:none;fill-rule:nonzero;fill:rgb(100%,100%,100%);fill-opacity:1;" d="M 483 409 C 483 413 477 413 477 409 C 477 405 483 405 483 409 Z M 483 409 "/>
<path style=" stroke:none;fill-rule:nonzero;fill:rgb(100%,100%,100%);fill-opacity:1;" d="M 503 409 C 503 413 497 413 497 409 C 497 405 503 405 503 409 Z M 503 409 "/>
<path style=" stroke:none;fill-rule:nonzero;fill:rgb(100%,100%,100%);fill-opacity:1;" d="M 523 409 C 523 413 517 413 517 409 C 517 405 523 405 523 409 Z M 523 409 "/>
<path style=" stroke:none;fill-rule:nonzero;fill:rgb(100%,100%,100%);fill-opacity:1;" d="M 543 409 C 543 413 537 413 537 409 C 537 405 543 405 543 409 Z M 543 409 "/>
<path style=" stroke:none;fill-rule:nonzero;fill:rgb(100%,100%,100%);fill-opacity:1;" d="M 563 409 C 563 413 557 413 557 409 C 557 405 563 405 563 409 Z M 563 409 "/>
<path style=" stroke:none;fill-rule:nonzero;fill:rgb(100%,100%,100%);fill-opacity:1;" d="M 583 409 C 583 413 577 413 577 409 C 577 405 583 405 583 409 Z M 583 409 "/>
<path style=" stroke:none;fill-rule:nonzero;fill:rgb(100%,100%,100%);fill-opacity:1;" d="M 603 409 C 603 413 597 413 597 409 C 597 405 603 405 603 409 Z M 603 409 "/>
<path style=" stroke:none;fill-rule:nonzero;fill:rgb(100%,100%,100%);fill-opacity:1;" d="M 623 409 C 623 413 617 413 617 409 C 617 405 623 405 623 409 Z M 623 409 "/>
<path style=" stroke:none;fill-rule:nonzero;fill:rgb(100%,100%,100%);fill-opacity:1;" d="M 643 409 C 643 413 637 413 637 409 C 637 405 643 405 643 409 Z M 643 409 "/>
<path style=" stroke:none;fill-rule:nonzero;fill:rgb(100%,100%,100%);fill-opacity:1;" d="M 663 409 C 663 413 657 413 657 409 C 657 405 663 405 663 409 Z M 663 409 "/>
<path style=" stroke:none;fill-rule:nonzero;fill:rgb(100%,100%,100%);fill-opacity:1;" d="M 683 409 C 683 413 677 413 677 409 C 677 405 683 405 683 409 Z M 683 409 "/>
<path style=" stroke:none;fill-rule:nonzero;fill:rgb(100%,100%,100%);fill-opacity:1;" d="M 703 409 C 703 413 697 413 697 409 C 697 405 703 405 703 409 Z M 703 409 "/>
<path style=" stroke:none;fill-rule:nonzero;fill:rgb(100%,100%,100%);fill-opacity:1;" d="M 723 409 C 723 413 717 413 717 409 C 717 405 723 405 723 409 Z M 723 409 "/>
<path style=" stroke:none;fill-rule:nonzero;fill:rgb(100%,100%,100%);fill-opacity:1;" d="M 743 409 C 743 413 737 413 737 409 C 737 405 743 405 743 409 Z M 743 409 "/>
<path style=" stroke:none;fill-rule:nonzero;fill:rgb(100%,100%,100%);fill-opacity:1;" d="M 763 409 C 763 413 757 413 757 409 C 757 405 763 405 763 409 Z M 763 409 "/>
<path style=" stroke:none;fill-rule:nonzero;fill:rgb(100%,100%,100%);fill-opacity:1;" d="M 783 409 C 783 413 777 413 777 409 C 777 405 783 405 783 409 Z M 783 409 "/>
<path style=" stroke:none;fill-rule:nonzero;fill:rgb(100%,100%,100%);fill-opacity:1;" d="M 803 409 C 803 413 797 413 797 409 C 797 405 803 405 803 409 Z M 803 409 "/>
<path style=" stroke:none;fill-rule:nonzero;fill:rgb(100%,100%,100%);fill-opacity:1;" d="M 823 409 C 823 413 817 413 817 409 C 817 405 823 405 823 409 Z M 823 409 "/>
<path style=" stroke:none;fill-rule:nonzero;fill:rgb(100%,100%,100%);fill-opacity:1;" d="M 843 409 C 843 413 837 413 837 409 C 837 405 843 405 843 409 Z M 843 409 "/>
<path style=" stroke:none;fill-rule:nonzero;fill:rgb(100%,100%,100%);fill-opacity:1;" d="M 443 429 C 443 433 437 433 437 429 C 437 425 443 425 443 429 Z M 443 429 "/>
<path style=" stroke:none;fill-rule:nonzero;fill:rgb(100%,100%,100%);fill-opacity:1;" d="M 463 429 C 463 433 457 433 457 429 C 457 425 463 425 463 429 Z M 463 429 "/>
<path style=" stroke:none;fill-rule:nonzero;fill:rgb(100%,100%,100%);fill-opacity:1;" d="M 483 429 C 483 433 477 433 477 429 C 477 425 483 425 483 429 Z M 483 429 "/>
<path style=" stroke:none;fill-rule:nonzero;fill:rgb(100%,100%,100%);fill-opacity:1;" d="M 503 429 C 503 433 497 433 497 429 C 497 425 503 425 503 429 Z M 503 429 "/>
<path style=" stroke:none;fill-rule:nonzero;fill:rgb(100%,100%,100%);fill-opacity:1;" d="M 523 429 C 523 433 517 433 517 429 C 517 425 523 425 523 429 Z M 523 429 "/>
<path style=" stroke:none;fill-rule:nonzero;fill:rgb(100%,100%,100%);fill-opacity:1;" d="M 543 429 C 543 433 537 433 537 429 C 537 425 543 425 543 429 Z M 543 429 "/>
<path style=" stroke:none;fill-rule:nonzero;fill:rgb(100%,100%,100%);fill-opacity:1;" d="M 563 429 C 563 433 557 433 557 429 C 557 425 563 425 563 429 Z M 563 429 "/>
<path style=" stroke:none;fill-rule:nonzero;fill:rgb(100%,100%,100%);fill-opacity:1;" d="M 583 429 C 583 433 577 433 577 429 C 577 425 583 425 583 429 Z M 583 429 "/>
<path style=" stroke:none;fill-rule:nonzero;fill:rgb(100%,100%,100%);fill-opacity:1;" d="M 603 429 C 603 433 597 433 597 429 C 597 425 603 425 603 429 Z M 603 429 "/>
<path style=" stroke:none;fill-rule:nonzero;fill:rgb(100%,100%,100%);fill-opacity:1;" d="M 623 429 C 623 433 617 433 617 429 C 617 425 623 425 623 429 Z M 623 429 "/>
<path style=" stroke:none;fill-rule:nonzero;fill:rgb(100%,100%,100%);fill-opacity:1;" d="M 643 429 C 643 433 637 433 637 429 C 637 425 643 425 643 429 Z M 643 429 "/>
<path style=" stroke:none;fill-rule:nonzero;fill:rgb(100%,100%,100%);fill-opacity:1;" d="M 663 429 C 663 433 657 433 657 429 C 657 425 663 425 663 429 Z M 663 429 "/>
<path style=" stroke:none;fill-rule:nonzero;fill:rgb(100%,100%,100%);fill-opacity:1;" d="M 683 429 C 683 433 677 433 677 429 C 677 425 683 425 683 429 Z M 683 429 "/>
<path style=" stroke:none;fill-rule:nonzero;fill:rgb(100%,100%,100%);fill-opacity:1;" d="M 703 429 C 703 433 697 433 697 429 C 697 425 703 425 703 429 Z M 703 429 "/>
<path style=" stroke:none;fill-rule:nonzero;fill:rgb(100%,100%,100%);fill-opacity:1;" d="M 723 429 C 723 433 717 433 717 429 C 717 425 723 425 723 429 Z M 723 429 "/>
<path style=" stroke:none;fill-rule:nonzero;fill:rgb(100%,100%,100%);fill-opacity:1;" d="M 743 429 C 743 433 737 433 737 429 C 737 425 743 425 743 429 Z M 743 429 "/>
<path style=" stroke:none;fill-rule:nonzero;fill:rgb(100%,100%,100%);fill-opacity:1;" d="M 763 429 C 763 433 757 433 757 429 C 757 425 763 425 763 429 Z M 763 429 "/>
<path style=" stroke:none;fill-rule:nonzero;fill:rgb(100%,100%,100%);fill-opacity:1;" d="M 783 429 C 783 433 777 433 777 429 C 777 425 783 425 783 429 Z M 783 429 "/>
<path style=" stroke:none;fill-rule:nonzero;fill:rgb(100%,100%,100%);fill-opacity:1;" d="M 803 429 C 803 433 797 433 797 429 C 797 425 803 425 803 429 Z M 803 429 "/>
<path style=" stroke:none;fill-rule:nonzero;fill:rgb(100%,100%,100%);fill-opacity:1;" d="M 823 429 C 823 433 817 433 817 429 C 817 425 823 425 823 429 Z M 823 429 "/>
<path style=" stroke:none;fill-rule:nonzero;fill:rgb(100%,100%,100%);fill-opacity:1;" d="M 843 429 C 843 433 837 433 837 429 C 837 425 843 425 843 429 Z M 843 429 "/>
<path style=" stroke:none;fill-rule:nonzero;fill:rgb(100%,100%,100%);fill-opacity:1;" d="M 443 449 C 443 453 437 453 437 449 C 437 445 443 445 443 449 Z M 443 449 "/>
<path style=" stroke:none;fill-rule:nonzero;fill:rgb(100%,100%,100%);fill-opacity:1;" d="M 463 449 C 463 453 457 453 457 449 C 457 445 463 445 463 449 Z M 463 449 "/>
<path style=" stroke:none;fill-rule:nonzero;fill:rgb(100%,100%,100%);fill-opacity:1;" d="M 483 449 C 483 453 477 453 477 449 C 477 445 483 445 483 449 Z M 483 449 "/>
<path style=" stroke:none;fill-rule:nonzero;fill:rgb(100%,100%,100%);fill-opacity:1;" d="M 503 449 C 503 453 497 453 497 449 C 497 445 503 445 503 449 Z M 503 449 "/>
<path style=" stroke:none;fill-rule:nonzero;fill:rgb(100%,100%,100%);fill-opacity:1;" d="M 523 449 C 523 453 517 453 517 449 C 517 445 523 445 523 449 Z M 523 449 "/>
<path style=" stroke:none;fill-rule:nonzero;fill:rgb(100%,100%,100%);fill-opacity:1;" d="M 543 449 C 543 453 537 453 537 449 C 537 445 543 445 543 449 Z M 543 449 "/>
<path style=" stroke:none;fill-rule:nonzero;fill:rgb(100%,100%,100%);fill-opacity:1;" d="M 563 449 C 563 453 557 453 557 449 C 557 445 563 445 563 449 Z M 563 449 "/>
<path style=" stroke:none;fill-rule:nonzero;fill:rgb(100%,100%,100%);fill-opacity:1;" d="M 583 449 C 583 453 577 453 577 449 C 577 445 583 445 583 449 Z M 583 449 "/>
<path style=" stroke:none;fill-rule:nonzero;fill:rgb(100%,100%,100%);fill-opacity:1;" d="M 603 449 C 603 453 597 453 597 449 C 597 445 603 445 603 449 Z M 603 449 "/>
<path style=" stroke:none;fill-rule:nonzero;fill:rgb(100%,100%,100%);fill-opacity:1;" d="M 623 449 C 623 453 617 453 617 449 C 617 445 623 445 623 449 Z M 623 449 "/>
<path style=" stroke:none;fill-rule:nonzero;fill:rgb(100%,100%,100%);fill-opacity:1;" d="M 643 449 C 643 453 637 453 637 449 C 637 445 643 445 643 449 Z M 643 449 "/>
<path style=" stroke:none;fill-rule:nonzero;fill:rgb(100%,100%,100%);fill-opacity:1;" d="M 663 449 C 663 453 657 453 657 449 C 657 445 663 445 663 449 Z M 663 449 "/>
<path style=" stroke:none;fill-rule:nonzero;fill:rgb(100%,100%,100%);fill-opacity:1;" d="M 683 449 C 683 453 677 453 677 449 C 677 445 683 445 683 449 Z M 683 449 "/>
<path style=" stroke:none;fill-rule:nonzero;fill:rgb(100%,100%,100%);fill-opacity:1;" d="M 703 449 C 703 453 697 453 697 449 C 697 445 703 445 703 449 Z M 703 449 "/>
<path style=" stroke:none;fill-rule:nonzero;fill:rgb(100%,100%,100%);fill-opacity:1;" d="M 723 449 C 723 453 717 453 717 449 C 717 445 723 445 723 449 Z M 723 449 "/>
<path style=" stroke:none;fill-rule:nonzero;fill:rgb(100%,100%,100%);fill-opacity:1;" d="M 743 449 C 743 453 737 453 737 449 C 737 445 743 445 743 449 Z M 743 449 "/>
<path style=" stroke:none;fill-rule:nonzero;fill:rgb(100%,100%,100%);fill-opacity:1;" d="M 763 449 C 763 453 757 453 757 449 C 757 445 763 445 763 449 Z M 763 449 "/>
<path style=" stroke:none;fill-rule:nonzero;fill:rgb(100%,100%,100%);fill-opacity:1;" d="M 783 449 C 783 453 777 453 777 449 C 777 445 783 445 783 449 Z M 783 449 "/>
<path style=" stroke:none;fill-rule:nonzero;fill:rgb(100%,100%,100%);fill-opacity:1;" d="M 803 449 C 803 453 797 453 797 449 C 797 445 803 445 803 449 Z M 803 449 "/>
<path style=" stroke:none;fill-rule:nonzero;fill:rgb(100%,100%,100%);fill-opacity:1;" d="M 823 449 C 823 453 817 453 817 449 C 817 445 823 445 823 449 Z M 823 449 "/>
<path style=" stroke:none;fill-rule:nonzero;fill:rgb(100%,100%,100%);fill-opacity:1;" d="M 843 449 C 843 453 837 453 837 449 C 837 445 843 445 843 449 Z M 843 449 "/>
<path style=" stroke:none;fill-rule:nonzero;fill:rgb(100%,100%,100%);fill-opacity:1;" d="M 443 469 C 443 473 437 473 437 469 C 437 465 443 465 443 469 Z M 443 469 "/>
<path style=" stroke:none;fill-rule:nonzero;fill:rgb(100%,100%,100%);fill-opacity:1;" d="M 463 469 C 463 473 457 473 457 469 C 457 465 463 465 463 469 Z M 463 469 "/>
<path style=" stroke:none;fill-rule:nonzero;fill:rgb(100%,100%,100%);fill-opacity:1;" d="M 483 469 C 483 473 477 473 477 469 C 477 465 483 465 483 469 Z M 483 469 "/>
<path style=" stroke:none;fill-rule:nonzero;fill:rgb(100%,100%,100%);fill-opacity:1;" d="M 503 469 C 503 473 497 473 497 469 C 497 465 503 465 503 469 Z M 503 469 "/>
<path style=" stroke:none;fill-rule:nonzero;fill:rgb(100%,100%,100%);fill-opacity:1;" d="M 523 469 C 523 473 517 473 517 469 C 517 465 523 465 523 469 Z M 523 469 "/>
<path style=" stroke:none;fill-rule:nonzero;fill:rgb(100%,100%,100%);fill-opacity:1;" d="M 543 469 C 543 473 537 473 537 469 C 537 465 543 465 543 469 Z M 543 469 "/>
<path style=" stroke:none;fill-rule:nonzero;fill:rgb(100%,100%,100%);fill-opacity:1;" d="M 563 469 C 563 473 557 473 557 469 C 557 465 563 465 563 469 Z M 563 469 "/>
<path style=" stroke:none;fill-rule:nonzero;fill:rgb(100%,100%,100%);fill-opacity:1;" d="M 583 469 C 583 473 577 473 577 469 C 577 465 583 465 583 469 Z M 583 469 "/>
<path style=" stroke:none;fill-rule:nonzero;fill:rgb(100%,100%,100%);fill-opacity:1;" d="M 603 469 C 603 473 597 473 597 469 C 597 465 603 465 603 469 Z M 603 469 "/>
<path style=" stroke:none;fill-rule:nonzero;fill:rgb(100%,100%,100%);fill-opacity:1;" d="M 623 469 C 623 473 617 473 617 469 C 617 465 623 465 623 469 Z M 623 469 "/>
<path style=" stroke:none;fill-rule:nonzero;fill:rgb(100%,100%,100%);fill-opacity:1;" d="M 643 469 C 643 473 637 473 637 469 C 637 465 643 465 643 469 Z M 643 469 "/>
<path style=" stroke:none;fill-rule:nonzero;fill:rgb(100%,100%,100%);fill-opacity:1;" d="M 663 469 C 663 473 657 473 657 469 C 657 465 663 465 663 469 Z M 663 469 "/>
<path style=" stroke:none;fill-rule:nonzero;fill:rgb(100%,100%,100%);fill-opacity:1;" d="M 683 469 C 683 473 677 473 677 469 C 677 465 683 465 683 469 Z M 683 469 "/>
<path style=" stroke:none;fill-rule:nonzero;fill:rgb(100%,100%,100%);fill-opacity:1;" d="M 703 469 C 703 473 697 473 697 469 C 697 465 703 465 703 469 Z M 703 469 "/>
<path style=" stroke:none;fill-rule:nonzero;fill:rgb(100%,100%,100%);fill-opacity:1;" d="M 723 469 C 723 473 717 473 717 469 C 717 465 723 465 723 469 Z M 723 469 "/>
<path style=" stroke:none;fill-rule:nonzero;fill:rgb(100%,100%,100%);fill-opacity:1;" d="M 743 469 C 743 473 737 473 737 469 C 737 465 743 465 743 469 Z M 743 469 "/>
<path style=" stroke:none;fill-rule:nonzero;fill:rgb(100%,100%,100%);fill-opacity:1;" d="M 763 469 C 763 473 757 473 757 469 C 757 465 763 465 763 469 Z M 763 469 "/>
<path style=" stroke:none;fill-rule:nonzero;fill:rgb(100%,100%,100%);fill-opacity:1;" d="M 783 469 C 783 473 777 473 777 469 C 777 465 783 465 783 469 Z M 783 469 "/>
<path style=" stroke:none;fill-rule:nonzero;fill:rgb(100%,100%,100%);fill-opacity:1;" d="M 803 469 C 803 473 797 473 797 469 C 797 465 803 465 803 469 Z M 803 469 "/>
<path style=" stroke:none;fill-rule:nonzero;fill:rgb(100%,100%,100%);fill-opacity:1;" d="M 823 469 C 823 473 817 473 817 469 C 817 465 823 465 823 469 Z M 823 469 "/>
<path style=" stroke:none;fill-rule:nonzero;fill:rgb(100%,100%,100%);fill-opacity:1;" d="M 843 469 C 843 473 837 473 837 469 C 837 465 843 465 843 469 Z M 843 469 "/>
<path style=" stroke:none;fill-rule:nonzero;fill:rgb(100%,100%,100%);fill-opacity:1;" d="M 443 489 C 443 493 437 493 437 489 C 437 485 443 485 443 489 Z M 443 489 "/>
<path style=" stroke:none;fill-rule:nonzero;fill:rgb(100%,100%,100%);fill-opacity:1;" d="M 463 489 C 463 493 457 493 457 489 C 457 485 463 485 463 489 Z M 463 489 "/>
<path style=" stroke:none;fill-rule:nonzero;fill:rgb(100%,100%,100%);fill-opacity:1;" d="M 483 489 C 483 493 477 493 477 489 C 477 485 483 485 483 489 Z M 483 489 "/>
<path style=" stroke:none;fill-rule:nonzero;fill:rgb(100%,100%,100%);fill-opacity:1;" d="M 503 489 C 503 493 497 493 497 489 C 497 485 503 485 503 489 Z M 503 489 "/>
<path style=" stroke:none;fill-rule:nonzero;fill:rgb(100%,100%,100%);fill-opacity:1;" d="M 523 489 C 523 493 517 493 517 489 C 517 485 523 485 523 489 Z M 523 489 "/>
<path style=" stroke:none;fill-rule:nonzero;fill:rgb(100%,100%,100%);fill-opacity:1;" d="M 543 489 C 543 493 537 493 537 489 C 537 485 543 485 543 489 Z M 543 489 "/>
<path style=" stroke:none;fill-rule:nonzero;fill:rgb(100%,100%,100%);fill-opacity:1;" d="M 563 489 C 563 493 557 493 557 489 C 557 485 563 485 563 489 Z M 563 489 "/>
<path style=" stroke:none;fill-rule:nonzero;fill:rgb(100%,100%,100%);fill-opacity:1;" d="M 583 489 C 583 493 577 493 577 489 C 577 485 583 485 583 489 Z M 583 489 "/>
<path style=" stroke:none;fill-rule:nonzero;fill:rgb(100%,100%,100%);fill-opacity:1;" d="M 603 489 C 603 493 597 493 597 489 C 597 485 603 485 603 489 Z M 603 489 "/>
<path style=" stroke:none;fill-rule:nonzero;fill:rgb(100%,100%,100%);fill-opacity:1;" d="M 623 489 C 623 493 617 493 617 489 C 617 485 623 485 623 489 Z M 623 489 "/>
<path style=" stroke:none;fill-rule:nonzero;fill:rgb(100%,100%,100%);fill-opacity:1;" d="M 643 489 C 643 493 637 493 637 489 C 637 485 643 485 643 489 Z M 643 489 "/>
<path style=" stroke:none;fill-rule:nonzero;fill:rgb(100%,100%,100%);fill-opacity:1;" d="M 663 489 C 663 493 657 493 657 489 C 657 485 663 485 663 489 Z M 663 489 "/>
<path style=" stroke:none;fill-rule:nonzero;fill:rgb(100%,100%,100%);fill-opacity:1;" d="M 683 489 C 683 493 677 493 677 489 C 677 485 683 485 683 489 Z M 683 489 "/>
<path style=" stroke:none;fill-rule:nonzero;fill:rgb(100%,100%,100%);fill-opacity:1;" d="M 703 489 C 703 493 697 493 697 489 C 697 485 703 485 703 489 Z M 703 489 "/>
<path style=" stroke:none;fill-rule:nonzero;fill:rgb(100%,100%,100%);fill-opacity:1;" d="M 723 489 C 723 493 717 493 717 489 C 717 485 723 485 723 489 Z M 723 489 "/>
<path style=" stroke:none;fill-rule:nonzero;fill:rgb(100%,100%,100%);fill-opacity:1;" d="M 743 489 C 743 493 737 493 737 489 C 737 485 743 485 743 489 Z M 743 489 "/>
<path style=" stroke:none;fill-rule:nonzero;fill:rgb(100%,100%,100%);fill-opacity:1;" d="M 763 489 C 763 493 757 493 757 489 C 757 485 763 485 763 489 Z M 763 489 "/>
<path style=" stroke:none;fill-rule:nonzero;fill:rgb(100%,100%,100%);fill-opacity:1;" d="M 783 489 C 783 493 777 493 777 489 C 777 485 783 485 783 489 Z M 783 489 "/>
<path style=" stroke:none;fill-rule:nonzero;fill:rgb(100%,100%,100%);fill-opacity:1;" d="M 803 489 C 803 493 797 493 797 489 C 797 485 803 485 803 489 Z M 803 489 "/>
<path style=" stroke:none;fill-rule:nonzero;fill:rgb(100%,100%,100%);fill-opacity:1;" d="M 823 489 C 823 493 817 493 817 489 C 817 485 823 485 823 489 Z M 823 489 "/>
<path style=" stroke:none;fill-rule:nonzero;fill:rgb(100%,100%,100%);fill-opacity:1;" d="M 843 489 C 843 493 837 493 837 489 C 837 485 843 485 843 489 Z M 843 489 "/>
<path style=" stroke:none;fill-rule:nonzero;fill:rgb(100%,100%,100%);fill-opacity:1;" d="M 443 509 C 443 513 437 513 437 509 C 437 505 443 505 443 509 Z M 443 509 "/>
<path style=" stroke:none;fill-rule:nonzero;fill:rgb(100%,100%,100%);fill-opacity:1;" d="M 463 509 C 463 513 457 513 457 509 C 457 505 463 505 463 509 Z M 463 509 "/>
<path style=" stroke:none;fill-rule:nonzero;fill:rgb(100%,100%,100%);fill-opacity:1;" d="M 483 509 C 483 513 477 513 477 509 C 477 505 483 505 483 509 Z M 483 509 "/>
<path style=" stroke:none;fill-rule:nonzero;fill:rgb(100%,100%,100%);fill-opacity:1;" d="M 503 509 C 503 513 497 513 497 509 C 497 505 503 505 503 509 Z M 503 509 "/>
<path style=" stroke:none;fill-rule:nonzero;fill:rgb(100%,100%,100%);fill-opacity:1;" d="M 523 509 C 523 513 517 513 517 509 C 517 505 523 505 523 509 Z M 523 509 "/>
<path style=" stroke:none;fill-rule:nonzero;fill:rgb(100%,100%,100%);fill-opacity:1;" d="M 543 509 C 543 513 537 513 537 509 C 537 505 543 505 543 509 Z M 543 509 "/>
<path style=" stroke:none;fill-rule:nonzero;fill:rgb(100%,100%,100%);fill-opacity:1;" d="M 563 509 C 563 513 557 513 557 509 C 557 505 563 505 563 509 Z M 563 509 "/>
<path style=" stroke:none;fill-rule:nonzero;fill:rgb(100%,100%,100%);fill-opacity:1;" d="M 583 509 C 583 513 577 513 577 509 C 577 505 583 505 583 509 Z M 583 509 "/>
<path style=" stroke:none;fill-rule:nonzero;fill:rgb(100%,100%,100%);fill-opacity:1;" d="M 603 509 C 603 513 597 513 597 509 C 597 505 603 505 603 509 Z M 603 509 "/>
<path style=" stroke:none;fill-rule:nonzero;fill:rgb(100%,100%,100%);fill-opacity:1;" d="M 623 509 C 623 513 617 513 617 509 C 617 505 623 505 623 509 Z M 623 509 "/>
<path style=" stroke:none;fill-rule:nonzero;fill:rgb(100%,100%,100%);fill-opacity:1;" d="M 643 509 C 643 513 637 513 637 509 C 637 505 643 505 643 509 Z M 643 509 "/>
<path style=" stroke:none;fill-rule:nonzero;fill:rgb(100%,100%,100%);fill-opacity:1;" d="M 663 509 C 663 513 657 513 657 509 C 657 505 663 505 663 509 Z M 663 509 "/>
<path style=" stroke:none;fill-rule:nonzero;fill:rgb(100%,100%,100%);fill-opacity:1;" d="M 683 509 C 683 513 677 513 677 509 C 677 505 683 505 683 509 Z M 683 509 "/>
<path style=" stroke:none;fill-rule:nonzero;fill:rgb(100%,100%,100%);fill-opacity:1;" d="M 703 509 C 703 513 697 513 697 509 C 697 505 703 505 703 509 Z M 703 509 "/>
<path style=" stroke:none;fill-rule:nonzero;fill:rgb(100%,100%,100%);fill-opacity:1;" d="M 723 509 C 723 513 717 513 717 509 C 717 505 723 505 723 509 Z M 723 509 "/>
<path style=" stroke:none;fill-rule:nonzero;fill:rgb(100%,100%,100%);fill-opacity:1;" d="M 743 509 C 743 513 737 513 737 509 C 737 505 743 505 743 509 Z M 743 509 "/>
<path style=" stroke:none;fill-rule:nonzero;fill:rgb(100%,100%,100%);fill-opacity:1;" d="M 763 509 C 763 513 757 513 757 509 C 757 505 763 505 763 509 Z M 763 509 "/>
<path style=" stroke:none;fill-rule:nonzero;fill:rgb(100%,100%,100%);fill-opacity:1;" d="M 783 509 C 783 513 777 513 777 509 C 777 505 783 505 783 509 Z M 783 509 "/>
<path style=" stroke:none;fill-rule:nonzero;fill:rgb(100%,100%,100%);fill-opacity:1;" d="M 803 509 C 803 513 797 513 797 509 C 797 505 803 505 803 509 Z M 803 509 "/>
<path style=" stroke:none;fill-rule:nonzero;fill:rgb(100%,100%,100%);fill-opacity:1;" d="M 823 509 C 823 513 817 513 817 509 C 817 505 823 505 823 509 Z M 823 509 "/>
<path style=" stroke:none;fill-rule:nonzero;fill:rgb(100%,100%,100%);fill-opacity:1;" d="M 843 509 C 843 513 837 513 837 509 C 837 505 843 505 843 509 Z M 843 509 "/>
<path style=" stroke:none;fill-rule:nonzero;fill:rgb(100%,100%,100%);fill-opacity:1;" d="M 443 529 C 443 533 437 533 437 529 C 437 525 443 525 443 529 Z M 443 529 "/>
<path style=" stroke:none;fill-rule:nonzero;fill:rgb(100%,100%,100%);fill-opacity:1;" d="M 463 529 C 463 533 457 533 457 529 C 457 525 463 525 463 529 Z M 463 529 "/>
<path style=" stroke:none;fill-rule:nonzero;fill:rgb(100%,100%,100%);fill-opacity:1;" d="M 483 529 C 483 533 477 533 477 529 C 477 525 483 525 483 529 Z M 483 529 "/>
<path style=" stroke:none;fill-rule:nonzero;fill:rgb(100%,100%,100%);fill-opacity:1;" d="M 503 529 C 503 533 497 533 497 529 C 497 525 503 525 503 529 Z M 503 529 "/>
<path style=" stroke:none;fill-rule:nonzero;fill:rgb(100%,100%,100%);fill-opacity:1;" d="M 523 529 C 523 533 517 533 517 529 C 517 525 523 525 523 529 Z M 523 529 "/>
<path style=" stroke:none;fill-rule:nonzero;fill:rgb(100%,100%,100%);fill-opacity:1;" d="M 543 529 C 543 533 537 533 537 529 C 537 525 543 525 543 529 Z M 543 529 "/>
<path style=" stroke:none;fill-rule:nonzero;fill:rgb(100%,100%,100%);fill-opacity:1;" d="M 563 529 C 563 533 557 533 557 529 C 557 525 563 525 563 529 Z M 563 529 "/>
<path style=" stroke:none;fill-rule:nonzero;fill:rgb(100%,100%,100%);fill-opacity:1;" d="M 583 529 C 583 533 577 533 577 529 C 577 525 583 525 583 529 Z M 583 529 "/>
<path style=" stroke:none;fill-rule:nonzero;fill:rgb(100%,100%,100%);fill-opacity:1;" d="M 603 529 C 603 533 597 533 597 529 C 597 525 603 525 603 529 Z M 603 529 "/>
<path style=" stroke:none;fill-rule:nonzero;fill:rgb(100%,100%,100%);fill-opacity:1;" d="M 623 529 C 623 533 617 533 617 529 C 617 525 623 525 623 529 Z M 623 529 "/>
<path style=" stroke:none;fill-rule:nonzero;fill:rgb(100%,100%,100%);fill-opacity:1;" d="M 643 529 C 643 533 637 533 637 529 C 637 525 643 525 643 529 Z M 643 529 "/>
<path style=" stroke:none;fill-rule:nonzero;fill:rgb(100%,100%,100%);fill-opacity:1;" d="M 663 529 C 663 533 657 533 657 529 C 657 525 663 525 663 529 Z M 663 529 "/>
<path style=" stroke:none;fill-rule:nonzero;fill:rgb(100%,100%,100%);fill-opacity:1;" d="M 683 529 C 683 533 677 533 677 529 C 677 525 683 525 683 529 Z M 683 529 "/>
<path style=" stroke:none;fill-rule:nonzero;fill:rgb(100%,100%,100%);fill-opacity:1;" d="M 703 529 C 703 533 697 533 697 529 C 697 525 703 525 703 529 Z M 703 529 "/>
<path style=" stroke:none;fill-rule:nonzero;fill:rgb(100%,100%,100%);fill-opacity:1;" d="M 723 529 C 723 533 717 533 717 529 C 717 525 723 525 723 529 Z M 723 529 "/>
<path style=" stroke:none;fill-rule:nonzero;fill:rgb(100%,100%,100%);fill-opacity:1;" d="M 743 529 C 743 533 737 533 737 529 C 737 525 743 525 743 529 Z M 743 529 "/>
<path style=" stroke:none;fill-rule:nonzero;fill:rgb(100%,100%,100%);fill-opacity:1;" d="M 763 529 C 763 533 757 533 757 529 C 757 525 763 525 763 529 Z M 763 529 "/>
<path style=" stroke:none;fill-rule:nonzero;fill:rgb(100%,100%,100%);fill-opacity:1;" d="M 783 529 C 783 533 777 533 777 529 C 777 525 783 525 783 529 Z M 783 529 "/>
<path style=" stroke:none;fill-rule:nonzero;fill:rgb(100%,100%,100%);fill-opacity:1;" d="M 803 529 C 803 533 797 533 797 529 C 797 525 803 525 803 529 Z M 803 529 "/>
<path style=" stroke:none;fill-rule:nonzero;fill:rgb(100%,100%,100%);fill-opacity:1;" d="M 823 529 C 823 533 817 533 817 529 C 817 525 823 525 823 529 Z M 823 529 "/>
<path style=" stroke:none;fill-rule:nonzero;fill:rgb(100%,100%,100%);fill-opacity:1;" d="M 843 529 C 843 533 837 533 837 529 C 837 525 843 525 843 529 Z M 843 529 "/>
<path style=" stroke:none;fill-rule:nonzero;fill:rgb(100%,100%,100%);fill-opacity:1;" d="M 443 549 C 443 553 437 553 437 549 C 437 545 443 545 443 549 Z M 443 549 "/>
<path style=" stroke:none;fill-rule:nonzero;fill:rgb(100%,100%,100%);fill-opacity:1;" d="M 463 549 C 463 553 457 553 457 549 C 457 545 463 545 463 549 Z M 463 549 "/>
<path style=" stroke:none;fill-rule:nonzero;fill:rgb(100%,100%,100%);fill-opacity:1;" d="M 483 549 C 483 553 477 553 477 549 C 477 545 483 545 483 549 Z M 483 549 "/>
<path style=" stroke:none;fill-rule:nonzero;fill:rgb(100%,100%,100%);fill-opacity:1;" d="M 503 549 C 503 553 497 553 497 549 C 497 545 503 545 503 549 Z M 503 549 "/>
<path style=" stroke:none;fill-rule:nonzero;fill:rgb(100%,100%,100%);fill-opacity:1;" d="M 523 549 C 523 553 517 553 517 549 C 517 545 523 545 523 549 Z M 523 549 "/>
<path style=" stroke:none;fill-rule:nonzero;fill:rgb(100%,100%,100%);fill-opacity:1;" d="M 543 549 C 543 553 537 553 537 549 C 537 545 543 545 543 549 Z M 543 549 "/>
<path style=" stroke:none;fill-rule:nonzero;fill:rgb(100%,100%,100%);fill-opacity:1;" d="M 563 549 C 563 553 557 553 557 549 C 557 545 563 545 563 549 Z M 563 549 "/>
<path style=" stroke:none;fill-rule:nonzero;fill:rgb(100%,100%,100%);fill-opacity:1;" d="M 583 549 C 583 553 577 553 577 549 C 577 545 583 545 583 549 Z M 583 549 "/>
<path style=" stroke:none;fill-rule:nonzero;fill:rgb(100%,100%,100%);fill-opacity:1;" d="M 603 549 C 603 553 597 553 597 549 C 597 545 603 545 603 549 Z M 603 549 "/>
<path style=" stroke:none;fill-rule:nonzero;fill:rgb(100%,100%,100%);fill-opacity:1;" d="M 623 549 C 623 553 617 553 617 549 C 617 545 623 545 623 549 Z M 623 549 "/>
<path style=" stroke:none;fill-rule:nonzero;fill:rgb(100%,100%,100%);fill-opacity:1;" d="M 643 549 C 643 553 637 553 637 549 C 637 545 643 545 643 549 Z M 643 549 "/>
<path style=" stroke:none;fill-rule:nonzero;fill:rgb(100%,100%,100%);fill-opacity:1;" d="M 663 549 C 663 553 657 553 657 549 C 657 545 663 545 663 549 Z M 663 549 "/>
<path style=" stroke:none;fill-rule:nonzero;fill:rgb(100%,100%,100%);fill-opacity:1;" d="M 683 549 C 683 553 677 553 677 549 C 677 545 683 545 683 549 Z M 683 549 "/>
<path style=" stroke:none;fill-rule:nonzero;fill:rgb(100%,100%,100%);fill-opacity:1;" d="M 703 549 C 703 553 697 553 697 549 C 697 545 703 545 703 549 Z M 703 549 "/>
<path style=" stroke:none;fill-rule:nonzero;fill:rgb(100%,100%,100%);fill-opacity:1;" d="M 723 549 C 723 553 717 553 717 549 C 717 545 723 545 723 549 Z M 723 549 "/>
<path style=" stroke:none;fill-rule:nonzero;fill:rgb(100%,100%,100%);fill-opacity:1;" d="M 743 549 C 743 553 737 553 737 549 C 737 545 743 545 743 549 Z M 743 549 "/>
<path style=" stroke:none;fill-rule:nonzero;fill:rgb(100%,100%,100%);fill-opacity:1;" d="M 763 549 C 763 553 757 553 757 549 C 757 545 763 545 763 549 Z M 763 549 "/>
<path style=" stroke:none;fill-rule:nonzero;fill:rgb(100%,100%,100%);fill-opacity:1;" d="M 783 549 C 783 553 777 553 777 549 C 777 545 783 545 783 549 Z M 783 549 "/>
<path style=" stroke:none;fill-rule:nonzero;fill:rgb(100%,100%,100%);fill-opacity:1;" d="M 803 549 C 803 553 797 553 797 549 C 797 545 803 545 803 549 Z M 803 549 "/>
<path style=" stroke:none;fill-rule:nonzero;fill:rgb(100%,100%,100%);fill-opacity:1;" d="M 823 549 C 823 553 817 553 817 549 C 817 545 823 545 823 549 Z M 823 549 "/>
<path style=" stroke:none;fill-rule:nonzero;fill:rgb(100%,100%,100%);fill-opacity:1;" d="M 843 549 C 843 553 837 553 837 549 C 837 545 843 545 843 549 Z M 843 549 "/>
<path style=" stroke:none;fill-rule:nonzero;fill:rgb(100%,100%,100%);fill-opacity:1;" d="M 443 569 C 443 573 437 573 437 569 C 437 565 443 565 443 569 Z M 443 569 "/>
<path style=" stroke:none;fill-rule:nonzero;fill:rgb(100%,100%,100%);fill-opacity:1;" d="M 463 569 C 463 573 457 573 457 569 C 457 565 463 565 463 569 Z M 463 569 "/>
<path style=" stroke:none;fill-rule:nonzero;fill:rgb(100%,100%,100%);fill-opacity:1;" d="M 483 569 C 483 573 477 573 477 569 C 477 565 483 565 483 569 Z M 483 569 "/>
<path style=" stroke:none;fill-rule:nonzero;fill:rgb(100%,100%,100%);fill-opacity:1;" d="M 503 569 C 503 573 497 573 497 569 C 497 565 503 565 503 569 Z M 503 569 "/>
<path style=" stroke:none;fill-rule:nonzero;fill:rgb(100%,100%,100%);fill-opacity:1;" d="M 523 569 C 523 573 517 573 517 569 C 517 565 523 565 523 569 Z M 523 569 "/>
<path style=" stroke:none;fill-rule:nonzero;fill:rgb(100%,100%,100%);fill-opacity:1;" d="M 543 569 C 543 573 537 573 537 569 C 537 565 543 565 543 569 Z M 543 569 "/>
<path style=" stroke:none;fill-rule:nonzero;fill:rgb(100%,100%,100%);fill-opacity:1;" d="M 563 569 C 563 573 557 573 557 569 C 557 565 563 565 563 569 Z M 563 569 "/>
<path style=" stroke:none;fill-rule:nonzero;fill:rgb(100%,100%,100%);fill-opacity:1;" d="M 583 569 C 583 573 577 573 577 569 C 577 565 583 565 583 569 Z M 583 569 "/>
<path style=" stroke:none;fill-rule:nonzero;fill:rgb(100%,100%,100%);fill-opacity:1;" d="M 603 569 C 603 573 597 573 597 569 C 597 565 603 565 603 569 Z M 603 569 "/>
<path style=" stroke:none;fill-rule:nonzero;fill:rgb(100%,100%,100%);fill-opacity:1;" d="M 623 569 C 623 573 617 573 617 569 C 617 565 623 565 623 569 Z M 623 569 "/>
<path style=" stroke:none;fill-rule:nonzero;fill:rgb(100%,100%,100%);fill-opacity:1;" d="M 643 569 C 643 573 637 573 637 569 C 637 565 643 565 643 569 Z M 643 569 "/>
<path style=" stroke:none;fill-rule:nonzero;fill:rgb(100%,100%,100%);fill-opacity:1;" d="M 663 569 C 663 573 657 573 657 569 C 657 565 663 565 663 569 Z M 663 569 "/>
<path style=" stroke:none;fill-rule:nonzero;fill:rgb(100%,100%,100%);fill-opacity:1;" d="M 683 569 C 683 573 677 573 677 569 C 677 565 683 565 683 569 Z M 683 569 "/>
<path style=" stroke:none;fill-rule:nonzero;fill:rgb(100%,100%,100%);fill-opacity:1;" d="M 703 569 C 703 573 697 573 697 569 C 697 565 703 565 703 569 Z M 703 569 "/>
<path style=" stroke:none;fill-rule:nonzero;fill:rgb(100%,100%,100%);fill-opacity:1;" d="M 723 569 C 723 573 717 573 717 569 C 717 565 723 565 723 569 Z M 723 569 "/>
<path style=" stroke:none;fill-rule:nonzero;fill:rgb(100%,100%,100%);fill-opacity:1;" d="M 743 569 C 743 573 737 573 737 569 C 737 565 743 565 743 569 Z M 743 569 "/>
<path style=" stroke:none;fill-rule:nonzero;fill:rgb(100%,100%,100%);fill-opacity:1;" d="M 763 569 C 763 573 757 573 757 569 C 757 565 763 565 763 569 Z M 763 569 "/>
<path style=" stroke:none;fill-rule:nonzero;fill:rgb(100%,100%,100%);fill-opacity:1;" d="M 783 569 C 783 573 777 573 777 569 C 777 565 783 565 783 569 Z M 783 569 "/>
<path style=" stroke:none;fill-rule:nonzero;fill:rgb(100%,100%,100%);fill-opacity:1;" d="M 803 569 C 803 573 797 573 797 569 C 797 565 803 565 803 569 Z M 803 569 "/>
<path style=" stroke:none;fill-rule:nonzero;fill:rgb(100%,100%,100%);fill-opacity:1;" d="M 823 569 C 823 573 817 573 817 569 C 817 565 823 565 823 569 Z M 823 569 "/>
<path style=" stroke:none;fill-rule:nonzero;fill:rgb(100%,100%,100%);fill-opacity:1;" d="M 843 569 C 843 573 837 573 837 569 C 837 565 843 565 843 569 Z M 843 569 "/>
<path style=" stroke:none;fill-rule:nonzero;fill:rgb(100%,100%,100%);fill-opacity:1;" d="M 443 589 C 443 593 437 593 437 589 C 437 585 443 585 443 589 Z M 443 589 "/>
<path style=" stroke:none;fill-rule:nonzero;fill:rgb(100%,100%,100%);fill-opacity:1;" d="M 463 589 C 463 593 457 593 457 589 C 457 585 463 585 463 589 Z M 463 589 "/>
<path style=" stroke:none;fill-rule:nonzero;fill:rgb(100%,100%,100%);fill-opacity:1;" d="M 483 589 C 483 593 477 593 477 589 C 477 585 483 585 483 589 Z M 483 589 "/>
<path style=" stroke:none;fill-rule:nonzero;fill:rgb(100%,100%,100%);fill-opacity:1;" d="M 503 589 C 503 593 497 593 497 589 C 497 585 503 585 503 589 Z M 503 589 "/>
<path style=" stroke:none;fill-rule:nonzero;fill:rgb(100%,100%,100%);fill-opacity:1;" d="M 523 589 C 523 593 517 593 517 589 C 517 585 523 585 523 589 Z M 523 589 "/>
<path style=" stroke:none;fill-rule:nonzero;fill:rgb(100%,100%,100%);fill-opacity:1;" d="M 543 589 C 543 593 537 593 537 589 C 537 585 543 585 543 589 Z M 543 589 "/>
<path style=" stroke:none;fill-rule:nonzero;fill:rgb(100%,100%,100%);fill-opacity:1;" d="M 563 589 C 563 593 557 593 557 589 C 557 585 563 585 563 589 Z M 563 589 "/>
<path style=" stroke:none;fill-rule:nonzero;fill:rgb(100%,100%,100%);fill-opacity:1;" d="M 583 589 C 583 593 577 593 577 589 C 577 585 583 585 583 589 Z M 583 589 "/>
<path style=" stroke:none;fill-rule:nonzero;fill:rgb(100%,100%,100%);fill-opacity:1;" d="M 603 589 C 603 593 597 593 597 589 C 597 585 603 585 603 589 Z M 603 589 "/>
<path style=" stroke:none;fill-rule:nonzero;fill:rgb(100%,100%,100%);fill-opacity:1;" d="M 623 589 C 623 593 617 593 617 589 C 617 585 623 585 623 589 Z M 623 589 "/>
<path style=" stroke:none;fill-rule:nonzero;fill:rgb(100%,100%,100%);fill-opacity:1;" d="M 643 589 C 643 593 637 593 637 589 C 637 585 643 585 643 589 Z M 643 589 "/>
<path style=" stroke:none;fill-rule:nonzero;fill:rgb(100%,100%,100%);fill-opacity:1;" d="M 663 589 C 663 593 657 593 657 589 C 657 585 663 585 663 589 Z M 663 589 "/>
<path style=" stroke:none;fill-rule:nonzero;fill:rgb(100%,100%,100%);fill-opacity:1;" d="M 683 589 C 683 593 677 593 677 589 C 677 585 683 585 683 589 Z M 683 589 "/>
<path style=" stroke:none;fill-rule:nonzero;fill:rgb(100%,100%,100%);fill-opacity:1;" d="M 703 589 C 703 593 697 593 697 589 C 697 585 703 585 703 589 Z M 703 589 "/>
<path style=" stroke:none;fill-rule:nonzero;fill:rgb(100%,100%,100%);fill-opacity:1;" d="M 723 589 C 723 593 717 593 717 589 C 717 585 723 585 723 589 Z M 723 589 "/>
<path style=" stroke:none;fill-rule:nonzero;fill:rgb(100%,100%,100%);fill-opacity:1;" d="M 743 589 C 743 593 737 593 737 589 C 737 585 743 585 743 589 Z M 743 589 "/>
<path style=" stroke:none;fill-rule:nonzero;fill:rgb(100%,100%,100%);fill-opacity:1;" d="M 763 589 C 763 593 757 593 757 589 C 757 585 763 585 763 589 Z M 763 589 "/>
<path style=" stroke:none;fill-rule:nonzero;fill:rgb(100%,100%,100%);fill-opacity:1;" d="M 783 589 C 783 593 777 593 777 589 C 777 585 783 585 783 589 Z M 783 589 "/>
<path style=" stroke:none;fill-rule:nonzero;fill:rgb(100%,100%,100%);fill-opacity:1;" d="M 803 589 C 803 593 797 593 797 589 C 797 585 803 585 803 589 Z M 803 589 "/>
<path style=" stroke:none;fill-rule:nonzero;fill:rgb(100%,100%,100%);fill-opacity:1;" d="M 823 589 C 823 593 817 593 817 589 C 817 585 823 585 823 589 Z M 823 589 "/>
<path style=" stroke:none;fill-rule:nonzero;fill:rgb(100%,100%,100%);fill-opacity:1;" d="M 843 589 C 843 593 837 593 837 589 C 837 585 843 585 843 589 Z M 843 589 "/>
</g>
</svg>
