<?xml version="1.0" encoding="UTF-8"?>
<svg xmlns="http://www.w3.org/2000/svg" xmlns:xlink="http://www.w3.org/1999/xlink" width="1280pt" height="778pt" viewBox="0 0 1280 778" version="1.1">
<g id="surface9">
<rect x="0" y="0" width="1280" height="778" style="fill:rgb(78.431373%,78.431373%,78.431373%);fill-opacity:1;stroke:none;"/>
<rect x="0" y="0" width="1280" height="778" style="fill:rgb(0%,0%,0%);fill-opacity:1;stroke:none;"/>
<path style=" stroke:none;fill-rule:nonzero;fill:rgb(100%,100%,100%);fill-opacity:1;" d="M 449.667969 195.667969 C 449.667969 199.667969 443.667969 199.667969 443.667969 195.667969 C 443.667969 191.667969 449.667969 191.667969 449.667969 195.667969 Z M 449.667969 195.667969 "/>
<path style=" stroke:none;fill-rule:nonzero;fill:rgb(100%,100%,100%);fill-opacity:1;" d="M 471 193 C 471 197 465 197 465 193 C 465 189 471 189 471 193 Z M 471 193 "/>
<path style=" stroke:none;fill-rule:nonzero;fill:rgb(100%,100%,100%);fill-opacity:1;" d="M 489.667969 195.667969 C 489.667969 199.667969 483.667969 199.667969 483.667969 195.667969 C 483.667969 191.667969 489.667969 191.667969 489.667969 195.667969 Z M 489.667969 195.667969 "/>
<path style=" stroke:none;fill-rule:nonzero;fill:rgb(100%,100%,100%);fill-opacity:1;" d="M 511 193 C 511 197 505 197 505 193 C 505 189 511 189 511 193 Z M 511 193 "/>
<path style=" stroke:none;fill-rule:nonzero;fill:rgb(100%,100%,100%);fill-opacity:1;" d="M 529.667969 195.667969 C 529.667969 199.667969 523.667969 199.667969 523.667969 195.667969 C 523.667969 191.667969 529.667969 191.667969 529.667969 195.667969 Z M 529.667969 195.667969 "/>
<path style=" stroke:none;fill-rule:nonzero;fill:rgb(100%,100%,100%);fill-opacity:1;" d="M 551 193 C 551 197 545 197 545 193 C 545 189 551 189 551 193 Z M 551 193 "/>
<path style=" stroke:none;fill-rule:nonzero;fill:rgb(100%,100%,100%);fill-opacity:1;" d="M 569.667969 195.667969 C 569.667969 199.667969 563.667969 199.667969 563.667969 195.667969 C 563.667969 191.667969 569.667969 191.667969 569.667969 195.667969 Z M 569.667969 195.667969 "/>
<path style=" stroke:none;fill-rule:nonzero;fill:rgb(100%,100%,100%);fill-opacity:1;" d="M 591 193 C 591 197 585 197 585 193 C 585 189 591 189 591 193 Z M 591 193 "/>
<path style=" stroke:none;fill-rule:nonzero;fill:rgb(100%,100%,100%);fill-opacity:1;" d="M 609.667969 195.667969 C 609.667969 199.667969 603.667969 199.667969 603.667969 195.667969 C 603.667969 191.667969 609.667969 191.667969 609.667969 195.667969 Z M 609.667969 195.667969 "/>
<path style=" stroke:none;fill-rule:nonzero;fill:rgb(100%,100%,100%);fill-opacity:1;" d="M 631 193 C 631 197 625 197 625 193 C 625 189 631 189 631 193 Z M 631 193 "/>
<path style=" stroke:none;fill-rule:nonzero;fill:rgb(100%,100%,100%);fill-opacity:1;" d="M 649.667969 195.667969 C 649.667969 199.667969 643.667969 199.667969 643.667969 195.667969 C 643.667969 191.667969 649.667969 191.667969 649.667969 195.667969 Z M 649.667969 195.667969 "/>
<path style=" stroke:none;fill-rule:nonzero;fill:rgb(100%,100%,100%);fill-opacity:1;" d="M 671 193 C 671 197 665 197 665 193 C 665 189 671 189 671 193 Z M 671 193 "/>
<path style=" stroke:none;fill-rule:nonzero;fill:rgb(100%,100%,100%);fill-opacity:1;" d="M 689.667969 195.667969 C 689.667969 199.667969 683.667969 199.667969 683.667969 195.667969 C 683.667969 191.667969 689.667969 191.667969 689.667969 195.667969 Z M 689.667969 195.667969 "/>
<path style=" stroke:none;fill-rule:nonzero;fill:rgb(100%,100%,100%);fill-opacity:1;" d="M 711 193 C 711 197 705 197 705 193 C 705 189 711 189 711 193 Z M 711 193 "/>
<path style=" stroke:none;fill-rule:nonzero;fill:rgb(100%,100%,100%);fill-opacity:1;" d="M 729.667969 195.667969 C 729.667969 199.667969 723.667969 199.667969 723.667969 195.667969 C 723.667969 191.667969 729.667969 191.667969 729.667969 195.667969 Z M 729.667969 195.667969 "/>
<path style=" stroke:none;fill-rule:nonzero;fill:rgb(100%,100%,100%);fill-opacity:1;" d="M 751 193 C 751 197 745 197 745 193 C 745 189 751 189 751 193 Z M 751 193 "/>
<path style=" stroke:none;fill-rule:nonzero;fill:rgb(100%,100%,100%);fill-opacity:1;" d="M 769.667969 195.667969 C 769.667969 199.667969 763.667969 199.667969 763.667969 195.667969 C 763.667969 191.667969 769.667969 191.667969 769.667969 195.667969 Z M 769.667969 195.667969 "/>
<path style=" stroke:none;fill-rule:nonzero;fill:rgb(100%,100%,100%);fill-opacity:1;" d="M 791 193 C 791 197 785 197 785 193 C 785 189 791 189 791 193 Z M 791 193 "/>
<path style=" stroke:none;fill-rule:nonzero;fill:rgb(100%,100%,100%);fill-opacity:1;" d="M 809.667969 195.667969 C 809.667969 199.667969 803.667969 199.667969 803.667969 195.667969 C 803.667969 191.667969 809.667969 191.667969 809.667969 195.667969 Z M 809.667969 195.667969 "/>
<path style=" stroke:none;fill-rule:nonzero;fill:rgb(100%,100%,100%);fill-opacity:1;" d="M 831 193 C 831 197 825 197 825 193 C 825 189 831 189 831 193 Z M 831 193 "/>
<path style=" stroke:none;fill-rule:nonzero;fill:rgb(100%,100%,100%);fill-opacity:1;" d="M 447 217 C 447 221 441 221 441 217 C 441 213 447 213 447 217 Z M 447 217 "/>
<path style=" stroke:none;fill-rule:nonzero;fill:rgb(100%,100%,100%);fill-opacity:1;" d="M 463 209 C 463 213 457 213 457 209 C 457 205 463 205 463 209 Z M 463 209 "/>
<path style=" stroke:none;fill-rule:nonzero;fill:rgb(100%,100%,100%);fill-opacity:1;" d="M 487 217 C 487 221 481 221 481 217 C 481 213 487 213 487 217 Z M 487 217 "/>
<path style=" stroke:none;fill-rule:nonzero;fill:rgb(100%,100%,100%);fill-opacity:1;" d="M 503 209 C 503 213 497 213 497 209 C 497 205 503 205 503 209 Z M 503 209 "/>
<path style=" stroke:none;fill-rule:nonzero;fill:rgb(100%,100%,100%);fill-opacity:1;" d="M 527 217 C 527 221 521 221 521 217 C 521 213 527 213 527 217 Z M 527 217 "/>
<path style=" stroke:none;fill-rule:nonzero;fill:rgb(100%,100%,100%);fill-opacity:1;" d="M 543 209 C 543 213 537 213 537 209 C 537 205 543 205 543 209 Z M 543 209 "/>
<path style=" stroke:none;fill-rule:nonzero;fill:rgb(100%,100%,100%);fill-opacity:1;" d="M 567 217 C 567 221 561 221 561 217 C 561 213 567 213 567 217 Z M 567 217 "/>
<path style=" stroke:none;fill-rule:nonzero;fill:rgb(100%,100%,100%);fill-opacity:1;" d="M 583 209 C 583 213 577 213 577 209 C 577 205 583 205 583 209 Z M 583 209 "/>
<path style=" stroke:none;fill-rule:nonzero;fill:rgb(100%,100%,100%);fill-opacity:1;" d="M 607 217 C 607 221 601 221 601 217 C 601 213 607 213 607 217 Z M 607 217 "/>
<path style=" stroke:none;fill-rule:nonzero;fill:rgb(100%,100%,100%);fill-opacity:1;" d="M 623 209 C 623 213 617 213 617 209 C 617 205 623 205 623 209 Z M 623 209 "/>
<path style=" stroke:none;fill-rule:nonzero;fill:rgb(100%,100%,100%);fill-opacity:1;" d="M 647 217 C 647 221 641 221 641 217 C 641 213 647 213 647 217 Z M 647 217 "/>
<path style=" stroke:none;fill-rule:nonzero;fill:rgb(100%,100%,100%);fill-opacity:1;" d="M 663 209 C 663 213 657 213 657 209 C 657 205 663 205 663 209 Z M 663 209 "/>
<path style=" stroke:none;fill-rule:nonzero;fill:rgb(100%,100%,100%);fill-opacity:1;" d="M 687 217 C 687 221 681 221 681 217 C 681 213 687 213 687 217 Z M 687 217 "/>
<path style=" stroke:none;fill-rule:nonzero;fill:rgb(100%,100%,100%);fill-opacity:1;" d="M 703 209 C 703 213 697 213 697 209 C 697 205 703 205 703 209 Z M 703 209 "/>
<path style=" stroke:none;fill-rule:nonzero;fill:rgb(100%,100%,100%);fill-opacity:1;" d="M 727 217 C 727 221 721 221 721 217 C 721 213 727 213 727 217 Z M 727 217 "/>
<path style=" stroke:none;fill-rule:nonzero;fill:rgb(100%,100%,100%);fill-opacity:1;" d="M 743 209 C 743 213 737 213 737 209 C 737 205 743 205 743 209 Z M 743 209 "/>
<path style=" stroke:none;fill-rule:nonzero;fill:rgb(100%,100%,100%);fill-opacity:1;" d="M 767 217 C 767 221 761 221 761 217 C 761 213 767 213 767 217 Z M 767 217 "/>
<path style=" stroke:none;fill-rule:nonzero;fill:rgb(100%,100%,100%);fill-opacity:1;" d="M 783 209 C 783 213 777 213 777 209 C 777 205 783 205 783 209 Z M 783 209 "/>
<path style=" stroke:none;fill-rule:nonzero;fill:rgb(100%,100%,100%);fill-opacity:1;" d="M 807 217 C 807 221 801 221 801 217 C 801 213 807 213 807 217 Z M 807 217 "/>
<path style=" stroke:none;fill-rule:nonzero;fill:rgb(100%,100%,100%);fill-opacity:1;" d="M 823 209 C 823 213 817 213 817 209 C 817 205 823 205 823 209 Z M 823 209 "/>
<path style=" stroke:none;fill-rule:nonzero;fill:rgb(100%,100%,100%);fill-opacity:1;" d="M 449.667969 235.667969 C 449.667969 239.667969 443.667969 239.667969 443.667969 235.667969 C 443.667969 231.667969 449.667969 231.667969 449.667969 235.667969 Z M 449.667969 235.667969 "/>
<path style=" stroke:none;fill-rule:nonzero;fill:rgb(100%,100%,100%);fill-opacity:1;" d="M 471 233 C 471 237 465 237 465 233 C 465 229 471 229 471 233 Z M 471 233 "/>
<path style=" stroke:none;fill-rule:nonzero;fill:rgb(100%,100%,100%);fill-opacity:1;" d="M 489.667969 235.667969 C 489.667969 239.667969 483.667969 239.667969 483.667969 235.667969 C 483.667969 231.667969 489.667969 231.667969 489.667969 235.667969 Z M 489.667969 235.667969 "/>
<path style=" stroke:none;fill-rule:nonzero;fill:rgb(100%,100%,100%);fill-opacity:1;" d="M 511 233 C 511 237 505 237 505 233 C 505 229 511 229 511 233 Z M 511 233 "/>
<path style=" stroke:none;fill-rule:nonzero;fill:rgb(100%,100%,100%);fill-opacity:1;" d="M 529.667969 235.667969 C 529.667969 239.667969 523.667969 239.667969 523.667969 235.667969 C 523.667969 231.667969 529.667969 231.667969 529.667969 235.667969 Z M 529.667969 235.667969 "/>
<path style=" stroke:none;fill-rule:nonzero;fill:rgb(100%,100%,100%);fill-opacity:1;" d="M 551 233 C 551 237 545 237 545 233 C 545 229 551 229 551 233 Z M 551 233 "/>
<path style=" stroke:none;fill-rule:nonzero;fill:rgb(100%,100%,100%);fill-opacity:1;" d="M 569.667969 235.667969 C 569.667969 239.667969 563.667969 239.667969 563.667969 235.667969 C 563.667969 231.667969 569.667969 231.667969 569.667969 235.667969 Z M 569.667969 235.667969 "/>
<path style=" stroke:none;fill-rule:nonzero;fill:rgb(100%,100%,100%);fill-opacity:1;" d="M 591 233 C 591 237 585 237 585 233 C 585 229 591 229 591 233 Z M 591 233 "/>
<path style=" stroke:none;fill-rule:nonzero;fill:rgb(100%,100%,100%);fill-opacity:1;" d="M 609.667969 235.667969 C 609.667969 239.667969 603.667969 239.667969 603.667969 235.667969 C 603.667969 231.667969 609.667969 231.667969 609.667969 235.667969 Z M 609.667969 235.667969 "/>
<path style=" stroke:none;fill-rule:nonzero;fill:rgb(100%,100%,100%);fill-opacity:1;" d="M 631 233 C 631 237 625 237 625 233 C 625 229 631 229 631 233 Z M 631 233 "/>
<path style=" stroke:none;fill-rule:nonzero;fill:rgb(100%,100%,100%);fill-opacity:1;" d="M 649.667969 235.667969 C 649.667969 239.667969 643.667969 239.667969 643.667969 235.667969 C 643.667969 231.667969 649.667969 231.667969 649.667969 235.667969 Z M 649.667969 235.667969 "/>
<path style=" stroke:none;fill-rule:nonzero;fill:rgb(100%,100%,100%);fill-opacity:1;" d="M 671 233 C 671 237 665 237 665 233 C 665 229 671 229 671 233 Z M 671 233 "/>
<path style=" stroke:none;fill-rule:nonzero;fill:rgb(100%,100%,100%);fill-opacity:1;" d="M 689.667969 235.667969 C 689.667969 239.667969 683.667969 239.667969 683.667969 235.667969 C 683.667969 231.667969 689.667969 231.667969 689.667969 235.667969 Z M 689.667969 235.667969 "/>
<path style=" stroke:none;fill-rule:nonzero;fill:rgb(100%,100%,100%);fill-opacity:1;" d="M 711 233 C 711 237 705 237 705 233 C 705 229 711 229 711 233 Z M 711 233 "/>
<path style=" stroke:none;fill-rule:nonzero;fill:rgb(100%,100%,100%);fill-opacity:1;" d="M 729.667969 235.667969 C 729.667969 239.667969 723.667969 239.667969 723.667969 235.667969 C 723.667969 231.667969 729.667969 231.667969 729.667969 235.667969 Z M 729.667969 235.667969 "/>
<path style=" stroke:none;fill-rule:nonzero;fill:rgb(100%,100%,100%);fill-opacity:1;" d="M 751 233 C 751 237 745 237 745 233 C 745 229 751 229 751 233 Z M 751 233 "/>
<path style=" stroke:none;fill-rule:nonzero;fill:rgb(100%,100%,100%);fill-opacity:1;" d="M 769.667969 235.667969 C 769.667969 239.667969 763.667969 239.667969 763.667969 235.667969 C 763.667969 231.667969 769.667969 231.667969 769.667969 235.667969 Z M 769.667969 235.667969 "/>
<path style=" stroke:none;fill-rule:nonzero;fill:rgb(100%,100%,100%);fill-opacity:1;" d="M 791 233 C 791 237 785 237 785 233 C 785 229 791 229 791 233 Z M 791 233 "/>
<path style=" stroke:none;fill-rule:nonzero;fill:rgb(100%,100%,100%);fill-opacity:1;" d="M 809.667969 235.667969 C 809.667969 239.667969 803.667969 239.667969 803.667969 235.667969 C 803.667969 231.667969 809.667969 231.667969 809.667969 235.667969 Z M 809.667969 235.667969 "/>
<path style=" stroke:none;fill-rule:nonzero;fill:rgb(100%,100%,100%);fill-opacity:1;" d="M 831 233 C 831 237 825 237 825 233 C 825 229 831 229 831 233 Z M 831 233 "/>
<path style=" stroke:none;fill-rule:nonzero;fill:rgb(100%,100%,100%);fill-opacity:1;" d="M 447 257 C 447 261 441 261 441 257 C 441 253 447 253 447 257 Z M 447 257 "/>
<path style=" stroke:none;fill-rule:nonzero;fill:rgb(100%,100%,100%);fill-opacity:1;" d="M 463 249 C 463 253 457 253 457 249 C 457 245 463 245 463 249 Z M 463 249 "/>
<path style=" stroke:none;fill-rule:nonzero;fill:rgb(100%,100%,100%);fill-opacity:1;" d="M 487 257 C 487 261 481 261 481 257 C 481 253 487 253 487 257 Z M 487 257 "/>
<path style=" stroke:none;fill-rule:nonzero;fill:rgb(100%,100%,100%);fill-opacity:1;" d="M 503 249 C 503 253 497 253 497 249 C 497 245 503 245 503 249 Z M 503 249 "/>
<path style=" stroke:none;fill-rule:nonzero;fill:rgb(100%,100%,100%);fill-opacity:1;" d="M 527 257 C 527 261 521 261 521 257 C 521 253 527 253 527 257 Z M 527 257 "/>
<path style=" stroke:none;fill-rule:nonzero;fill:rgb(100%,100%,100%);fill-opacity:1;" d="M 543 249 C 543 253 537 253 537 249 C 537 245 543 245 543 249 Z M 543 249 "/>
<path style=" stroke:none;fill-rule:nonzero;fill:rgb(100%,100%,100%);fill-opacity:1;" d="M 567 257 C 567 261 561 261 561 257 C 561 253 567 253 567 257 Z M 567 257 "/>
<path style=" stroke:none;fill-rule:nonzero;fill:rgb(100%,100%,100%);fill-opacity:1;" d="M 583 249 C 583 253 577 253 577 249 C 577 245 583 245 583 249 Z M 583 249 "/>
<path style=" stroke:none;fill-rule:nonzero;fill:rgb(100%,100%,100%);fill-opacity:1;" d="M 607 257 C 607 261 601 261 601 257 C 601 253 607 253 607 257 Z M 607 257 "/>
<path style=" stroke:none;fill-rule:nonzero;fill:rgb(100%,100%,100%);fill-opacity:1;" d="M 623 249 C 623 253 617 253 617 249 C 617 245 623 245 623 249 Z M 623 249 "/>
<path style=" stroke:none;fill-rule:nonzero;fill:rgb(100%,100%,100%);fill-opacity:1;" d="M 647 257 C 647 261 641 261 641 257 C 641 253 647 253 647 257 Z M 647 257 "/>
<path style=" stroke:none;fill-rule:nonzero;fill:rgb(100%,100%,100%);fill-opacity:1;" d="M 663 249 C 663 253 657 253 657 249 C 657 245 663 245 663 249 Z M 663 249 "/>
<path style=" stroke:none;fill-rule:nonzero;fill:rgb(100%,100%,100%);fill-opacity:1;" d="M 687 257 C 687 261 681 261 681 257 C 681 253 687 253 687 257 Z M 687 257 "/>
<path style=" stroke:none;fill-rule:nonzero;fill:rgb(100%,100%,100%);fill-opacity:1;" d="M 703 249 C 703 253 697 253 697 249 C 697 245 703 245 703 249 Z M 703 249 "/>
<path style=" stroke:none;fill-rule:nonzero;fill:rgb(100%,100%,100%);fill-opacity:1;" d="M 727 257 C 727 261 721 261 721 257 C 721 253 727 253 727 257 Z M 727 257 "/>
<path style=" stroke:none;fill-rule:nonzero;fill:rgb(100%,100%,100%);fill-opacity:1;" d="M 743 249 C 743 253 737 253 737 249 C 737 245 743 245 743 249 Z M 743 249 "/>
<path style=" stroke:none;fill-rule:nonzero;fill:rgb(100%,100%,100%);fill-opacity:1;" d="M 767 257 C 767 261 761 261 761 257 C 761 253 767 253 767 257 Z M 767 257 "/>
<path style=" stroke:none;fill-rule:nonzero;fill:rgb(100%,100%,100%);fill-opacity:1;" d="M 783 249 C 783 253 777 253 777 249 C 777 245 783 245 783 249 Z M 783 249 "/>
<path style=" stroke:none;fill-rule:nonzero;fill:rgb(100%,100%,100%);fill-opacity:1;" d="M 807 257 C 807 261 801 261 801 257 C 801 253 807 253 807 257 Z M 807 257 "/>
<path style=" stroke:none;fill-rule:nonzero;fill:rgb(100%,100%,100%);fill-opacity:1;" d="M 823 249 C 823 253 817 253 817 249 C 817 245 823 245 823 249 Z M 823 249 "/>
<path style=" stroke:none;fill-rule:nonzero;fill:rgb(100%,100%,100%);fill-opacity:1;" d="M 449.667969 275.667969 C 449.667969 279.667969 443.667969 279.667969 443.667969 275.667969 C 443.667969 271.667969 449.667969 271.667969 449.667969 275.667969 Z M 449.667969 275.667969 "/>
<path style=" stroke:none;fill-rule:nonzero;fill:rgb(100%,100%,100%);fill-opacity:1;" d="M 471 273 C 471 277 465 277 465 273 C 465 269 471 269 471 273 Z M 471 273 "/>
<path style=" stroke:none;fill-rule:nonzero;fill:rgb(100%,100%,100%);fill-opacity:1;" d="M 489.667969 275.667969 C 489.667969 279.667969 483.667969 279.667969 483.667969 275.667969 C 483.667969 271.667969 489.667969 271.667969 489.667969 275.667969 Z M 489.667969 275.667969 "/>
<path style=" stroke:none;fill-rule:nonzero;fill:rgb(100%,100%,100%);fill-opacity:1;" d="M 511 273 C 511 277 505 277 505 273 C 505 269 511 269 511 273 Z M 511 273 "/>
<path style=" stroke:none;fill-rule:nonzero;fill:rgb(100%,100%,100%);fill-opacity:1;" d="M 529.667969 275.667969 C 529.667969 279.667969 523.667969 279.667969 523.667969 275.667969 C 523.667969 271.667969 529.667969 271.667969 529.667969 275.667969 Z M 529.667969 275.667969 "/>
<path style=" stroke:none;fill-rule:nonzero;fill:rgb(100%,100%,100%);fill-opacity:1;" d="M 551 273 C 551 277 545 277 545 273 C 545 269 551 269 551 273 Z M 551 273 "/>
<path style=" stroke:none;fill-rule:nonzero;fill:rgb(100%,100%,100%);fill-opacity:1;" d="M 569.667969 275.667969 C 569.667969 279.667969 563.667969 279.667969 563.667969 275.667969 C 563.667969 271.667969 569.667969 271.667969 569.667969 275.667969 Z M 569.667969 275.667969 "/>
<path style=" stroke:none;fill-rule:nonzero;fill:rgb(100%,100%,100%);fill-opacity:1;" d="M 591 273 C 591 277 585 277 585 273 C 585 269 591 269 591 273 Z M 591 273 "/>
<path style=" stroke:none;fill-rule:nonzero;fill:rgb(100%,100%,100%);fill-opacity:1;" d="M 609.667969 275.667969 C 609.667969 279.667969 603.667969 279.667969 603.667969 275.667969 C 603.667969 271.667969 609.667969 271.667969 609.667969 275.667969 Z M 609.667969 275.667969 "/>
<path style=" stroke:none;fill-rule:nonzero;fill:rgb(100%,100%,100%);fill-opacity:1;" d="M 631 273 C 631 277 625 277 625 273 C 625 269 631 269 631 273 Z M 631 273 "/>
<path style=" stroke:none;fill-rule:nonzero;fill:rgb(100%,100%,100%);fill-opacity:1;" d="M 649.667969 275.667969 C 649.667969 279.667969 643.667969 279.667969 643.667969 275.667969 C 643.667969 271.667969 649.667969 271.667969 649.667969 275.667969 Z M 649.667969 275.667969 "/>
<path style=" stroke:none;fill-rule:nonzero;fill:rgb(100%,100%,100%);fill-opacity:1;" d="M 671 273 C 671 277 665 277 665 273 C 665 269 671 269 671 273 Z M 671 273 "/>
<path style=" stroke:none;fill-rule:nonzero;fill:rgb(100%,100%,100%);fill-opacity:1;" d="M 689.667969 275.667969 C 689.667969 279.667969 683.667969 279.667969 683.667969 275.667969 C 683.667969 271.667969 689.667969 271.667969 689.667969 275.667969 Z M 689.667969 275.667969 "/>
<path style=" stroke:none;fill-rule:nonzero;fill:rgb(100%,100%,100%);fill-opacity:1;" d="M 711 273 C 711 277 705 277 705 273 C 705 269 711 269 711 273 Z M 711 273 "/>
<path style=" stroke:none;fill-rule:nonzero;fill:rgb(100%,100%,100%);fill-opacity:1;" d="M 729.667969 275.667969 C 729.667969 279.667969 723.667969 279.667969 723.667969 275.667969 C 723.667969 271.667969 729.667969 271.667969 729.667969 275.667969 Z M 729.667969 275.667969 "/>
<path style=" stroke:none;fill-rule:nonzero;fill:rgb(100%,100%,100%);fill-opacity:1;" d="M 751 273 C 751 277 745 277 745 273 C 745 269 751 269 751 273 Z M 751 273 "/>
<path style=" stroke:none;fill-rule:nonzero;fill:rgb(100%,100%,100%);fill-opacity:1;" d="M 769.667969 275.667969 C 769.667969 279.667969 763.667969 279.667969 763.667969 275.667969 C 763.667969 271.667969 769.667969 271.667969 769.667969 275.667969 Z M 769.667969 275.667969 "/>
<path style=" stroke:none;fill-rule:nonzero;fill:rgb(100%,100%,100%);fill-opacity:1;" d="M 791 273 C 791 277 785 277 785 273 C 785 269 791 269 791 273 Z M 791 273 "/>
<path style=" stroke:none;fill-rule:nonzero;fill:rgb(100%,100%,100%);fill-opacity:1;" d="M 809.667969 275.667969 C 809.667969 279.667969 803.667969 279.667969 803.667969 275.667969 C 803.667969 271.667969 809.667969 271.667969 809.667969 275.667969 Z M 809.667969 275.667969 "/>
<path style=" stroke:none;fill-rule:nonzero;fill:rgb(100%,100%,100%);fill-opacity:1;" d="M 831 273 C 831 277 825 277 825 273 C 825 269 831 269 831 273 Z M 831 273 "/>
<path style=" stroke:none;fill-rule:nonzero;fill:rgb(100%,100%,100%);fill-opacity:1;" d="M 447 297 C 447 301 441 301 441 297 C 441 293 447 293 447 297 Z M 447 297 "/>
<path style=" stroke:none;fill-rule:nonzero;fill:rgb(100%,100%,100%);fill-opacity:1;" d="M 463 289 C 463 293 457 293 457 289 C 457 285 463 285 463 289 Z M 463 289 "/>
<path style=" stroke:none;fill-rule:nonzero;fill:rgb(100%,100%,100%);fill-opacity:1;" d="M 487 297 C 487 301 481 301 481 297 C 481 293 487 293 487 297 Z M 487 297 "/>
<path style=" stroke:none;fill-rule:nonzero;fill:rgb(100%,100%,100%);fill-opacity:1;" d="M 503 289 C 503 293 497 293 497 289 C 497 285 503 285 503 289 Z M 503 289 "/>
<path style=" stroke:none;fill-rule:nonzero;fill:rgb(100%,100%,100%);fill-opacity:1;" d="M 527 297 C 527 301 521 301 521 297 C 521 293 527 293 527 297 Z M 527 297 "/>
<path style=" stroke:none;fill-rule:nonzero;fill:rgb(100%,100%,100%);fill-opacity:1;" d="M 543 289 C 543 293 537 293 537 289 C 537 285 543 285 543 289 Z M 543 289 "/>
<path style=" stroke:none;fill-rule:nonzero;fill:rgb(100%,100%,100%);fill-opacity:1;" d="M 567 297 C 567 301 561 301 561 297 C 561 293 567 293 567 297 Z M 567 297 "/>
<path style=" stroke:none;fill-rule:nonzero;fill:rgb(100%,100%,100%);fill-opacity:1;" d="M 583 289 C 583 293 577 293 577 289 C 577 285 583 285 583 289 Z M 583 289 "/>
<path style=" stroke:none;fill-rule:nonzero;fill:rgb(100%,100%,100%);fill-opacity:1;" d="M 607 297 C 607 301 601 301 601 297 C 601 293 607 293 607 297 Z M 607 297 "/>
<path style=" stroke:none;fill-rule:nonzero;fill:rgb(100%,100%,100%);fill-opacity:1;" d="M 623 289 C 623 293 617 293 617 289 C 617 285 623 285 623 289 Z M 623 289 "/>
<path style=" stroke:none;fill-rule:nonzero;fill:rgb(100%,100%,100%);fill-opacity:1;" d="M 647 297 C 647 301 641 301 641 297 C 641 293 647 293 647 297 Z M 647 297 "/>
<path style=" stroke:none;fill-rule:nonzero;fill:rgb(100%,100%,100%);fill-opacity:1;" d="M 663 289 C 663 293 657 293 657 289 C 657 285 663 285 663 289 Z M 663 289 "/>
<path style=" stroke:none;fill-rule:nonzero;fill:rgb(100%,100%,100%);fill-opacity:1;" d="M 687 297 C 687 301 681 301 681 297 C 681 293 687 293 687 297 Z M 687 297 "/>
<path style=" stroke:none;fill-rule:nonzero;fill:rgb(100%,100%,100%);fill-opacity:1;" d="M 703 289 C 703 293 697 293 697 289 C 697 285 703 285 703 289 Z M 703 289 "/>
<path style=" stroke:none;fill-rule:nonzero;fill:rgb(100%,100%,100%);fill-opacity:1;" d="M 727 297 C 727 301 721 301 721 297 C 721 293 727 293 727 297 Z M 727 297 "/>
<path style=" stroke:none;fill-rule:nonzero;fill:rgb(100%,100%,100%);fill-opacity:1;" d="M 743 289 C 743 293 737 293 737 289 C 737 285 743 285 743 289 Z M 743 289 "/>
<path style=" stroke:none;fill-rule:nonzero;fill:rgb(100%,100%,100%);fill-opacity:1;" d="M 767 297 C 767 301 761 301 761 297 C 761 293 767 293 767 297 Z M 767 297 "/>
<path style=" stroke:none;fill-rule:nonzero;fill:rgb(100%,100%,100%);fill-opacity:1;" d="M 783 289 C 783 293 777 293 777 289 C 777 285 783 285 783 289 Z M 783 289 "/>
<path style=" stroke:none;fill-rule:nonzero;fill:rgb(100%,100%,100%);fill-opacity:1;" d="M 807 297 C 807 301 801 301 801 297 C 801 293 807 293 807 297 Z M 807 297 "/>
<path style=" stroke:none;fill-rule:nonzero;fill:rgb(100%,100%,100%);fill-opacity:1;" d="M 823 289 C 823 293 817 293 817 289 C 817 285 823 285 823 289 Z M 823 289 "/>
<path style=" stroke:none;fill-rule:nonzero;fill:rgb(100%,100%,100%);fill-opacity:1;" d="M 449.667969 315.667969 C 449.667969 319.667969 443.667969 319.667969 443.667969 315.667969 C 443.667969 311.667969 449.667969 311.667969 449.667969 315.667969 Z M 449.667969 315.667969 "/>
<path style=" stroke:none;fill-rule:nonzero;fill:rgb(100%,100%,100%);fill-opacity:1;" d="M 471 313 C 471 317 465 317 465 313 C 465 309 471 309 471 313 Z M 471 313 "/>
<path style=" stroke:none;fill-rule:nonzero;fill:rgb(100%,100%,100%);fill-opacity:1;" d="M 489.667969 315.667969 C 489.667969 319.667969 483.667969 319.667969 483.667969 315.667969 C 483.667969 311.667969 489.667969 311.667969 489.667969 315.667969 Z M 489.667969 315.667969 "/>
<path style=" stroke:none;fill-rule:nonzero;fill:rgb(100%,100%,100%);fill-opacity:1;" d="M 511 313 C 511 317 505 317 505 313 C 505 309 511 309 511 313 Z M 511 313 "/>
<path style=" stroke:none;fill-rule:nonzero;fill:rgb(100%,100%,100%);fill-opacity:1;" d="M 529.667969 315.667969 C 529.667969 319.667969 523.667969 319.667969 523.667969 315.667969 C 523.667969 311.667969 529.667969 311.667969 529.667969 315.667969 Z M 529.667969 315.667969 "/>
<path style=" stroke:none;fill-rule:nonzero;fill:rgb(100%,100%,100%);fill-opacity:1;" d="M 551 313 C 551 317 545 317 545 313 C 545 309 551 309 551 313 Z M 551 313 "/>
<path style=" stroke:none;fill-rule:nonzero;fill:rgb(100%,100%,100%);fill-opacity:1;" d="M 569.667969 315.667969 C 569.667969 319.667969 563.667969 319.667969 563.667969 315.667969 C 563.667969 311.667969 569.667969 311.667969 569.667969 315.667969 Z M 569.667969 315.667969 "/>
<path style=" stroke:none;fill-rule:nonzero;fill:rgb(100%,100%,100%);fill-opacity:1;" d="M 591 313 C 591 317 585 317 585 313 C 585 309 591 309 591 313 Z M 591 313 "/>
<path style=" stroke:none;fill-rule:nonzero;fill:rgb(100%,100%,100%);fill-opacity:1;" d="M 609.667969 315.667969 C 609.667969 319.667969 603.667969 319.667969 603.667969 315.667969 C 603.667969 311.667969 609.667969 311.667969 609.667969 315.667969 Z M 609.667969 315.667969 "/>
<path style=" stroke:none;fill-rule:nonzero;fill:rgb(100%,100%,100%);fill-opacity:1;" d="M 631 313 C 631 317 625 317 625 313 C 625 309 631 309 631 313 Z M 631 313 "/>
<path style=" stroke:none;fill-rule:nonzero;fill:rgb(100%,100%,100%);fill-opacity:1;" d="M 649.667969 315.667969 C 649.667969 319.667969 643.667969 319.667969 643.667969 315.667969 C 643.667969 311.667969 649.667969 311.667969 649.667969 315.667969 Z M 649.667969 315.667969 "/>
<path style=" stroke:none;fill-rule:nonzero;fill:rgb(100%,100%,100%);fill-opacity:1;" d="M 671 313 C 671 317 665 317 665 313 C 665 309 671 309 671 313 Z M 671 313 "/>
<path style=" stroke:none;fill-rule:nonzero;fill:rgb(100%,100%,100%);fill-opacity:1;" d="M 689.667969 315.667969 C 689.667969 319.667969 683.667969 319.667969 683.667969 315.667969 C 683.667969 311.667969 689.667969 311.667969 689.667969 315.667969 Z M 689.667969 315.667969 "/>
<path style=" stroke:none;fill-rule:nonzero;fill:rgb(100%,100%,100%);fill-opacity:1;" d="M 711 313 C 711 317 705 317 705 313 C 705 309 711 309 711 313 Z M 711 313 "/>
<path style=" stroke:none;fill-rule:nonzero;fill:rgb(100%,100%,100%);fill-opacity:1;" d="M 729.667969 315.667969 C 729.667969 319.667969 723.667969 319.667969 723.667969 315.667969 C 723.667969 311.667969 729.667969 311.667969 729.667969 315.667969 Z M 729.667969 315.667969 "/>
<path style=" stroke:none;fill-rule:nonzero;fill:rgb(100%,100%,100%);fill-opacity:1;" d="M 751 313 C 751 317 745 317 745 313 C 745 309 751 309 751 313 Z M 751 313 "/>
<path style=" stroke:none;fill-rule:nonzero;fill:rgb(100%,100%,100%);fill-opacity:1;" d="M 769.667969 315.667969 C 769.667969 319.667969 763.667969 319.667969 763.667969 315.667969 C 763.667969 311.667969 769.667969 311.667969 769.667969 315.667969 Z M 769.667969 315.667969 "/>
<path style=" stroke:none;fill-rule:nonzero;fill:rgb(100%,100%,100%);fill-opacity:1;" d="M 791 313 C 791 317 785 317 785 313 C 785 309 791 309 791 313 Z M 791 313 "/>
<path style=" stroke:none;fill-rule:nonzero;fill:rgb(100%,100%,100%);fill-opacity:1;" d="M 809.667969 315.667969 C 809.667969 319.667969 803.667969 319.667969 803.667969 315.667969 C 803.667969 311.667969 809.667969 311.667969 809.667969 315.667969 Z M 809.667969 315.667969 "/>
<path style=" stroke:none;fill-rule:nonzero;fill:rgb(100%,100%,100%);fill-opacity:1;" d="M 831 313 C 831 317 825 317 825 313 C 825 309 831 309 831 313 Z M 831 313 "/>
<path style=" stroke:none;fill-rule:nonzero;fill:rgb(100%,100%,100%);fill-opacity:1;" d="M 447 337 C 447 341 441 341 441 337 C 441 333 447 333 447 337 Z M 447 337 "/>
<path style=" stroke:none;fill-rule:nonzero;fill:rgb(100%,100%,100%);fill-opacity:1;" d="M 463 329 C 463 333 457 333 457 329 C 457 325 463 325 463 329 Z M 463 329 "/>
<path style=" stroke:none;fill-rule:nonzero;fill:rgb(100%,100%,100%);fill-opacity:1;" d="M 487 337 C 487 341 481 341 481 337 C 481 333 487 333 487 337 Z M 487 337 "/>
<path style=" stroke:none;fill-rule:nonzero;fill:rgb(100%,100%,100%);fill-opacity:1;" d="M 503 329 C 503 333 497 333 497 329 C 497 325 503 325 503 329 Z M 503 329 "/>
<path style=" stroke:none;fill-rule:nonzero;fill:rgb(100%,100%,100%);fill-opacity:1;" d="M 527 337 C 527 341 521 341 521 337 C 521 333 527 333 527 337 Z M 527 337 "/>
<path style=" stroke:none;fill-rule:nonzero;fill:rgb(100%,100%,100%);fill-opacity:1;" d="M 543 329 C 543 333 537 333 537 329 C 537 325 543 325 543 329 Z M 543 329 "/>
<path style=" stroke:none;fill-rule:nonzero;fill:rgb(100%,100%,100%);fill-opacity:1;" d="M 567 337 C 567 341 561 341 561 337 C 561 333 567 333 567 337 Z M 567 337 "/>
<path style=" stroke:none;fill-rule:nonzero;fill:rgb(100%,100%,100%);fill-opacity:1;" d="M 583 329 C 583 333 577 333 577 329 C 577 325 583 325 583 329 Z M 583 329 "/>
<path style=" stroke:none;fill-rule:nonzero;fill:rgb(100%,100%,100%);fill-opacity:1;" d="M 607 337 C 607 341 601 341 601 337 C 601 333 607 333 607 337 Z M 607 337 "/>
<path style=" stroke:none;fill-rule:nonzero;fill:rgb(100%,100%,100%);fill-opacity:1;" d="M 623 329 C 623 333 617 333 617 329 C 617 325 623 325 623 329 Z M 623 329 "/>
<path style=" stroke:none;fill-rule:nonzero;fill:rgb(100%,100%,100%);fill-opacity:1;" d="M 647 337 C 647 341 641 341 641 337 C 641 333 647 333 647 337 Z M 647 337 "/>
<path style=" stroke:none;fill-rule:nonzero;fill:rgb(100%,100%,100%);fill-opacity:1;" d="M 663 329 C 663 333 657 333 657 329 C 657 325 663 325 663 329 Z M 663 329 "/>
<path style=" stroke:none;fill-rule:nonzero;fill:rgb(100%,100%,100%);fill-opacity:1;" d="M 687 337 C 687 341 681 341 681 337 C 681 333 687 333 687 337 Z M 687 337 "/>
<path style=" stroke:none;fill-rule:nonzero;fill:rgb(100%,100%,100%);fill-opacity:1;" d="M 703 329 C 703 333 697 333 697 329 C 697 325 703 325 703 329 Z M 703 329 "/>
<path style=" stroke:none;fill-rule:nonzero;fill:rgb(100%,100%,100%);fill-opacity:1;" d="M 727 337 C 727 341 721 341 721 337 C 721 333 727 333 727 337 Z M 727 337 "/>
<path style=" stroke:none;fill-rule:nonzero;fill:rgb(100%,100%,100%);fill-opacity:1;" d="M 743 329 C 743 333 737 333 737 329 C 737 325 743 325 743 329 Z M 743 329 "/>
<path style=" stroke:none;fill-rule:nonzero;fill:rgb(100%,100%,100%);fill-opacity:1;" d="M 767 337 C 767 341 761 341 761 337 C 761 333 767 333 767 337 Z M 767 337 "/>
<path style=" stroke:none;fill-rule:nonzero;fill:rgb(100%,100%,100%);fill-opacity:1;" d="M 783 329 C 783 333 777 333 777 329 C 777 325 783 325 783 329 Z M 783 329 "/>
<path style=" stroke:none;fill-rule:nonzero;fill:rgb(100%,100%,100%);fill-opacity:1;" d="M 807 337 C 807 341 801 341 801 337 C 801 333 807 333 807 337 Z M 807 337 "/>
<path style=" stroke:none;fill-rule:nonzero;fill:rgb(100%,100%,100%);fill-opacity:1;" d="M 823 329 C 823 333 817 333 817 329 C 817 325 823 325 823 329 Z M 823 329 "/>
<path style=" stroke:none;fill-rule:nonzero;fill:rgb(100%,100%,100%);fill-opacity:1;" d="M 449.667969 355.667969 C 449.667969 359.667969 443.667969 359.667969 443.667969 355.667969 C 443.667969 351.667969 449.667969 351.667969 449.667969 355.667969 Z M 449.667969 355.667969 "/>
<path style=" stroke:none;fill-rule:nonzero;fill:rgb(100%,100%,100%);fill-opacity:1;" d="M 471 353 C 471 357 465 357 465 353 C 465 349 471 349 471 353 Z M 471 353 "/>
<path style=" stroke:none;fill-rule:nonzero;fill:rgb(100%,100%,100%);fill-opacity:1;" d="M 489.667969 355.667969 C 489.667969 359.667969 483.667969 359.667969 483.667969 355.667969 C 483.667969 351.667969 489.667969 351.667969 489.667969 355.667969 Z M 489.667969 355.667969 "/>
<path style=" stroke:none;fill-rule:nonzero;fill:rgb(100%,100%,100%);fill-opacity:1;" d="M 511 353 C 511 357 505 357 505 353 C 505 349 511 349 511 353 Z M 511 353 "/>
<path style=" stroke:none;fill-rule:nonzero;fill:rgb(100%,100%,100%);fill-opacity:1;" d="M 529.667969 355.667969 C 529.667969 359.667969 523.667969 359.667969 523.667969 355.667969 C 523.667969 351.667969 529.667969 351.667969 529.667969 355.667969 Z M 529.667969 355.667969 "/>
<path style=" stroke:none;fill-rule:nonzero;fill:rgb(100%,100%,100%);fill-opacity:1;" d="M 551 353 C 551 357 545 357 545 353 C 545 349 551 349 551 353 Z M 551 353 "/>
<path style=" stroke:none;fill-rule:nonzero;fill:rgb(100%,100%,100%);fill-opacity:1;" d="M 569.667969 355.667969 C 569.667969 359.667969 563.667969 359.667969 563.667969 355.667969 C 563.667969 351.667969 569.667969 351.667969 569.667969 355.667969 Z M 569.667969 355.667969 "/>
<path style=" stroke:none;fill-rule:nonzero;fill:rgb(100%,100%,100%);fill-opacity:1;" d="M 591 353 C 591 357 585 357 585 353 C 585 349 591 349 591 353 Z M 591 353 "/>
<path style=" stroke:none;fill-rule:nonzero;fill:rgb(100%,100%,100%);fill-opacity:1;" d="M 609.667969 355.667969 C 609.667969 359.667969 603.667969 359.667969 603.667969 355.667969 C 603.667969 351.667969 609.667969 351.667969 609.667969 355.667969 Z M 609.667969 355.667969 "/>
<path style=" stroke:none;fill-rule:nonzero;fill:rgb(100%,100%,100%);fill-opacity:1;" d="M 631 353 C 631 357 625 357 625 353 C 625 349 631 349 631 353 Z M 631 353 "/>
<path style=" stroke:none;fill-rule:nonzero;fill:rgb(100%,100%,100%);fill-opacity:1;" d="M 649.667969 355.667969 C 649.667969 359.667969 643.667969 359.667969 643.667969 355.667969 C 643.667969 351.667969 649.667969 351.667969 649.667969 355.667969 Z M 649.667969 355.667969 "/>
<path style=" stroke:none;fill-rule:nonzero;fill:rgb(100%,100%,100%);fill-opacity:1;" d="M 671 353 C 671 357 665 357 665 353 C 665 349 671 349 671 353 Z M 671 353 "/>
<path style=" stroke:none;fill-rule:nonzero;fill:rgb(100%,100%,100%);fill-opacity:1;" d="M 689.667969 355.667969 C 689.667969 359.667969 683.667969 359.667969 683.667969 355.667969 C 683.667969 351.667969 689.667969 351.667969 689.667969 355.667969 Z M 689.667969 355.667969 "/>
<path style=" stroke:none;fill-rule:nonzero;fill:rgb(100%,100%,100%);fill-opacity:1;" d="M 711 353 C 711 357 705 357 705 353 C 705 349 711 349 711 353 Z M 711 353 "/>
<path style=" stroke:none;fill-rule:nonzero;fill:rgb(100%,100%,100%);fill-opacity:1;" d="M 729.667969 355.667969 C 729.667969 359.667969 723.667969 359.667969 723.667969 355.667969 C 723.667969 351.667969 729.667969 351.667969 729.667969 355.667969 Z M 729.667969 355.667969 "/>
<path style=" stroke:none;fill-rule:nonzero;fill:rgb(100%,100%,100%);fill-opacity:1;" d="M 751 353 C 751 357 745 357 745 353 C 745 349 751 349 751 353 Z M 751 353 "/>
<path style=" stroke:none;fill-rule:nonzero;fill:rgb(100%,100%,100%);fill-opacity:1;" d="M 769.667969 355.667969 C 769.667969 359.667969 763.667969 359.667969 763.667969 355.667969 C 763.667969 351.667969 769.667969 351.667969 769.667969 355.667969 Z M 769.667969 355.667969 "/>
<path style=" stroke:none;fill-rule:nonzero;fill:rgb(100%,100%,100%);fill-opacity:1;" d="M 791 353 C 791 357 785 357 785 353 C 785 349 791 349 791 353 Z M 791 353 "/>
<path style=" stroke:none;fill-rule:nonzero;fill:rgb(100%,100%,100%);fill-opacity:1;" d="M 809.667969 355.667969 C 809.667969 359.667969 803.667969 359.667969 803.667969 355.667969 C 803.667969 351.667969 809.667969 351.667969 809.667969 355.667969 Z M 809.667969 355.667969 "/>
<path style=" stroke:none;fill-rule:nonzero;fill:rgb(100%,100%,100%);fill-opacity:1;" d="M 831 353 C 831 357 825 357 825 353 C 825 349 831 349 831 353 Z M 831 353 "/>
<path style=" stroke:none;fill-rule:nonzero;fill:rgb(100%,100%,100%);fill-opacity:1;" d="M 447 377 C 447 381 441 381 441 377 C 441 373 447 373 447 377 Z M 447 377 "/>
<path style=" stroke:none;fill-rule:nonzero;fill:rgb(100%,100%,100%);fill-opacity:1;" d="M 463 369 C 463 373 457 373 457 369 C 457 365 463 365 463 369 Z M 463 369 "/>
<path style=" stroke:none;fill-rule:nonzero;fill:rgb(100%,100%,100%);fill-opacity:1;" d="M 487 377 C 487 381 481 381 481 377 C 481 373 487 373 487 377 Z M 487 377 "/>
<path style=" stroke:none;fill-rule:nonzero;fill:rgb(100%,100%,100%);fill-opacity:1;" d="M 503 369 C 503 373 497 373 497 369 C 497 365 503 365 503 369 Z M 503 369 "/>
<path style=" stroke:none;fill-rule:nonzero;fill:rgb(100%,100%,100%);fill-opacity:1;" d="M 527 377 C 527 381 521 381 521 377 C 521 373 527 373 527 377 Z M 527 377 "/>
<path style=" stroke:none;fill-rule:nonzero;fill:rgb(100%,100%,100%);fill-opacity:1;" d="M 543 369 C 543 373 537 373 537 369 C 537 365 543 365 543 369 Z M 543 369 "/>
<path style=" stroke:none;fill-rule:nonzero;fill:rgb(100%,100%,100%);fill-opacity:1;" d="M 567 377 C 567 381 561 381 561 377 C 561 373 567 373 567 377 Z M 567 377 "/>
<path style=" stroke:none;fill-rule:nonzero;fill:rgb(100%,100%,100%);fill-opacity:1;" d="M 583 369 C 583 373 577 373 577 369 C 577 365 583 365 583 369 Z M 583 369 "/>
<path style=" stroke:none;fill-rule:nonzero;fill:rgb(100%,100%,100%);fill-opacity:1;" d="M 607 377 C 607 381 601 381 601 377 C 601 373 607 373 607 377 Z M 607 377 "/>
<path style=" stroke:none;fill-rule:nonzero;fill:rgb(100%,100%,100%);fill-opacity:1;" d="M 623 369 C 623 373 617 373 617 369 C 617 365 623 365 623 369 Z M 623 369 "/>
<path style=" stroke:none;fill-rule:nonzero;fill:rgb(100%,100%,100%);fill-opacity:1;" d="M 647 377 C 647 381 641 381 641 377 C 641 373 647 373 647 377 Z M 647 377 "/>
<path style=" stroke:none;fill-rule:nonzero;fill:rgb(100%,100%,100%);fill-opacity:1;" d="M 663 369 C 663 373 657 373 657 369 C 657 365 663 365 663 369 Z M 663 369 "/>
<path style=" stroke:none;fill-rule:nonzero;fill:rgb(100%,100%,100%);fill-opacity:1;" d="M 687 377 C 687 381 681 381 681 377 C 681 373 687 373 687 377 Z M 687 377 "/>
<path style=" stroke:none;fill-rule:nonzero;fill:rgb(100%,100%,100%);fill-opacity:1;" d="M 703 369 C 703 373 697 373 697 369 C 697 365 703 365 703 369 Z M 703 369 "/>
<path style=" stroke:none;fill-rule:nonzero;fill:rgb(100%,100%,100%);fill-opacity:1;" d="M 727 377 C 727 381 721 381 721 377 C 721 373 727 373 727 377 Z M 727 377 "/>
<path style=" stroke:none;fill-rule:nonzero;fill:rgb(100%,100%,100%);fill-opacity:1;" d="M 743 369 C 743 373 737 373 737 369 C 737 365 743 365 743 369 Z M 743 369 "/>
<path style=" stroke:none;fill-rule:nonzero;fill:rgb(100%,100%,100%);fill-opacity:1;" d="M 767 377 C 767 381 761 381 761 377 C 761 373 767 373 767 377 Z M 767 377 "/>
<path style=" stroke:none;fill-rule:nonzero;fill:rgb(100%,100%,100%);fill-opacity:1;" d="M 783 369 C 783 373 777 373 777 369 C 777 365 783 365 783 369 Z M 783 369 "/>
<path style=" stroke:none;fill-rule:nonzero;fill:rgb(100%,100%,100%);fill-opacity:1;" d="M 807 377 C 807 381 801 381 801 377 C 801 373 807 373 807 377 Z M 807 377 "/>
<path style=" stroke:none;fill-rule:nonzero;fill:rgb(100%,100%,100%);fill-opacity:1;" d="M 823 369 C 823 373 817 373 817 369 C 817 365 823 365 823 369 Z M 823 369 "/>
<path style=" stroke:none;fill-rule:nonzero;fill:rgb(100%,100%,100%);fill-opacity:1;" d="M 449.667969 395.667969 C 449.667969 399.667969 443.667969 399.667969 443.667969 395.667969 C 443.667969 391.667969 449.667969 391.667969 449.667969 395.667969 Z M 449.667969 395.667969 "/>
<path style=" stroke:none;fill-rule:nonzero;fill:rgb(100%,100%,100%);fill-opacity:1;" d="M 471 393 C 471 397 465 397 465 393 C 465 389 471 389 471 393 Z M 471 393 "/>
<path style=" stroke:none;fill-rule:nonzero;fill:rgb(100%,100%,100%);fill-opacity:1;" d="M 489.667969 395.667969 C 489.667969 399.667969 483.667969 399.667969 483.667969 395.667969 C 483.667969 391.667969 489.667969 391.667969 489.667969 395.667969 Z M 489.667969 395.667969 "/>
<path style=" stroke:none;fill-rule:nonzero;fill:rgb(100%,100%,100%);fill-opacity:1;" d="M 511 393 C 511 397 505 397 505 393 C 505 389 511 389 511 393 Z M 511 393 "/>
<path style=" stroke:none;fill-rule:nonzero;fill:rgb(100%,100%,100%);fill-opacity:1;" d="M 529.667969 395.667969 C 529.667969 399.667969 523.667969 399.667969 523.667969 395.667969 C 523.667969 391.667969 529.667969 391.667969 529.667969 395.667969 Z M 529.667969 395.667969 "/>
<path style=" stroke:none;fill-rule:nonzero;fill:rgb(100%,100%,100%);fill-opacity:1;" d="M 551 393 C 551 397 545 397 545 393 C 545 389 551 389 551 393 Z M 551 393 "/>
<path style=" stroke:none;fill-rule:nonzero;fill:rgb(100%,100%,100%);fill-opacity:1;" d="M 569.667969 395.667969 C 569.667969 399.667969 563.667969 399.667969 563.667969 395.667969 C 563.667969 391.667969 569.667969 391.667969 569.667969 395.667969 Z M 569.667969 395.667969 "/>
<path style=" stroke:none;fill-rule:nonzero;fill:rgb(100%,100%,100%);fill-opacity:1;" d="M 591 393 C 591 397 585 397 585 393 C 585 389 591 389 591 393 Z M 591 393 "/>
<path style=" stroke:none;fill-rule:nonzero;fill:rgb(100%,100%,100%);fill-opacity:1;" d="M 609.667969 395.667969 C 609.667969 399.667969 603.667969 399.667969 603.667969 395.667969 C 603.667969 391.667969 609.667969 391.667969 609.667969 395.667969 Z M 609.667969 395.667969 "/>
<path style=" stroke:none;fill-rule:nonzero;fill:rgb(100%,100%,100%);fill-opacity:1;" d="M 631 393 C 631 397 625 397 625 393 C 625 389 631 389 631 393 Z M 631 393 "/>
<path style=" stroke:none;fill-rule:nonzero;fill:rgb(100%,100%,100%);fill-opacity:1;" d="M 649.667969 395.667969 C 649.667969 399.667969 643.667969 399.667969 643.667969 395.667969 C 643.667969 391.667969 649.667969 391.667969 649.667969 395.667969 Z M 649.667969 395.667969 "/>
<path style=" stroke:none;fill-rule:nonzero;fill:rgb(100%,100%,100%);fill-opacity:1;" d="M 671 393 C 671 397 665 397 665 393 C 665 389 671 389 671 393 Z M 671 393 "/>
<path style=" stroke:none;fill-rule:nonzero;fill:rgb(100%,100%,100%);fill-opacity:1;" d="M 689.667969 395.667969 C 689.667969 399.667969 683.667969 399.667969 683.667969 395.667969 C 683.667969 391.667969 689.667969 391.667969 689.667969 395.667969 Z M 689.667969 395.667969 "/>
<path style=" stroke:none;fill-rule:nonzero;fill:rgb(100%,100%,100%);fill-opacity:1;" d="M 711 393 C 711 397 705 397 705 393 C 705 389 711 389 711 393 Z M 711 393 "/>
<path style=" stroke:none;fill-rule:nonzero;fill:rgb(100%,100%,100%);fill-opacity:1;" d="M 729.667969 395.667969 C 729.667969 399.667969 723.667969 399.667969 723.667969 395.667969 C 723.667969 391.667969 729.667969 391.667969 729.667969 395.667969 Z M 729.667969 395.667969 "/>
<path style=" stroke:none;fill-rule:nonzero;fill:rgb(100%,100%,100%);fill-opacity:1;" d="M 751 393 C 751 397 745 397 745 393 C 745 389 751 389 751 393 Z M 751 393 "/>
<path style=" stroke:none;fill-rule:nonzero;fill:rgb(100%,100%,100%);fill-opacity:1;" d="M 769.667969 395.667969 C 769.667969 399.667969 763.667969 399.667969 763.667969 395.667969 C 763.667969 391.667969 769.667969 391.667969 769.667969 395.667969 Z M 769.667969 395.667969 "/>
<path style=" stroke:none;fill-rule:nonzero;fill:rgb(100%,100%,100%);fill-opacity:1;" d="M 791 393 C 791 397 785 397 785 393 C 785 389 791 389 791 393 Z M 791 393 "/>
<path style=" stroke:none;fill-rule:nonzero;fill:rgb(100%,100%,100%);fill-opacity:1;" d="M 809.667969 395.667969 C 809.667969 399.667969 803.667969 399.667969 803.667969 395.667969 C 803.667969 391.667969 809.667969 391.667969 809.667969 395.667969 Z M 809.667969 395.667969 "/>
<path style=" stroke:none;fill-rule:nonzero;fill:rgb(100%,100%,100%);fill-opacity:1;" d="M 831 393 C 831 397 825 397 825 393 C 825 389 831 389 831 393 Z M 831 393 "/>
<path style=" stroke:none;fill-rule:nonzero;fill:rgb(100%,100%,100%);fill-opacity:1;" d="M 447 417 C 447 421 441 421 441 417 C 441 413 447 413 447 417 Z M 447 417 "/>
<path style=" stroke:none;fill-rule:nonzero;fill:rgb(100%,100%,100%);fill-opacity:1;" d="M 463 409 C 463 413 457 413 457 409 C 457 405 463 405 463 409 Z M 463 409 "/>
<path style=" stroke:none;fill-rule:nonzero;fill:rgb(100%,100%,100%);fill-opacity:1;" d="M 487 417 C 487 421 481 421 481 417 C 481 413 487 413 487 417 Z M 487 417 "/>
<path style=" stroke:none;fill-rule:nonzero;fill:rgb(100%,100%,100%);fill-opacity:1;" d="M 503 409 C 503 413 497 413 497 409 C 497 405 503 405 503 409 Z M 503 409 "/>
<path style=" stroke:none;fill-rule:nonzero;fill:rgb(100%,100%,100%);fill-opacity:1;" d="M 527 417 C 527 421 521 421 521 417 C 521 413 527 413 527 417 Z M 527 417 "/>
<path style=" stroke:none;fill-rule:nonzero;fill:rgb(100%,100%,100%);fill-opacity:1;" d="M 543 409 C 543 413 537 413 537 409 C 537 405 543 405 543 409 Z M 543 409 "/>
<path style=" stroke:none;fill-rule:nonzero;fill:rgb(100%,100%,100%);fill-opacity:1;" d="M 567 417 C 567 421 561 421 561 417 C 561 413 567 413 567 417 Z M 567 417 "/>
<path style=" stroke:none;fill-rule:nonzero;fill:rgb(100%,100%,100%);fill-opacity:1;" d="M 583 409 C 583 413 577 413 577 409 C 577 405 583 405 583 409 Z M 583 409 "/>
<path style=" stroke:none;fill-rule:nonzero;fill:rgb(100%,100%,100%);fill-opacity:1;" d="M 607 417 C 607 421 601 421 601 417 C 601 413 607 413 607 417 Z M 607 417 "/>
<path style=" stroke:none;fill-rule:nonzero;fill:rgb(100%,100%,100%);fill-opacity:1;" d="M 623 409 C 623 413 617 413 617 409 C 617 405 623 405 623 409 Z M 623 409 "/>
<path style=" stroke:none;fill-rule:nonzero;fill:rgb(100%,100%,100%);fill-opacity:1;" d="M 647 417 C 647 421 641 421 641 417 C 641 413 647 413 647 417 Z M 647 417 "/>
<path style=" stroke:none;fill-rule:nonzero;fill:rgb(100%,100%,100%);fill-opacity:1;" d="M 663 409 C 663 413 657 413 657 409 C 657 405 663 405 663 409 Z M 663 409 "/>
<path style=" stroke:none;fill-rule:nonzero;fill:rgb(100%,100%,100%);fill-opacity:1;" d="M 687 417 C 687 421 681 421 681 417 C 681 413 687 413 687 417 Z M 687 417 "/>
<path style=" stroke:none;fill-rule:nonzero;fill:rgb(100%,100%,100%);fill-opacity:1;" d="M 703 409 C 703 413 697 413 697 409 C 697 405 703 405 703 409 Z M 703 409 "/>
<path style=" stroke:none;fill-rule:nonzero;fill:rgb(100%,100%,100%);fill-opacity:1;" d="M 727 417 C 727 421 721 421 721 417 C 721 413 727 413 727 417 Z M 727 417 "/>
<path style=" stroke:none;fill-rule:nonzero;fill:rgb(100%,100%,100%);fill-opacity:1;" d="M 743 409 C 743 413 737 413 737 409 C 737 405 743 405 743 409 Z M 743 409 "/>
<path style=" stroke:none;fill-rule:nonzero;fill:rgb(100%,100%,100%);fill-opacity:1;" d="M 767 417 C 767 421 761 421 761 417 C 761 413 767 413 767 417 Z M 767 417 "/>
<path style=" stroke:none;fill-rule:nonzero;fill:rgb(100%,100%,100%);fill-opacity:1;" d="M 783 409 C 783 413 777 413 777 409 C 777 405 783 405 783 409 Z M 783 409 "/>
<path style=" stroke:none;fill-rule:nonzero;fill:rgb(100%,100%,100%);fill-opacity:1;" d="M 807 417 C 807 421 801 421 801 417 C 801 413 807 413 807 417 Z M 807 417 "/>
<path style=" stroke:none;fill-rule:nonzero;fill:rgb(100%,100%,100%);fill-opacity:1;" d="M 823 409 C 823 413 817 413 817 409 C 817 405 823 405 823 409 Z M 823 409 "/>
<path style=" stroke:none;fill-rule:nonzero;fill:rgb(100%,100%,100%);fill-opacity:1;" d="M 449.667969 435.667969 C 449.667969 439.667969 443.667969 439.667969 443.667969 435.667969 C 443.667969 431.667969 449.667969 431.667969 449.667969 435.667969 Z M 449.667969 435.667969 "/>
<path style=" stroke:none;fill-rule:nonzero;fill:rgb(100%,100%,100%);fill-opacity:1;" d="M 471 433 C 471 437 465 437 465 433 C 465 429 471 429 471 433 Z M 471 433 "/>
<path style=" stroke:none;fill-rule:nonzero;fill:rgb(100%,100%,100%);fill-opacity:1;" d="M 489.667969 435.667969 C 489.667969 439.667969 483.667969 439.667969 483.667969 435.667969 C 483.667969 431.667969 489.667969 431.667969 489.667969 435.667969 Z M 489.667969 435.667969 "/>
<path style=" stroke:none;fill-rule:nonzero;fill:rgb(100%,100%,100%);fill-opacity:1;" d="M 511 433 C 511 437 505 437 505 433 C 505 429 511 429 511 433 Z M 511 433 "/>
<path style=" stroke:none;fill-rule:nonzero;fill:rgb(100%,100%,100%);fill-opacity:1;" d="M 529.667969 435.667969 C 529.667969 439.667969 523.667969 439.667969 523.667969 435.667969 C 523.667969 431.667969 529.667969 431.667969 529.667969 435.667969 Z M 529.667969 435.667969 "/>
<path style=" stroke:none;fill-rule:nonzero;fill:rgb(100%,100%,100%);fill-opacity:1;" d="M 551 433 C 551 437 545 437 545 433 C 545 429 551 429 551 433 Z M 551 433 "/>
<path style=" stroke:none;fill-rule:nonzero;fill:rgb(100%,100%,100%);fill-opacity:1;" d="M 569.667969 435.667969 C 569.667969 439.667969 563.667969 439.667969 563.667969 435.667969 C 563.667969 431.667969 569.667969 431.667969 569.667969 435.667969 Z M 569.667969 435.667969 "/>
<path style=" stroke:none;fill-rule:nonzero;fill:rgb(100%,100%,100%);fill-opacity:1;" d="M 591 433 C 591 437 585 437 585 433 C 585 429 591 429 591 433 Z M 591 433 "/>
<path style=" stroke:none;fill-rule:nonzero;fill:rgb(100%,100%,100%);fill-opacity:1;" d="M 609.667969 435.667969 C 609.667969 439.667969 603.667969 439.667969 603.667969 435.667969 C 603.667969 431.667969 609.667969 431.667969 609.667969 435.667969 Z M 609.667969 435.667969 "/>
<path style=" stroke:none;fill-rule:nonzero;fill:rgb(100%,100%,100%);fill-opacity:1;" d="M 631 433 C 631 437 625 437 625 433 C 625 429 631 429 631 433 Z M 631 433 "/>
<path style=" stroke:none;fill-rule:nonzero;fill:rgb(100%,100%,100%);fill-opacity:1;" d="M 649.667969 435.667969 C 649.667969 439.667969 643.667969 439.667969 643.667969 435.667969 C 643.667969 431.667969 649.667969 431.667969 649.667969 435.667969 Z M 649.667969 435.667969 "/>
<path style=" stroke:none;fill-rule:nonzero;fill:rgb(100%,100%,100%);fill-opacity:1;" d="M 671 433 C 671 437 665 437 665 433 C 665 429 671 429 671 433 Z M 671 433 "/>
<path style=" stroke:none;fill-rule:nonzero;fill:rgb(100%,100%,100%);fill-opacity:1;" d="M 689.667969 435.667969 C 689.667969 439.667969 683.667969 439.667969 683.667969 435.667969 C 683.667969 431.667969 689.667969 431.667969 689.667969 435.667969 Z M 689.667969 435.667969 "/>
<path style=" stroke:none;fill-rule:nonzero;fill:rgb(100%,100%,100%);fill-opacity:1;" d="M 711 433 C 711 437 705 437 705 433 C 705 429 711 429 711 433 Z M 711 433 "/>
<path style=" stroke:none;fill-rule:nonzero;fill:rgb(100%,100%,100%);fill-opacity:1;" d="M 729.667969 435.667969 C 729.667969 439.667969 723.667969 439.667969 723.667969 435.667969 C 723.667969 431.667969 729.667969 431.667969 729.667969 435.667969 Z M 729.667969 435.667969 "/>
<path style=" stroke:none;fill-rule:nonzero;fill:rgb(100%,100%,100%);fill-opacity:1;" d="M 751 433 C 751 437 745 437 745 433 C 745 429 751 429 751 433 Z M 751 433 "/>
<path style=" stroke:none;fill-rule:nonzero;fill:rgb(100%,100%,100%);fill-opacity:1;" d="M 769.667969 435.667969 C 769.667969 439.667969 763.667969 439.667969 763.667969 435.667969 C 763.667969 431.667969 769.667969 431.667969 769.667969 435.667969 Z M 769.667969 435.667969 "/>
<path style=" stroke:none;fill-rule:nonzero;fill:rgb(100%,100%,100%);fill-opacity:1;" d="M 791 433 C 791 437 785 437 785 433 C 785 429 791 429 791 433 Z M 791 433 "/>
<path style=" stroke:none;fill-rule:nonzero;fill:rgb(100%,100%,100%);fill-opacity:1;" d="M 809.667969 435.667969 C 809.667969 439.667969 803.667969 439.667969 803.667969 435.667969 C 803.667969 431.667969 809.667969 431.667969 809.667969 435.667969 Z M 809.667969 435.667969 "/>
<path style=" stroke:none;fill-rule:nonzero;fill:rgb(100%,100%,100%);fill-opacity:1;" d="M 831 433 C 831 437 825 437 825 433 C 825 429 831 429 831 433 Z M 831 433 "/>
<path style=" stroke:none;fill-rule:nonzero;fill:rgb(100%,100%,100%);fill-opacity:1;" d="M 447 457 C 447 461 441 461 441 457 C 441 453 447 453 447 457 Z M 447 457 "/>
<path style=" stroke:none;fill-rule:nonzero;fill:rgb(100%,100%,100%);fill-opacity:1;" d="M 463 449 C 463 453 457 453 457 449 C 457 445 463 445 463 449 Z M 463 449 "/>
<path style=" stroke:none;fill-rule:nonzero;fill:rgb(100%,100%,100%);fill-opacity:1;" d="M 487 457 C 487 461 481 461 481 457 C 481 453 487 453 487 457 Z M 487 457 "/>
<path style=" stroke:none;fill-rule:nonzero;fill:rgb(100%,100%,100%);fill-opacity:1;" d="M 503 449 C 503 453 497 453 497 449 C 497 445 503 445 503 449 Z M 503 449 "/>
<path style=" stroke:none;fill-rule:nonzero;fill:rgb(100%,100%,100%);fill-opacity:1;" d="M 527 457 C 527 461 521 461 521 457 C 521 453 527 453 527 457 Z M 527 457 "/>
<path style=" stroke:none;fill-rule:nonzero;fill:rgb(100%,100%,100%);fill-opacity:1;" d="M 543 449 C 543 453 537 453 537 449 C 537 445 543 445 543 449 Z M 543 449 "/>
<path style=" stroke:none;fill-rule:nonzero;fill:rgb(100%,100%,100%);fill-opacity:1;" d="M 567 457 C 567 461 561 461 561 457 C 561 453 567 453 567 457 Z M 567 457 "/>
<path style=" stroke:none;fill-rule:nonzero;fill:rgb(100%,100%,100%);fill-opacity:1;" d="M 583 449 C 583 453 577 453 577 449 C 577 445 583 445 583 449 Z M 583 449 "/>
<path style=" stroke:none;fill-rule:nonzero;fill:rgb(100%,100%,100%);fill-opacity:1;" d="M 607 457 C 607 461 601 461 601 457 C 601 453 607 453 607 457 Z M 607 457 "/>
<path style=" stroke:none;fill-rule:nonzero;fill:rgb(100%,100%,100%);fill-opacity:1;" d="M 623 449 C 623 453 617 453 617 449 C 617 445 623 445 623 449 Z M 623 449 "/>
<path style=" stroke:none;fill-rule:nonzero;fill:rgb(100%,100%,100%);fill-opacity:1;" d="M 647 457 C 647 461 641 461 641 457 C 641 453 647 453 647 457 Z M 647 457 "/>
<path style=" stroke:none;fill-rule:nonzero;fill:rgb(100%,100%,100%);fill-opacity:1;" d="M 663 449 C 663 453 657 453 657 449 C 657 445 663 445 663 449 Z M 663 449 "/>
<path style=" stroke:none;fill-rule:nonzero;fill:rgb(100%,100%,100%);fill-opacity:1;" d="M 687 457 C 687 461 681 461 681 457 C 681 453 687 453 687 457 Z M 687 457 "/>
<path style=" stroke:none;fill-rule:nonzero;fill:rgb(100%,100%,100%);fill-opacity:1;" d="M 703 449 C 703 453 697 453 697 449 C 697 445 703 445 703 449 Z M 703 449 "/>
<path style=" stroke:none;fill-rule:nonzero;fill:rgb(100%,100%,100%);fill-opacity:1;" d="M 727 457 C 727 461 721 461 721 457 C 721 453 727 453 727 457 Z M 727 457 "/>
<path style=" stroke:none;fill-rule:nonzero;fill:rgb(100%,100%,100%);fill-opacity:1;" d="M 743 449 C 743 453 737 453 737 449 C 737 445 743 445 743 449 Z M 743 449 "/>
<path style=" stroke:none;fill-rule:nonzero;fill:rgb(100%,100%,100%);fill-opacity:1;" d="M 767 457 C 767 461 761 461 761 457 C 761 453 767 453 767 457 Z M 767 457 "/>
<path style=" stroke:none;fill-rule:nonzero;fill:rgb(100%,100%,100%);fill-opacity:1;" d="M 783 449 C 783 453 777 453 777 449 C 777 445 783 445 783 449 Z M 783 449 "/>
<path style=" stroke:none;fill-rule:nonzero;fill:rgb(100%,100%,100%);fill-opacity:1;" d="M 807 457 C 807 461 801 461 801 457 C 801 453 807 453 807 457 Z M 807 457 "/>
<path style=" stroke:none;fill-rule:nonzero;fill:rgb(100%,100%,100%);fill-opacity:1;" d="M 823 449 C 823 453 817 453 817 449 C 817 445 823 445 823 449 Z M 823 449 "/>
<path style=" stroke:none;fill-rule:nonzero;fill:rgb(100%,100%,100%);fill-opacity:1;" d="M 449.667969 475.667969 C 449.667969 479.667969 443.667969 479.667969 443.667969 475.667969 C 443.667969 471.667969 449.667969 471.667969 449.667969 475.667969 Z M 449.667969 475.667969 "/>
<path style=" stroke:none;fill-rule:nonzero;fill:rgb(100%,100%,100%);fill-opacity:1;" d="M 471 473 C 471 477 465 477 465 473 C 465 469 471 469 471 473 Z M 471 473 "/>
<path style=" stroke:none;fill-rule:nonzero;fill:rgb(100%,100%,100%);fill-opacity:1;" d="M 489.667969 475.667969 C 489.667969 479.667969 483.667969 479.667969 483.667969 475.667969 C 483.667969 471.667969 489.667969 471.667969 489.667969 475.667969 Z M 489.667969 475.667969 "/>
<path style=" stroke:none;fill-rule:nonzero;fill:rgb(100%,100%,100%);fill-opacity:1;" d="M 511 473 C 511 477 505 477 505 473 C 505 469 511 469 511 473 Z M 511 473 "/>
<path style=" stroke:none;fill-rule:nonzero;fill:rgb(100%,100%,100%);fill-opacity:1;" d="M 529.667969 475.667969 C 529.667969 479.667969 523.667969 479.667969 523.667969 475.667969 C 523.667969 471.667969 529.667969 471.667969 529.667969 475.667969 Z M 529.667969 475.667969 "/>
<path style=" stroke:none;fill-rule:nonzero;fill:rgb(100%,100%,100%);fill-opacity:1;" d="M 551 473 C 551 477 545 477 545 473 C 545 469 551 469 551 473 Z M 551 473 "/>
<path style=" stroke:none;fill-rule:nonzero;fill:rgb(100%,100%,100%);fill-opacity:1;" d="M 569.667969 475.667969 C 569.667969 479.667969 563.667969 479.667969 563.667969 475.667969 C 563.667969 471.667969 569.667969 471.667969 569.667969 475.667969 Z M 569.667969 475.667969 "/>
<path style=" stroke:none;fill-rule:nonzero;fill:rgb(100%,100%,100%);fill-opacity:1;" d="M 591 473 C 591 477 585 477 585 473 C 585 469 591 469 591 473 Z M 591 473 "/>
<path style=" stroke:none;fill-rule:nonzero;fill:rgb(100%,100%,100%);fill-opacity:1;" d="M 609.667969 475.667969 C 609.667969 479.667969 603.667969 479.667969 603.667969 475.667969 C 603.667969 471.667969 609.667969 471.667969 609.667969 475.667969 Z M 609.667969 475.667969 "/>
<path style=" stroke:none;fill-rule:nonzero;fill:rgb(100%,100%,100%);fill-opacity:1;" d="M 631 473 C 631 477 625 477 625 473 C 625 469 631 469 631 473 Z M 631 473 "/>
<path style=" stroke:none;fill-rule:nonzero;fill:rgb(100%,100%,100%);fill-opacity:1;" d="M 649.667969 475.667969 C 649.667969 479.667969 643.667969 479.667969 643.667969 475.667969 C 643.667969 471.667969 649.667969 471.667969 649.667969 475.667969 Z M 649.667969 475.667969 "/>
<path style=" stroke:none;fill-rule:nonzero;fill:rgb(100%,100%,100%);fill-opacity:1;" d="M 671 473 C 671 477 665 477 665 473 C 665 469 671 469 671 473 Z M 671 473 "/>
<path style=" stroke:none;fill-rule:nonzero;fill:rgb(100%,100%,100%);fill-opacity:1;" d="M 689.667969 475.667969 C 689.667969 479.667969 683.667969 479.667969 683.667969 475.667969 C 683.667969 471.667969 689.667969 471.667969 689.667969 475.667969 Z M 689.667969 475.667969 "/>
<path style=" stroke:none;fill-rule:nonzero;fill:rgb(100%,100%,100%);fill-opacity:1;" d="M 711 473 C 711 477 705 477 705 473 C 705 469 711 469 711 473 Z M 711 473 "/>
<path style=" stroke:none;fill-rule:nonzero;fill:rgb(100%,100%,100%);fill-opacity:1;" d="M 729.667969 475.667969 C 729.667969 479.667969 723.667969 479.667969 723.667969 475.667969 C 723.667969 471.667969 729.667969 471.667969 729.667969 475.667969 Z M 729.667969 475.667969 "/>
<path style=" stroke:none;fill-rule:nonzero;fill:rgb(100%,100%,100%);fill-opacity:1;" d="M 751 473 C 751 477 745 477 745 473 C 745 469 751 469 751 473 Z M 751 473 "/>
<path style=" stroke:none;fill-rule:nonzero;fill:rgb(100%,100%,100%);fill-opacity:1;" d="M 769.667969 475.667969 C 769.667969 479.667969 763.667969 479.667969 763.667969 475.667969 C 763.667969 471.667969 769.667969 471.667969 769.667969 475.667969 Z M 769.667969 475.667969 "/>
<path style=" stroke:none;fill-rule:nonzero;fill:rgb(100%,100%,100%);fill-opacity:1;" d="M 791 473 C 791 477 785 477 785 473 C 785 469 791 469 791 473 Z M 791 473 "/>
<path style=" stroke:none;fill-rule:nonzero;fill:rgb(100%,100%,100%);fill-opacity:1;" d="M 809.667969 475.667969 C 809.667969 479.667969 803.667969 479.667969 803.667969 475.667969 C 803.667969 471.667969 809.667969 471.667969 809.667969 475.667969 Z M 809.667969 475.667969 "/>
<path style=" stroke:none;fill-rule:nonzero;fill:rgb(100%,100%,100%);fill-opacity:1;" d="M 831 473 C 831 477 825 477 825 473 C 825 469 831 469 831 473 Z M 831 473 "/>
<path style=" stroke:none;fill-rule:nonzero;fill:rgb(100%,100%,100%);fill-opacity:1;" d="M 447 497 C 447 501 441 501 441 497 C 441 493 447 493 447 497 Z M 447 497 "/>
<path style=" stroke:none;fill-rule:nonzero;fill:rgb(100%,100%,100%);fill-opacity:1;" d="M 463 489 C 463 493 457 493 457 489 C 457 485 463 485 463 489 Z M 463 489 "/>
<path style=" stroke:none;fill-rule:nonzero;fill:rgb(100%,100%,100%);fill-opacity:1;" d="M 487 497 C 487 501 481 501 481 497 C 481 493 487 493 487 497 Z M 487 497 "/>
<path style=" stroke:none;fill-rule:nonzero;fill:rgb(100%,100%,100%);fill-opacity:1;" d="M 503 489 C 503 493 497 493 497 489 C 497 485 503 485 503 489 Z M 503 489 "/>
<path style=" stroke:none;fill-rule:nonzero;fill:rgb(100%,100%,100%);fill-opacity:1;" d="M 527 497 C 527 501 521 501 521 497 C 521 493 527 493 527 497 Z M 527 497 "/>
<path style=" stroke:none;fill-rule:nonzero;fill:rgb(100%,100%,100%);fill-opacity:1;" d="M 543 489 C 543 493 537 493 537 489 C 537 485 543 485 543 489 Z M 543 489 "/>
<path style=" stroke:none;fill-rule:nonzero;fill:rgb(100%,100%,100%);fill-opacity:1;" d="M 567 497 C 567 501 561 501 561 497 C 561 493 567 493 567 497 Z M 567 497 "/>
<path style=" stroke:none;fill-rule:nonzero;fill:rgb(100%,100%,100%);fill-opacity:1;" d="M 583 489 C 583 493 577 493 577 489 C 577 485 583 485 583 489 Z M 583 489 "/>
<path style=" stroke:none;fill-rule:nonzero;fill:rgb(100%,100%,100%);fill-opacity:1;" d="M 607 497 C 607 501 601 501 601 497 C 601 493 607 493 607 497 Z M 607 497 "/>
<path style=" stroke:none;fill-rule:nonzero;fill:rgb(100%,100%,100%);fill-opacity:1;" d="M 623 489 C 623 493 617 493 617 489 C 617 485 623 485 623 489 Z M 623 489 "/>
<path style=" stroke:none;fill-rule:nonzero;fill:rgb(100%,100%,100%);fill-opacity:1;" d="M 647 497 C 647 501 641 501 641 497 C 641 493 647 493 647 497 Z M 647 497 "/>
<path style=" stroke:none;fill-rule:nonzero;fill:rgb(100%,100%,100%);fill-opacity:1;" d="M 663 489 C 663 493 657 493 657 489 C 657 485 663 485 663 489 Z M 663 489 "/>
<path style=" stroke:none;fill-rule:nonzero;fill:rgb(100%,100%,100%);fill-opacity:1;" d="M 687 497 C 687 501 681 501 681 497 C 681 493 687 493 687 497 Z M 687 497 "/>
<path style=" stroke:none;fill-rule:nonzero;fill:rgb(100%,100%,100%);fill-opacity:1;" d="M 703 489 C 703 493 697 493 697 489 C 697 485 703 485 703 489 Z M 703 489 "/>
<path style=" stroke:none;fill-rule:nonzero;fill:rgb(100%,100%,100%);fill-opacity:1;" d="M 727 497 C 727 501 721 501 721 497 C 721 493 727 493 727 497 Z M 727 497 "/>
<path style=" stroke:none;fill-rule:nonzero;fill:rgb(100%,100%,100%);fill-opacity:1;" d="M 743 489 C 743 493 737 493 737 489 C 737 485 743 485 743 489 Z M 743 489 "/>
<path style=" stroke:none;fill-rule:nonzero;fill:rgb(100%,100%,100%);fill-opacity:1;" d="M 767 497 C 767 501 761 501 761 497 C 761 493 767 493 767 497 Z M 767 497 "/>
<path style=" stroke:none;fill-rule:nonzero;fill:rgb(100%,100%,100%);fill-opacity:1;" d="M 783 489 C 783 493 777 493 777 489 C 777 485 783 485 783 489 Z M 783 489 "/>
<path style=" stroke:none;fill-rule:nonzero;fill:rgb(100%,100%,100%);fill-opacity:1;" d="M 807 497 C 807 501 801 501 801 497 C 801 493 807 493 807 497 Z M 807 497 "/>
<path style=" stroke:none;fill-rule:nonzero;fill:rgb(100%,100%,100%);fill-opacity:1;" d="M 823 489 C 823 493 817 493 817 489 C 817 485 823 485 823 489 Z M 823 489 "/>
<path style=" stroke:none;fill-rule:nonzero;fill:rgb(100%,100%,100%);fill-opacity:1;" d="M 449.667969 515.667969 C 449.667969 519.667969 443.667969 519.667969 443.667969 515.667969 C 443.667969 511.667969 449.667969 511.667969 449.667969 515.667969 Z M 449.667969 515.667969 "/>
<path style=" stroke:none;fill-rule:nonzero;fill:rgb(100%,100%,100%);fill-opacity:1;" d="M 471 513 C 471 517 465 517 465 513 C 465 509 471 509 471 513 Z M 471 513 "/>
<path style=" stroke:none;fill-rule:nonzero;fill:rgb(100%,100%,100%);fill-opacity:1;" d="M 489.667969 515.667969 C 489.667969 519.667969 483.667969 519.667969 483.667969 515.667969 C 483.667969 511.667969 489.667969 511.667969 489.667969 515.667969 Z M 489.667969 515.667969 "/>
<path style=" stroke:none;fill-rule:nonzero;fill:rgb(100%,100%,100%);fill-opacity:1;" d="M 511 513 C 511 517 505 517 505 513 C 505 509 511 509 511 513 Z M 511 513 "/>
<path style=" stroke:none;fill-rule:nonzero;fill:rgb(100%,100%,100%);fill-opacity:1;" d="M 529.667969 515.667969 C 529.667969 519.667969 523.667969 519.667969 523.667969 515.667969 C 523.667969 511.667969 529.667969 511.667969 529.667969 515.667969 Z M 529.667969 515.667969 "/>
<path style=" stroke:none;fill-rule:nonzero;fill:rgb(100%,100%,100%);fill-opacity:1;" d="M 551 513 C 551 517 545 517 545 513 C 545 509 551 509 551 513 Z M 551 513 "/>
<path style=" stroke:none;fill-rule:nonzero;fill:rgb(100%,100%,100%);fill-opacity:1;" d="M 569.667969 515.667969 C 569.667969 519.667969 563.667969 519.667969 563.667969 515.667969 C 563.667969 511.667969 569.667969 511.667969 569.667969 515.667969 Z M 569.667969 515.667969 "/>
<path style=" stroke:none;fill-rule:nonzero;fill:rgb(100%,100%,100%);fill-opacity:1;" d="M 591 513 C 591 517 585 517 585 513 C 585 509 591 509 591 513 Z M 591 513 "/>
<path style=" stroke:none;fill-rule:nonzero;fill:rgb(100%,100%,100%);fill-opacity:1;" d="M 609.667969 515.667969 C 609.667969 519.667969 603.667969 519.667969 603.667969 515.667969 C 603.667969 511.667969 609.667969 511.667969 609.667969 515.667969 Z M 609.667969 515.667969 "/>
<path style=" stroke:none;fill-rule:nonzero;fill:rgb(100%,100%,100%);fill-opacity:1;" d="M 631 513 C 631 517 625 517 625 513 C 625 509 631 509 631 513 Z M 631 513 "/>
<path style=" stroke:none;fill-rule:nonzero;fill:rgb(100%,100%,100%);fill-opacity:1;" d="M 649.667969 515.667969 C 649.667969 519.667969 643.667969 519.667969 643.667969 515.667969 C 643.667969 511.667969 649.667969 511.667969 649.667969 515.667969 Z M 649.667969 515.667969 "/>
<path style=" stroke:none;fill-rule:nonzero;fill:rgb(100%,100%,100%);fill-opacity:1;" d="M 671 513 C 671 517 665 517 665 513 C 665 509 671 509 671 513 Z M 671 513 "/>
<path style=" stroke:none;fill-rule:nonzero;fill:rgb(100%,100%,100%);fill-opacity:1;" d="M 689.667969 515.667969 C 689.667969 519.667969 683.667969 519.667969 683.667969 515.667969 C 683.667969 511.667969 689.667969 511.667969 689.667969 515.667969 Z M 689.667969 515.667969 "/>
<path style=" stroke:none;fill-rule:nonzero;fill:rgb(100%,100%,100%);fill-opacity:1;" d="M 711 513 C 711 517 705 517 705 513 C 705 509 711 509 711 513 Z M 711 513 "/>
<path style=" stroke:none;fill-rule:nonzero;fill:rgb(100%,100%,100%);fill-opacity:1;" d="M 729.667969 515.667969 C 729.667969 519.667969 723.667969 519.667969 723.667969 515.667969 C 723.667969 511.667969 729.667969 511.667969 729.667969 515.667969 Z M 729.667969 515.667969 "/>
<path style=" stroke:none;fill-rule:nonzero;fill:rgb(100%,100%,100%);fill-opacity:1;" d="M 751 513 C 751 517 745 517 745 513 C 745 509 751 509 751 513 Z M 751 513 "/>
<path style=" stroke:none;fill-rule:nonzero;fill:rgb(100%,100%,100%);fill-opacity:1;" d="M 769.667969 515.667969 C 769.667969 519.667969 763.667969 519.667969 763.667969 515.667969 C 763.667969 511.667969 769.667969 511.667969 769.667969 515.667969 Z M 769.667969 515.667969 "/>
<path style=" stroke:none;fill-rule:nonzero;fill:rgb(100%,100%,100%);fill-opacity:1;" d="M 791 513 C 791 517 785 517 785 513 C 785 509 791 509 791 513 Z M 791 513 "/>
<path style=" stroke:none;fill-rule:nonzero;fill:rgb(100%,100%,100%);fill-opacity:1;" d="M 809.667969 515.667969 C 809.667969 519.667969 803.667969 519.667969 803.667969 515.667969 C 803.667969 511.667969 809.667969 511.667969 809.667969 515.667969 Z M 809.667969 515.667969 "/>
<path style=" stroke:none;fill-rule:nonzero;fill:rgb(100%,100%,100%);fill-opacity:1;" d="M 831 513 C 831 517 825 517 825 513 C 825 509 831 509 831 513 Z M 831 513 "/>
<path style=" stroke:none;fill-rule:nonzero;fill:rgb(100%,100%,100%);fill-opacity:1;" d="M 447 537 C 447 541 441 541 441 537 C 441 533 447 533 447 537 Z M 447 537 "/>
<path style=" stroke:none;fill-rule:nonzero;fill:rgb(100%,100%,100%);fill-opacity:1;" d="M 463 529 C 463 533 457 533 457 529 C 457 525 463 525 463 529 Z M 463 529 "/>
<path style=" stroke:none;fill-rule:nonzero;fill:rgb(100%,100%,100%);fill-opacity:1;" d="M 487 537 C 487 541 481 541 481 537 C 481 533 487 533 487 537 Z M 487 537 "/>
<path style=" stroke:none;fill-rule:nonzero;fill:rgb(100%,100%,100%);fill-opacity:1;" d="M 503 529 C 503 533 497 533 497 529 C 497 525 503 525 503 529 Z M 503 529 "/>
<path style=" stroke:none;fill-rule:nonzero;fill:rgb(100%,100%,100%);fill-opacity:1;" d="M 527 537 C 527 541 521 541 521 537 C 521 533 527 533 527 537 Z M 527 537 "/>
<path style=" stroke:none;fill-rule:nonzero;fill:rgb(100%,100%,100%);fill-opacity:1;" d="M 543 529 C 543 533 537 533 537 529 C 537 525 543 525 543 529 Z M 543 529 "/>
<path style=" stroke:none;fill-rule:nonzero;fill:rgb(100%,100%,100%);fill-opacity:1;" d="M 567 537 C 567 541 561 541 561 537 C 561 533 567 533 567 537 Z M 567 537 "/>
<path style=" stroke:none;fill-rule:nonzero;fill:rgb(100%,100%,100%);fill-opacity:1;" d="M 583 529 C 583 533 577 533 577 529 C 577 525 583 525 583 529 Z M 583 529 "/>
<path style=" stroke:none;fill-rule:nonzero;fill:rgb(100%,100%,100%);fill-opacity:1;" d="M 607 537 C 607 541 601 541 601 537 C 601 533 607 533 607 537 Z M 607 537 "/>
<path style=" stroke:none;fill-rule:nonzero;fill:rgb(100%,100%,100%);fill-opacity:1;" d="M 623 529 C 623 533 617 533 617 529 C 617 525 623 525 623 529 Z M 623 529 "/>
<path style=" stroke:none;fill-rule:nonzero;fill:rgb(100%,100%,100%);fill-opacity:1;" d="M 647 537 C 647 541 641 541 641 537 C 641 533 647 533 647 537 Z M 647 537 "/>
<path style=" stroke:none;fill-rule:nonzero;fill:rgb(100%,100%,100%);fill-opacity:1;" d="M 663 529 C 663 533 657 533 657 529 C 657 525 663 525 663 529 Z M 663 529 "/>
<path style=" stroke:none;fill-rule:nonzero;fill:rgb(100%,100%,100%);fill-opacity:1;" d="M 687 537 C 687 541 681 541 681 537 C 681 533 687 533 687 537 Z M 687 537 "/>
<path style=" stroke:none;fill-rule:nonzero;fill:rgb(100%,100%,100%);fill-opacity:1;" d="M 703 529 C 703 533 697 533 697 529 C 697 525 703 525 703 529 Z M 703 529 "/>
<path style=" stroke:none;fill-rule:nonzero;fill:rgb(100%,100%,100%);fill-opacity:1;" d="M 727 537 C 727 541 721 541 721 537 C 721 533 727 533 727 537 Z M 727 537 "/>
<path style=" stroke:none;fill-rule:nonzero;fill:rgb(100%,100%,100%);fill-opacity:1;" d="M 743 529 C 743 533 737 533 737 529 C 737 525 743 525 743 529 Z M 743 529 "/>
<path style=" stroke:none;fill-rule:nonzero;fill:rgb(100%,100%,100%);fill-opacity:1;" d="M 767 537 C 767 541 761 541 761 537 C 761 533 767 533 767 537 Z M 767 537 "/>
<path style=" stroke:none;fill-rule:nonzero;fill:rgb(100%,100%,100%);fill-opacity:1;" d="M 783 529 C 783 533 777 533 777 529 C 777 525 783 525 783 529 Z M 783 529 "/>
<path style=" stroke:none;fill-rule:nonzero;fill:rgb(100%,100%,100%);fill-opacity:1;" d="M 807 537 C 807 541 801 541 801 537 C 801 533 807 533 807 537 Z M 807 537 "/>
<path style=" stroke:none;fill-rule:nonzero;fill:rgb(100%,100%,100%);fill-opacity:1;" d="M 823 529 C 823 533 817 533 817 529 C 817 525 823 525 823 529 Z M 823 529 "/>
<path style=" stroke:none;fill-rule:nonzero;fill:rgb(100%,100%,100%);fill-opacity:1;" d="M 449.667969 555.667969 C 449.667969 559.667969 443.667969 559.667969 443.667969 555.667969 C 443.667969 551.667969 449.667969 551.667969 449.667969 555.667969 Z M 449.667969 555.667969 "/>
<path style=" stroke:none;fill-rule:nonzero;fill:rgb(100%,100%,100%);fill-opacity:1;" d="M 471 553 C 471 557 465 557 465 553 C 465 549 471 549 471 553 Z M 471 553 "/>
<path style=" stroke:none;fill-rule:nonzero;fill:rgb(100%,100%,100%);fill-opacity:1;" d="M 489.667969 555.667969 C 489.667969 559.667969 483.667969 559.667969 483.667969 555.667969 C 483.667969 551.667969 489.667969 551.667969 489.667969 555.667969 Z M 489.667969 555.667969 "/>
<path style=" stroke:none;fill-rule:nonzero;fill:rgb(100%,100%,100%);fill-opacity:1;" d="M 511 553 C 511 557 505 557 505 553 C 505 549 511 549 511 553 Z M 511 553 "/>
<path style=" stroke:none;fill-rule:nonzero;fill:rgb(100%,100%,100%);fill-opacity:1;" d="M 529.667969 555.667969 C 529.667969 559.667969 523.667969 559.667969 523.667969 555.667969 C 523.667969 551.667969 529.667969 551.667969 529.667969 555.667969 Z M 529.667969 555.667969 "/>
<path style=" stroke:none;fill-rule:nonzero;fill:rgb(100%,100%,100%);fill-opacity:1;" d="M 551 553 C 551 557 545 557 545 553 C 545 549 551 549 551 553 Z M 551 553 "/>
<path style=" stroke:none;fill-rule:nonzero;fill:rgb(100%,100%,100%);fill-opacity:1;" d="M 569.667969 555.667969 C 569.667969 559.667969 563.667969 559.667969 563.667969 555.667969 C 563.667969 551.667969 569.667969 551.667969 569.667969 555.667969 Z M 569.667969 555.667969 "/>
<path style=" stroke:none;fill-rule:nonzero;fill:rgb(100%,100%,100%);fill-opacity:1;" d="M 591 553 C 591 557 585 557 585 553 C 585 549 591 549 591 553 Z M 591 553 "/>
<path style=" stroke:none;fill-rule:nonzero;fill:rgb(100%,100%,100%);fill-opacity:1;" d="M 609.667969 555.667969 C 609.667969 559.667969 603.667969 559.667969 603.667969 555.667969 C 603.667969 551.667969 609.667969 551.667969 609.667969 555.667969 Z M 609.667969 555.667969 "/>
<path style=" stroke:none;fill-rule:nonzero;fill:rgb(100%,100%,100%);fill-opacity:1;" d="M 631 553 C 631 557 625 557 625 553 C 625 549 631 549 631 553 Z M 631 553 "/>
<path style=" stroke:none;fill-rule:nonzero;fill:rgb(100%,100%,100%);fill-opacity:1;" d="M 649.667969 555.667969 C 649.667969 559.667969 643.667969 559.667969 643.667969 555.667969 C 643.667969 551.667969 649.667969 551.667969 649.667969 555.667969 Z M 649.667969 555.667969 "/>
<path style=" stroke:none;fill-rule:nonzero;fill:rgb(100%,100%,100%);fill-opacity:1;" d="M 671 553 C 671 557 665 557 665 553 C 665 549 671 549 671 553 Z M 671 553 "/>
<path style=" stroke:none;fill-rule:nonzero;fill:rgb(100%,100%,100%);fill-opacity:1;" d="M 689.667969 555.667969 C 689.667969 559.667969 683.667969 559.667969 683.667969 555.667969 C 683.667969 551.667969 689.667969 551.667969 689.667969 555.667969 Z M 689.667969 555.667969 "/>
<path style=" stroke:none;fill-rule:nonzero;fill:rgb(100%,100%,100%);fill-opacity:1;" d="M 711 553 C 711 557 705 557 705 553 C 705 549 711 549 711 553 Z M 711 553 "/>
<path style=" stroke:none;fill-rule:nonzero;fill:rgb(100%,100%,100%);fill-opacity:1;" d="M 729.667969 555.667969 C 729.667969 559.667969 723.667969 559.667969 723.667969 555.667969 C 723.667969 551.667969 729.667969 551.667969 729.667969 555.667969 Z M 729.667969 555.667969 "/>
<path style=" stroke:none;fill-rule:nonzero;fill:rgb(100%,100%,100%);fill-opacity:1;" d="M 751 553 C 751 557 745 557 745 553 C 745 549 751 549 751 553 Z M 751 553 "/>
<path style=" stroke:none;fill-rule:nonzero;fill:rgb(100%,100%,100%);fill-opacity:1;" d="M 769.667969 555.667969 C 769.667969 559.667969 763.667969 559.667969 763.667969 555.667969 C 763.667969 551.667969 769.667969 551.667969 769.667969 555.667969 Z M 769.667969 555.667969 "/>
<path style=" stroke:none;fill-rule:nonzero;fill:rgb(100%,100%,100%);fill-opacity:1;" d="M 791 553 C 791 557 785 557 785 553 C 785 549 791 549 791 553 Z M 791 553 "/>
<path style=" stroke:none;fill-rule:nonzero;fill:rgb(100%,100%,100%);fill-opacity:1;" d="M 809.667969 555.667969 C 809.667969 559.667969 803.667969 559.667969 803.667969 555.667969 C 803.667969 551.667969 809.667969 551.667969 809.667969 555.667969 Z M 809.667969 555.667969 "/>
<path style=" stroke:none;fill-rule:nonzero;fill:rgb(100%,100%,100%);fill-opacity:1;" d="M 831 553 C 831 557 825 557 825 553 C 825 549 831 549 831 553 Z M 831 553 "/>
<path style=" stroke:none;fill-rule:nonzero;fill:rgb(100%,100%,100%);fill-opacity:1;" d="M 447 577 C 447 581 441 581 441 577 C 441 573 447 573 447 577 Z M 447 577 "/>
<path style=" stroke:none;fill-rule:nonzero;fill:rgb(100%,100%,100%);fill-opacity:1;" d="M 463 569 C 463 573 457 573 457 569 C 457 565 463 565 463 569 Z M 463 569 "/>
<path style=" stroke:none;fill-rule:nonzero;fill:rgb(100%,100%,100%);fill-opacity:1;" d="M 487 577 C 487 581 481 581 481 577 C 481 573 487 573 487 577 Z M 487 577 "/>
<path style=" stroke:none;fill-rule:nonzero;fill:rgb(100%,100%,100%);fill-opacity:1;" d="M 503 569 C 503 573 497 573 497 569 C 497 565 503 565 503 569 Z M 503 569 "/>
<path style=" stroke:none;fill-rule:nonzero;fill:rgb(100%,100%,100%);fill-opacity:1;" d="M 527 577 C 527 581 521 581 521 577 C 521 573 527 573 527 577 Z M 527 577 "/>
<path style=" stroke:none;fill-rule:nonzero;fill:rgb(100%,100%,100%);fill-opacity:1;" d="M 543 569 C 543 573 537 573 537 569 C 537 565 543 565 543 569 Z M 543 569 "/>
<path style=" stroke:none;fill-rule:nonzero;fill:rgb(100%,100%,100%);fill-opacity:1;" d="M 567 577 C 567 581 561 581 561 577 C 561 573 567 573 567 577 Z M 567 577 "/>
<path style=" stroke:none;fill-rule:nonzero;fill:rgb(100%,100%,100%);fill-opacity:1;" d="M 583 569 C 583 573 577 573 577 569 C 577 565 583 565 583 569 Z M 583 569 "/>
<path style=" stroke:none;fill-rule:nonzero;fill:rgb(100%,100%,100%);fill-opacity:1;" d="M 607 577 C 607 581 601 581 601 577 C 601 573 607 573 607 577 Z M 607 577 "/>
<path style=" stroke:none;fill-rule:nonzero;fill:rgb(100%,100%,100%);fill-opacity:1;" d="M 623 569 C 623 573 617 573 617 569 C 617 565 623 565 623 569 Z M 623 569 "/>
<path style=" stroke:none;fill-rule:nonzero;fill:rgb(100%,100%,100%);fill-opacity:1;" d="M 647 577 C 647 581 641 581 641 577 C 641 573 647 573 647 577 Z M 647 577 "/>
<path style=" stroke:none;fill-rule:nonzero;fill:rgb(100%,100%,100%);fill-opacity:1;" d="M 663 569 C 663 573 657 573 657 569 C 657 565 663 565 663 569 Z M 663 569 "/>
<path style=" stroke:none;fill-rule:nonzero;fill:rgb(100%,100%,100%);fill-opacity:1;" d="M 687 577 C 687 581 681 581 681 577 C 681 573 687 573 687 577 Z M 687 577 "/>
<path style=" stroke:none;fill-rule:nonzero;fill:rgb(100%,100%,100%);fill-opacity:1;" d="M 703 569 C 703 573 697 573 697 569 C 697 565 703 565 703 569 Z M 703 569 "/>
<path style=" stroke:none;fill-rule:nonzero;fill:rgb(100%,100%,100%);fill-opacity:1;" d="M 727 577 C 727 581 721 581 721 577 C 721 573 727 573 727 577 Z M 727 577 "/>
<path style=" stroke:none;fill-rule:nonzero;fill:rgb(100%,100%,100%);fill-opacity:1;" d="M 743 569 C 743 573 737 573 737 569 C 737 565 743 565 743 569 Z M 743 569 "/>
<path style=" stroke:none;fill-rule:nonzero;fill:rgb(100%,100%,100%);fill-opacity:1;" d="M 767 577 C 767 581 761 581 761 577 C 761 573 767 573 767 577 Z M 767 577 "/>
<path style=" stroke:none;fill-rule:nonzero;fill:rgb(100%,100%,100%);fill-opacity:1;" d="M 783 569 C 783 573 777 573 777 569 C 777 565 783 565 783 569 Z M 783 569 "/>
<path style=" stroke:none;fill-rule:nonzero;fill:rgb(100%,100%,100%);fill-opacity:1;" d="M 807 577 C 807 581 801 581 801 577 C 801 573 807 573 807 577 Z M 807 577 "/>
<path style=" stroke:none;fill-rule:nonzero;fill:rgb(100%,100%,100%);fill-opacity:1;" d="M 823 569 C 823 573 817 573 817 569 C 817 565 823 565 823 569 Z M 823 569 "/>
</g>
</svg>
